SplineFontDB: 3.0
FontName: Alegreya-Italic
FullName: Alegreya Italic
FamilyName: Alegreya
Weight: Book
Copyright: Copyright (c) 2011, Juan Pablo del Peral (juan@huertatipografica.com.ar), with Reserved Font Names "Alegreya" "Alegreya SC"
Version: 1.003
ItalicAngle: 0
UnderlinePosition: -59
UnderlineWidth: 56
Ascent: 800
Descent: 200
sfntRevision: 0x000100c5
LayerCount: 2
Layer: 0 1 "Back"  1
Layer: 1 1 "Fore"  0
XUID: [1021 593 690693607 6400872]
FSType: 0
OS2Version: 2
OS2_WeightWidthSlopeOnly: 0
OS2_UseTypoMetrics: 1
CreationTime: 1325707241
ModificationTime: 1325707762
PfmFamily: 17
TTFWeight: 400
TTFWidth: 5
LineGap: 0
VLineGap: 0
Panose: 2 0 5 3 5 0 0 2 0 4
OS2TypoAscent: 216
OS2TypoAOffset: 1
OS2TypoDescent: -145
OS2TypoDOffset: 1
OS2TypoLinegap: 0
OS2WinAscent: 71
OS2WinAOffset: 1
OS2WinDescent: 52
OS2WinDOffset: 1
HheadAscent: 71
HheadAOffset: 1
HheadDescent: -52
HheadDOffset: 1
OS2SubXSize: 700
OS2SubYSize: 650
OS2SubXOff: 0
OS2SubYOff: 140
OS2SupXSize: 700
OS2SupYSize: 650
OS2SupXOff: 0
OS2SupYOff: 477
OS2StrikeYSize: 50
OS2StrikeYPos: 250
OS2FamilyClass: 258
OS2Vendor: 'pyrs'
OS2CodePages: 20000093.00000000
OS2UnicodeRanges: a00000ef.4000204b.00000000.00000000
Lookup: 258 0 0 "'kern' Horizontal Kerning lookup 0"  {"'kern' Horizontal Kerning lookup 0 subtable"  } ['kern' ('DFLT' <'dflt' > ) ]
DEI: 91125
TtTable: prep
PUSHW_1
 511
SCANCTRL
PUSHB_1
 4
SCANTYPE
EndTTInstrs
ShortTable: maxp 16
  1
  0
  501
  87
  7
  0
  0
  2
  0
  1
  1
  0
  64
  0
  0
  0
EndShort
LangName: 1033 "" "" "" "FONTLAB:OTFEXPORT" "" "Version 1.003" "" "Alegreya is a trademark of Juan Pablo del Peral" "Juan Pablo del Peral" "Juan Pablo del Peral" "" "www.huertatipografica.com.ar" "www.huertatipografica.com.ar" "This Font Software is licensed under the SIL Open Font License, Version 1.1. This license is available with a FAQ at: http://scripts.sil.org/OFL" "http://scripts.sil.org/OFL" 
GaspTable: 1 65535 15 1
Encoding: UnicodeBmp
UnicodeInterp: none
NameList: Adobe Glyph List

StartChar: exclam
Encoding: 33 33 4
Width: 274
GlyphClass: 2
Flags: W
LayerCount: 2
Fore
SplineSet
134.5 8 m 128,-1,1
 115 -12 115 -12 88 -12 c 128,-1,2
 61 -12 61 -12 48.5 2.5 c 128,-1,3
 36 17 36 17 36 41.5 c 128,-1,4
 36 66 36 66 55.5 86.5 c 128,-1,5
 75 107 75 107 101.5 107 c 128,-1,6
 128 107 128 107 141 93 c 128,-1,7
 154 79 154 79 154 53.5 c 128,-1,0
 154 28 154 28 134.5 8 c 128,-1,1
100 210 m 1,8,-1
 147 666 l 1,9,-1
 156 676 l 1,10,-1
 240 694 l 1,11,-1
 248 683 l 1,12,-1
 139 209 l 1,13,-1
 110 202 l 1,14,-1
 100 210 l 1,8,-1
EndSplineSet
EndChar

StartChar: quotedbl
Encoding: 34 34 5
Width: 287
GlyphClass: 2
Flags: W
LayerCount: 2
Fore
SplineSet
177 649 m 1,0,-1
 183 641 l 1,1,2
 156 531 156 531 123 429 c 1,3,-1
 96 415 l 1,4,-1
 86 417 l 1,5,6
 101 506 101 506 107 635 c 1,7,-1
 177 649 l 1,0,-1
296 649 m 1,8,-1
 302 641 l 1,9,10
 275 531 275 531 242 429 c 1,11,-1
 215 415 l 1,12,-1
 204 417 l 1,13,14
 219 506 219 506 225 635 c 1,15,-1
 296 649 l 1,8,-1
EndSplineSet
EndChar

StartChar: numbersign
Encoding: 35 35 6
Width: 480
GlyphClass: 2
Flags: W
LayerCount: 2
Fore
SplineSet
66 362 m 1,0,-1
 64 372 l 1,1,-1
 83 409 l 1,2,-1
 186 408 l 1,3,-1
 240 568 l 1,4,-1
 281 573 l 1,5,-1
 288 567 l 1,6,-1
 232 407 l 1,7,-1
 282 407 l 1,8,-1
 332 406 l 1,9,-1
 387 568 l 1,10,-1
 428 573 l 1,11,-1
 435 567 l 1,12,-1
 379 406 l 1,13,-1
 482 406 l 1,14,-1
 485 397 l 1,15,-1
 462 361 l 1,16,-1
 362 362 l 1,17,-1
 325 252 l 1,18,-1
 427 252 l 1,19,-1
 430 243 l 1,20,-1
 408 207 l 1,21,-1
 310 208 l 1,22,-1
 256 43 l 1,23,-1
 216 35 l 1,24,-1
 209 41 l 1,25,-1
 265 209 l 1,26,-1
 199 210 l 1,27,-1
 164 209 l 1,28,-1
 109 43 l 1,29,-1
 68 35 l 1,30,-1
 62 41 l 1,31,-1
 118 209 l 1,32,-1
 12 208 l 1,33,-1
 10 218 l 1,34,-1
 29 255 l 1,35,-1
 133 254 l 1,36,-1
 170 363 l 1,37,-1
 66 362 l 1,0,-1
216 363 m 1,38,-1
 178 253 l 1,39,-1
 228 253 l 1,40,-1
 280 252 l 1,41,-1
 317 363 l 1,42,-1
 253 364 l 1,43,-1
 216 363 l 1,38,-1
EndSplineSet
EndChar

StartChar: dollar
Encoding: 36 36 7
Width: 428
GlyphClass: 2
Flags: W
LayerCount: 2
Fore
SplineSet
338 350 m 1,0,1
 346 382 346 382 346 406 c 0,2,3
 346 454 346 454 286 458 c 1,4,-1
 249 288 l 1,5,6
 325 246 325 246 352.5 219 c 128,-1,7
 380 192 380 192 380 154 c 0,8,9
 380 86 380 86 326 41 c 128,-1,10
 272 -4 272 -4 185 -8 c 1,11,-1
 155 -151 l 1,12,-1
 128 -154 l 1,13,-1
 124 -147 l 1,14,-1
 153 -9 l 1,15,16
 93 -7 93 -7 37 17 c 1,17,-1
 34 26 l 1,18,19
 52 87 52 87 62 161 c 1,20,-1
 103 165 l 1,21,22
 98 130 98 130 98 104 c 128,-1,23
 98 78 98 78 104 64 c 0,24,25
 116 38 116 38 163 34 c 1,26,-1
 202 219 l 1,27,28
 112 269 112 269 94 306 c 0,29,30
 85 325 85 325 85 348 c 0,31,32
 85 411 85 411 135.5 456 c 128,-1,33
 186 501 186 501 263 506 c 1,34,-1
 295 654 l 1,35,-1
 323 658 l 1,36,-1
 327 649 l 1,37,-1
 296 507 l 1,38,39
 353 505 353 505 411 487 c 1,40,-1
 413 482 l 1,41,42
 393 421 393 421 379 349 c 1,43,-1
 343 346 l 1,44,-1
 338 350 l 1,0,1
271.5 60 m 128,-1,46
 301 84 301 84 301 123 c 128,-1,47
 301 162 301 162 231 203 c 1,48,-1
 194 34 l 1,49,45
 242 36 242 36 271.5 60 c 128,-1,46
185 434.5 m 128,-1,51
 158 413 158 413 158 379 c 128,-1,52
 158 345 158 345 218 306 c 1,53,-1
 220 304 l 1,54,-1
 253 459 l 1,55,50
 212 456 212 456 185 434.5 c 128,-1,51
EndSplineSet
EndChar

StartChar: percent
Encoding: 37 37 8
Width: 647
GlyphClass: 2
Flags: W
LayerCount: 2
Fore
SplineSet
136.5 413 m 128,-1,1
 162 390 162 390 198.5 390 c 128,-1,2
 235 390 235 390 264.5 412.5 c 128,-1,3
 294 435 294 435 294 483 c 128,-1,4
 294 531 294 531 270.5 557 c 128,-1,5
 247 583 247 583 205 583 c 128,-1,6
 163 583 163 583 137 554.5 c 128,-1,7
 111 526 111 526 111 481 c 128,-1,0
 111 436 111 436 136.5 413 c 128,-1,1
183 326 m 0,8,9
 129 326 129 326 96 363.5 c 128,-1,10
 63 401 63 401 63 459 c 0,11,12
 63 540 63 540 108.5 594.5 c 128,-1,13
 154 649 154 649 217 649 c 128,-1,14
 280 649 280 649 311.5 611 c 128,-1,15
 343 573 343 573 343 520 c 0,16,17
 343 442 343 442 299.5 384 c 128,-1,18
 256 326 256 326 183 326 c 0,8,9
423.5 75 m 128,-1,20
 449 52 449 52 485 52 c 128,-1,21
 521 52 521 52 550.5 74.5 c 128,-1,22
 580 97 580 97 580 145.5 c 128,-1,23
 580 194 580 194 557 219.5 c 128,-1,24
 534 245 534 245 492 245 c 128,-1,25
 450 245 450 245 424 216.5 c 128,-1,26
 398 188 398 188 398 143 c 128,-1,19
 398 98 398 98 423.5 75 c 128,-1,20
470 -12 m 0,27,28
 416 -12 416 -12 383 25.5 c 128,-1,29
 350 63 350 63 350 121 c 0,30,31
 350 202 350 202 395.5 256.5 c 128,-1,32
 441 311 441 311 504 311 c 128,-1,33
 567 311 567 311 598.5 273 c 128,-1,34
 630 235 630 235 630 182 c 0,35,36
 630 104 630 104 586.5 46 c 128,-1,37
 543 -12 543 -12 470 -12 c 0,27,28
582 659 m 1,38,-1
 587 645 l 1,39,40
 413 386 413 386 325 245 c 2,41,-1
 110 -95 l 1,42,-1
 72 -76 l 1,43,-1
 67 -64 l 1,44,45
 200 138 200 138 543 678 c 1,46,-1
 582 659 l 1,38,-1
EndSplineSet
EndChar

StartChar: ampersand
Encoding: 38 38 9
Width: 567
GlyphClass: 2
Flags: W
LayerCount: 2
Fore
SplineSet
174 479 m 128,-1,1
 174 425 174 425 211 391 c 128,-1,2
 248 357 248 357 308 357 c 1,3,-1
 569 374 l 2,4,5
 620 377 620 377 661 421 c 1,6,-1
 679 411 l 1,7,-1
 651 355 l 2,8,9
 639 331 639 331 624 322.5 c 128,-1,10
 609 314 609 314 580 314 c 2,11,-1
 482 314 l 1,12,-1
 477 306 l 1,13,14
 502 274 502 274 502 226 c 0,15,16
 502 129 502 129 422.5 58.5 c 128,-1,17
 343 -12 343 -12 235 -12 c 0,18,19
 156 -12 156 -12 101.5 30.5 c 128,-1,20
 47 73 47 73 47 135.5 c 128,-1,21
 47 198 47 198 91 247 c 128,-1,22
 135 296 135 296 209 319 c 1,23,24
 158 338 158 338 130.5 376 c 128,-1,25
 103 414 103 414 103 462 c 0,26,27
 103 540 103 540 169 594.5 c 128,-1,28
 235 649 235 649 317.5 649 c 128,-1,29
 400 649 400 649 479 625 c 1,30,-1
 481 621 l 1,31,32
 455 553 455 553 441 475 c 1,33,-1
 395 471 l 1,34,35
 404 507 404 507 404 524 c 0,36,37
 404 557 404 557 380 575.5 c 128,-1,38
 356 594 356 594 301.5 594 c 128,-1,39
 247 594 247 594 210.5 563.5 c 128,-1,0
 174 533 174 533 174 479 c 128,-1,1
443 213 m 0,40,41
 443 256 443 256 424 285 c 128,-1,42
 405 314 405 314 375 314 c 2,43,-1
 259 314 l 1,44,45
 183 278 183 278 153.5 245.5 c 128,-1,46
 124 213 124 213 124 164 c 128,-1,47
 124 115 124 115 161.5 80.5 c 128,-1,48
 199 46 199 46 257 46 c 0,49,50
 336 46 336 46 389.5 93 c 128,-1,51
 443 140 443 140 443 213 c 0,40,41
EndSplineSet
EndChar

StartChar: quotesingle
Encoding: 39 39 10
Width: 169
GlyphClass: 2
Flags: W
LayerCount: 2
Fore
SplineSet
177 649 m 1,0,-1
 183 641 l 1,1,2
 156 531 156 531 123 429 c 1,3,-1
 96 415 l 1,4,-1
 86 417 l 1,5,6
 101 506 101 506 107 635 c 1,7,-1
 177 649 l 1,0,-1
EndSplineSet
EndChar

StartChar: parenleft
Encoding: 40 40 11
Width: 297
GlyphClass: 2
Flags: W
LayerCount: 2
Fore
SplineSet
142 178 m 2,0,1
 138 143 138 143 138 114 c 128,-1,2
 138 85 138 85 143 48.5 c 128,-1,3
 148 12 148 12 164 -22 c 1,4,5
 195 -83 195 -83 228 -106 c 2,6,-1
 241 -115 l 1,7,-1
 241 -120 l 1,8,-1
 216 -146 l 1,9,-1
 212 -146 l 1,10,11
 210 -145 210 -145 206.5 -143.5 c 128,-1,12
 203 -142 203 -142 191 -135 c 128,-1,13
 179 -128 179 -128 169 -119.5 c 128,-1,14
 159 -111 159 -111 144 -96.5 c 128,-1,15
 129 -82 129 -82 118.5 -65 c 128,-1,16
 108 -48 108 -48 95.5 -24.5 c 128,-1,17
 83 -1 83 -1 78 26 c 1,18,19
 69 87 69 87 69 112.5 c 128,-1,20
 69 138 69 138 73 163 c 2,21,-1
 94 336 l 2,22,23
 106 436 106 436 150 506 c 1,24,25
 191 569 191 569 236 603 c 0,26,27
 276 634 276 634 312 649 c 1,28,-1
 317 649 l 1,29,-1
 327 620 l 1,30,-1
 325 616 l 1,31,32
 311 611 311 611 281 586 c 128,-1,33
 251 561 251 561 230.5 534 c 128,-1,34
 210 507 210 507 190 458 c 128,-1,35
 170 409 170 409 163 351 c 2,36,-1
 142 178 l 2,0,1
EndSplineSet
EndChar

StartChar: parenright
Encoding: 41 41 12
Width: 301
GlyphClass: 2
Flags: W
LayerCount: 2
Fore
SplineSet
163 325 m 2,0,1
 167 357 167 357 167 386 c 128,-1,2
 167 415 167 415 161.5 454.5 c 128,-1,3
 156 494 156 494 140 525 c 0,4,5
 104 591 104 591 76 610 c 1,6,-1
 63 618 l 1,7,-1
 64 623 l 1,8,-1
 88 649 l 1,9,-1
 92 649 l 1,10,11
 94 648 94 648 97.5 646.5 c 128,-1,12
 101 645 101 645 113 638 c 128,-1,13
 125 631 125 631 135 622.5 c 128,-1,14
 145 614 145 614 160 599.5 c 128,-1,15
 175 585 175 585 185.5 568 c 128,-1,16
 196 551 196 551 208.5 527.5 c 128,-1,17
 221 504 221 504 226 476 c 0,18,19
 236 419 236 419 236 392 c 128,-1,20
 236 365 236 365 232 340 c 2,21,-1
 210 167 l 2,22,23
 198 67 198 67 154 -2 c 0,24,25
 113 -66 113 -66 68 -100 c 0,26,27
 28 -131 28 -131 -8 -146 c 1,28,-1
 -12 -146 l 1,29,-1
 -22 -117 l 1,30,-1
 -21 -113 l 1,31,32
 -7 -108 -7 -108 23 -83 c 128,-1,33
 53 -58 53 -58 73.5 -31 c 128,-1,34
 94 -4 94 -4 114.5 45 c 128,-1,35
 135 94 135 94 142 152 c 2,36,-1
 163 325 l 2,0,1
EndSplineSet
EndChar

StartChar: asterisk
Encoding: 42 42 13
Width: 435
GlyphClass: 2
Flags: W
LayerCount: 2
Fore
SplineSet
124 666 m 1,0,1
 179 637 179 637 224 603 c 1,2,-1
 218 570 l 1,3,-1
 212 565 l 1,4,-1
 106 594 l 1,5,6
 106 632 106 632 115 662 c 1,7,-1
 124 666 l 1,0,1
129 473 m 1,8,9
 173 517 173 517 220 549 c 1,10,-1
 249 533 l 1,11,-1
 252 526 l 1,12,13
 224 488 224 488 192 434 c 1,14,15
 156 446 156 446 130 464 c 1,16,-1
 129 473 l 1,8,9
314 418 m 1,17,18
 286 474 286 474 270 528 c 1,19,-1
 294 551 l 1,20,-1
 302 552 l 1,21,22
 330 512 330 512 370 466 c 1,23,24
 348 436 348 436 323 417 c 1,25,-1
 314 418 l 1,17,18
423 577 m 1,26,27
 372 570 372 570 342.5 570 c 128,-1,28
 313 570 313 570 305 570 c 1,29,-1
 291 599 l 1,30,-1
 292 607 l 1,31,32
 333 620 333 620 395 646 c 1,33,34
 417 615 417 615 427 586 c 1,35,-1
 423 577 l 1,26,27
306 730 m 1,36,37
 295 669 295 669 277 616 c 1,38,-1
 243 611 l 1,39,-1
 237 615 l 1,40,-1
 232 725 l 1,41,42
 268 737 268 737 299 737 c 1,43,-1
 306 730 l 1,36,37
EndSplineSet
EndChar

StartChar: plus
Encoding: 43 43 14
Width: 486
GlyphClass: 2
Flags: W
LayerCount: 2
Fore
SplineSet
299 500 m 1,0,-1
 308 494 l 1,1,2
 287 371 287 371 277 291 c 1,3,-1
 472 297 l 1,4,-1
 477 287 l 1,5,-1
 463 236 l 1,6,-1
 270 235 l 1,7,-1
 247 41 l 1,8,-1
 196 30 l 1,9,-1
 188 36 l 1,10,11
 203 147 203 147 214 235 c 1,12,-1
 25 234 l 1,13,-1
 20 243 l 1,14,-1
 37 292 l 1,15,16
 138 291 138 291 221 291 c 1,17,-1
 246 492 l 1,18,-1
 299 500 l 1,0,-1
EndSplineSet
EndChar

StartChar: comma
Encoding: 44 44 15
Width: 228
GlyphClass: 2
Flags: W
LayerCount: 2
Fore
SplineSet
35 73 m 1,0,1
 69 99 69 99 92 99 c 128,-1,2
 115 99 115 99 129.5 78.5 c 128,-1,3
 144 58 144 58 144 13.5 c 128,-1,4
 144 -31 144 -31 102 -77.5 c 128,-1,5
 60 -124 60 -124 4 -157 c 1,6,-1
 -14 -142 l 1,7,-1
 -14 -132 l 1,8,9
 21 -108 21 -108 43 -75 c 128,-1,10
 65 -42 65 -42 65 -6.5 c 128,-1,11
 65 29 65 29 33 59 c 1,12,-1
 35 73 l 1,0,1
EndSplineSet
EndChar

StartChar: hyphen
Encoding: 45 45 16
Width: 311
GlyphClass: 2
Flags: W
LayerCount: 2
Fore
SplineSet
279 299 m 1,0,-1
 285 290 l 1,1,-1
 274 236 l 1,2,-1
 40 210 l 1,3,-1
 34 218 l 1,4,-1
 47 270 l 1,5,-1
 215 290 l 1,6,-1
 279 299 l 1,0,-1
EndSplineSet
EndChar

StartChar: period
Encoding: 46 46 17
Width: 229
GlyphClass: 2
Flags: W
LayerCount: 2
Fore
SplineSet
133 8.5 m 128,-1,1
 113 -12 113 -12 86 -12 c 128,-1,2
 59 -12 59 -12 46.5 2.5 c 128,-1,3
 34 17 34 17 34 41.5 c 128,-1,4
 34 66 34 66 54 86.5 c 128,-1,5
 74 107 74 107 100.5 107 c 128,-1,6
 127 107 127 107 140 93 c 128,-1,7
 153 79 153 79 153 54 c 128,-1,0
 153 29 153 29 133 8.5 c 128,-1,1
EndSplineSet
EndChar

StartChar: slash
Encoding: 47 47 18
Width: 316
GlyphClass: 2
Flags: W
LayerCount: 2
Fore
SplineSet
333 675 m 1,0,-1
 339 665 l 1,1,2
 208 325 208 325 46 -110 c 1,3,-1
 -2 -110 l 1,4,-1
 -8 -102 l 1,5,6
 65 74 65 74 121 226 c 2,7,-1
 286 675 l 1,8,-1
 333 675 l 1,0,-1
EndSplineSet
EndChar

StartChar: zero
Encoding: 48 48 19
Width: 510
GlyphClass: 2
Flags: W
LayerCount: 2
Fore
SplineSet
214 -12 m 0,0,1
 131 -12 131 -12 83 45.5 c 128,-1,2
 35 103 35 103 35 198 c 0,3,4
 35 328 35 328 113.5 416.5 c 128,-1,5
 192 505 192 505 304 505 c 0,6,7
 385 505 385 505 433.5 447.5 c 128,-1,8
 482 390 482 390 482 297 c 0,9,10
 482 167 482 167 404 77.5 c 128,-1,11
 326 -12 326 -12 214 -12 c 0,0,1
133 108.5 m 128,-1,13
 173 64 173 64 246 64 c 128,-1,14
 319 64 319 64 371 119 c 128,-1,15
 423 174 423 174 423 253.5 c 128,-1,16
 423 333 423 333 382 378.5 c 128,-1,17
 341 424 341 424 267.5 424 c 128,-1,18
 194 424 194 424 143.5 368.5 c 128,-1,19
 93 313 93 313 93 233 c 128,-1,12
 93 153 93 153 133 108.5 c 128,-1,13
EndSplineSet
EndChar

StartChar: one
Encoding: 49 49 20
Width: 340
GlyphClass: 2
Flags: W
LayerCount: 2
Fore
SplineSet
68 472 m 1,0,1
 94 472 94 472 277 505 c 1,2,-1
 281 488 l 1,3,4
 260 471 260 471 251 454.5 c 128,-1,5
 242 438 242 438 235 404 c 1,6,7
 191 132 191 132 191 98 c 128,-1,8
 191 64 191 64 200 54 c 128,-1,9
 209 44 209 44 232 44 c 1,10,-1
 283 47 l 1,11,-1
 284 43 l 1,12,-1
 270 -3 l 1,13,14
 189 0 189 0 154 0 c 0,15,16
 98 0 98 0 18 -12 c 1,17,-1
 29 34 l 1,18,19
 83 39 83 39 102.5 60.5 c 128,-1,20
 122 82 122 82 129 148 c 1,21,22
 159 389 159 389 159 402 c 0,23,24
 159 433 159 433 113 433 c 1,25,-1
 61 427 l 1,26,-1
 59 430 l 1,27,-1
 68 472 l 1,0,1
EndSplineSet
EndChar

StartChar: two
Encoding: 50 50 21
Width: 456
GlyphClass: 2
Flags: W
LayerCount: 2
Fore
SplineSet
275 377 m 0,0,1
 275 406 275 406 258.5 422 c 128,-1,2
 242 438 242 438 211 438 c 128,-1,3
 180 438 180 438 145 414 c 128,-1,4
 110 390 110 390 84 349 c 1,5,-1
 75 349 l 1,6,-1
 69 394 l 1,7,8
 100 442 100 442 150.5 473.5 c 128,-1,9
 201 505 201 505 251 505 c 128,-1,10
 301 505 301 505 333.5 476.5 c 128,-1,11
 366 448 366 448 366 399 c 128,-1,12
 366 350 366 350 318.5 285 c 128,-1,13
 271 220 271 220 123 68 c 1,14,-1
 126 61 l 1,15,-1
 269 61 l 2,16,17
 322 61 322 61 344 78 c 128,-1,18
 366 95 366 95 387 152 c 1,19,-1
 428 157 l 1,20,21
 398 73 398 73 381 0 c 1,22,-1
 369 -7 l 1,23,24
 143 0 143 0 60 0 c 1,25,-1
 6 -12 l 1,26,-1
 -1 6 l 1,27,-1
 85 94 l 2,28,29
 275 288 275 288 275 377 c 0,0,1
EndSplineSet
EndChar

StartChar: three
Encoding: 51 51 22
Width: 400
GlyphClass: 2
Flags: W
LayerCount: 2
Fore
SplineSet
70 -35 m 0,0,1
 146 -35 146 -35 200.5 7 c 128,-1,2
 255 49 255 49 255 109 c 0,3,4
 255 198 255 198 97 199 c 1,5,-1
 92 204 l 1,6,-1
 92 239 l 1,7,-1
 156 255 l 1,8,9
 200 276 200 276 228.5 310.5 c 128,-1,10
 257 345 257 345 257 376.5 c 128,-1,11
 257 408 257 408 238.5 425 c 128,-1,12
 220 442 220 442 191 442 c 0,13,14
 132 442 132 442 76 391 c 1,15,-1
 66 391 l 1,16,-1
 61 433 l 1,17,18
 167 505 167 505 224.5 505 c 128,-1,19
 282 505 282 505 312.5 478 c 128,-1,20
 343 451 343 451 343 406.5 c 128,-1,21
 343 362 343 362 309 320.5 c 128,-1,22
 275 279 275 279 219 251 c 1,23,-1
 218 246 l 1,24,25
 334 217 334 217 334 134 c 0,26,27
 334 81 334 81 288 24.5 c 128,-1,28
 242 -32 242 -32 173 -68.5 c 128,-1,29
 104 -105 104 -105 41 -105 c 0,30,31
 8 -105 8 -105 -2.5 -90 c 128,-1,32
 -13 -75 -13 -75 -13 -58.5 c 128,-1,33
 -13 -42 -13 -42 -12 -32 c 1,34,-1
 -6 -26 l 1,35,36
 33 -35 33 -35 70 -35 c 0,0,1
EndSplineSet
EndChar

StartChar: four
Encoding: 52 52 23
Width: 431
GlyphClass: 2
Flags: W
LayerCount: 2
Fore
SplineSet
307 504 m 1,0,-1
 311 505 l 1,1,-1
 343 495 l 1,2,-1
 300 143 l 1,3,-1
 389 143 l 1,4,-1
 394 135 l 1,5,-1
 379 80 l 1,6,7
 344 81 344 81 293 83 c 1,8,-1
 279 -86 l 1,9,-1
 273 -93 l 1,10,-1
 201 -105 l 1,11,-1
 196 -96 l 1,12,13
 213 7 213 7 224 85 c 1,14,15
 76 89 76 89 -12 89 c 1,16,17
 -11 95 -11 95 -8 107.5 c 128,-1,18
 -5 120 -5 120 -4 126 c 1,19,-1
 307 504 l 1,0,-1
250 367 m 1,20,-1
 70 143 l 1,21,-1
 231 143 l 1,22,-1
 259 367 l 1,23,-1
 250 367 l 1,20,-1
EndSplineSet
EndChar

StartChar: five
Encoding: 53 53 24
Width: 413
GlyphClass: 2
Flags: W
LayerCount: 2
Fore
SplineSet
340 141 m 128,-1,1
 340 81 340 81 289.5 22.5 c 128,-1,2
 239 -36 239 -36 168 -70.5 c 128,-1,3
 97 -105 97 -105 36 -105 c 0,4,5
 6 -105 6 -105 -5.5 -91.5 c 128,-1,6
 -17 -78 -17 -78 -17 -60 c 128,-1,7
 -17 -42 -17 -42 -16 -32 c 1,8,-1
 -10 -26 l 1,9,10
 29 -35 29 -35 67 -35 c 0,11,12
 148 -35 148 -35 204 5.5 c 128,-1,13
 260 46 260 46 260 109 c 0,14,15
 260 153 260 153 218.5 179 c 128,-1,16
 177 205 177 205 75 224 c 1,17,-1
 68 235 l 1,18,-1
 114 479 l 1,19,-1
 123 487 l 1,20,-1
 306 495 l 2,21,22
 334 497 334 497 347.5 504.5 c 128,-1,23
 361 512 361 512 371 534 c 1,24,-1
 405 538 l 1,25,-1
 367 420 l 1,26,-1
 360 414 l 1,27,28
 263 422 263 422 152 422 c 1,29,-1
 130 293 l 1,30,31
 229 272 229 272 284.5 236.5 c 128,-1,0
 340 201 340 201 340 141 c 128,-1,1
EndSplineSet
EndChar

StartChar: six
Encoding: 54 54 25
Width: 437
GlyphClass: 2
Flags: W
LayerCount: 2
Fore
SplineSet
253 344 m 0,0,1
 323 344 323 344 361.5 299.5 c 128,-1,2
 400 255 400 255 400 196 c 0,3,4
 400 112 400 112 337 50 c 128,-1,5
 274 -12 274 -12 183 -12 c 0,6,7
 113 -12 113 -12 73 38 c 128,-1,8
 33 88 33 88 33 160.5 c 128,-1,9
 33 233 33 233 53.5 292 c 128,-1,10
 74 351 74 351 106.5 393.5 c 128,-1,11
 139 436 139 436 178.5 471.5 c 128,-1,12
 218 507 218 507 258 530 c 0,13,14
 342 578 342 578 384 592 c 1,15,-1
 404 598 l 1,16,-1
 410 593 l 1,17,-1
 417 563 l 1,18,19
 385 551 385 551 343 526 c 128,-1,20
 301 501 301 501 267.5 473 c 128,-1,21
 234 445 234 445 196.5 397 c 128,-1,22
 159 349 159 349 138 294 c 1,23,-1
 141 292 l 1,24,25
 226 344 226 344 253 344 c 0,0,1
295.5 251.5 m 128,-1,27
 268 285 268 285 222.5 285 c 128,-1,28
 177 285 177 285 123 248 c 1,29,30
 112 202 112 202 112 171 c 0,31,32
 112 109 112 109 137 72.5 c 128,-1,33
 162 36 162 36 210.5 36 c 128,-1,34
 259 36 259 36 291 73 c 128,-1,35
 323 110 323 110 323 164 c 128,-1,26
 323 218 323 218 295.5 251.5 c 128,-1,27
EndSplineSet
EndChar

StartChar: seven
Encoding: 55 55 26
Width: 404
GlyphClass: 2
Flags: W
LayerCount: 2
Fore
SplineSet
210 493 m 2,0,-1
 413 493 l 1,1,-1
 432 465 l 1,2,3
 344 318 344 318 159 -19 c 1,4,-1
 124 -105 l 1,5,-1
 117 -105 l 1,6,-1
 60 -87 l 1,7,-1
 53 -65 l 1,8,-1
 351 425 l 1,9,-1
 187 418 l 2,10,11
 139 416 139 416 121 398 c 128,-1,12
 103 380 103 380 87 325 c 1,13,-1
 48 319 l 1,14,15
 73 416 73 416 87 492 c 1,16,-1
 94 497 l 1,17,18
 151 493 151 493 210 493 c 2,0,-1
EndSplineSet
EndChar

StartChar: eight
Encoding: 56 56 27
Width: 466
GlyphClass: 2
Flags: W
LayerCount: 2
Fore
SplineSet
40 110 m 0,0,1
 40 221 40 221 184 289 c 1,2,3
 95 343 95 343 95 416 c 128,-1,4
 95 489 95 489 152.5 543.5 c 128,-1,5
 210 598 210 598 290 598 c 0,6,7
 347 598 347 598 386.5 567 c 128,-1,8
 426 536 426 536 426 479 c 0,9,10
 426 378 426 378 312 319 c 1,11,12
 409 260 409 260 409 181.5 c 128,-1,13
 409 103 409 103 344 45.5 c 128,-1,14
 279 -12 279 -12 189 -12 c 0,15,16
 125 -12 125 -12 82.5 20.5 c 128,-1,17
 40 53 40 53 40 110 c 0,0,1
143.5 62 m 128,-1,19
 172 31 172 31 217.5 31 c 128,-1,20
 263 31 263 31 299.5 65 c 128,-1,21
 336 99 336 99 336 147 c 0,22,23
 336 189 336 189 301 218 c 0,24,25
 271 242 271 242 245.5 255.5 c 128,-1,26
 220 269 220 269 217 271 c 1,27,28
 115 228 115 228 115 136 c 0,29,18
 115 93 115 93 143.5 62 c 128,-1,19
278 337 m 1,30,31
 349 378 349 378 349 460 c 0,32,33
 349 504 349 504 326.5 528 c 128,-1,34
 304 552 304 552 265 552 c 128,-1,35
 226 552 226 552 197.5 523 c 128,-1,36
 169 494 169 494 169 454.5 c 128,-1,37
 169 415 169 415 200 390 c 128,-1,38
 231 365 231 365 278 337 c 1,30,31
EndSplineSet
EndChar

StartChar: nine
Encoding: 57 57 28
Width: 437
GlyphClass: 2
Flags: W
LayerCount: 2
Fore
SplineSet
191 149 m 0,0,1
 120 149 120 149 82 193.5 c 128,-1,2
 44 238 44 238 44 297 c 0,3,4
 44 381 44 381 107 443 c 128,-1,5
 170 505 170 505 261 505 c 0,6,7
 331 505 331 505 371 455 c 128,-1,8
 411 405 411 405 411 332.5 c 128,-1,9
 411 260 411 260 390.5 201 c 128,-1,10
 370 142 370 142 337.5 99.5 c 128,-1,11
 305 57 305 57 265.5 21.5 c 128,-1,12
 226 -14 226 -14 186 -37 c 0,13,14
 102 -85 102 -85 60 -98 c 1,15,-1
 40 -105 l 1,16,-1
 34 -100 l 1,17,-1
 26 -70 l 1,18,19
 58 -58 58 -58 100 -33.5 c 128,-1,20
 142 -9 142 -9 176 19 c 128,-1,21
 210 47 210 47 247.5 95 c 128,-1,22
 285 143 285 143 305 198 c 1,23,-1
 302 201 l 1,24,25
 219 149 219 149 191 149 c 0,0,1
148 240.5 m 128,-1,27
 175 208 175 208 219.5 208 c 128,-1,28
 264 208 264 208 321 245 c 1,29,30
 331 288 331 288 331 321 c 0,31,32
 331 383 331 383 306 420 c 128,-1,33
 281 457 281 457 233 457 c 128,-1,34
 185 457 185 457 153 419.5 c 128,-1,35
 121 382 121 382 121 327.5 c 128,-1,26
 121 273 121 273 148 240.5 c 128,-1,27
EndSplineSet
EndChar

StartChar: colon
Encoding: 58 58 29
Width: 228
GlyphClass: 2
Flags: W
LayerCount: 2
Fore
SplineSet
129 8.5 m 128,-1,1
 109 -12 109 -12 82 -12 c 128,-1,2
 55 -12 55 -12 42.5 2.5 c 128,-1,3
 30 17 30 17 30 41.5 c 128,-1,4
 30 66 30 66 50 86.5 c 128,-1,5
 70 107 70 107 96.5 107 c 128,-1,6
 123 107 123 107 136 93 c 128,-1,7
 149 79 149 79 149 54 c 128,-1,0
 149 29 149 29 129 8.5 c 128,-1,1
163 288.5 m 128,-1,9
 143 268 143 268 116 268 c 128,-1,10
 89 268 89 268 76.5 282.5 c 128,-1,11
 64 297 64 297 64 321.5 c 128,-1,12
 64 346 64 346 84 366.5 c 128,-1,13
 104 387 104 387 130.5 387 c 128,-1,14
 157 387 157 387 170 373 c 128,-1,15
 183 359 183 359 183 334 c 128,-1,8
 183 309 183 309 163 288.5 c 128,-1,9
EndSplineSet
EndChar

StartChar: semicolon
Encoding: 59 59 30
Width: 228
GlyphClass: 2
Flags: W
LayerCount: 2
Fore
SplineSet
30 73 m 1,0,1
 64 99 64 99 87 99 c 128,-1,2
 110 99 110 99 124.5 78.5 c 128,-1,3
 139 58 139 58 139 13.5 c 128,-1,4
 139 -31 139 -31 97 -77.5 c 128,-1,5
 55 -124 55 -124 -1 -157 c 1,6,-1
 -19 -142 l 1,7,-1
 -19 -132 l 1,8,9
 16 -108 16 -108 38 -75 c 128,-1,10
 60 -42 60 -42 60 -6.5 c 128,-1,11
 60 29 60 29 28 59 c 1,12,-1
 30 73 l 1,0,1
163 288.5 m 128,-1,14
 143 268 143 268 116 268 c 128,-1,15
 89 268 89 268 76.5 282.5 c 128,-1,16
 64 297 64 297 64 321.5 c 128,-1,17
 64 346 64 346 84 366.5 c 128,-1,18
 104 387 104 387 130.5 387 c 128,-1,19
 157 387 157 387 170 373 c 128,-1,20
 183 359 183 359 183 334 c 128,-1,13
 183 309 183 309 163 288.5 c 128,-1,14
EndSplineSet
EndChar

StartChar: less
Encoding: 60 60 31
Width: 484
GlyphClass: 2
Flags: W
LayerCount: 2
Fore
SplineSet
40 239 m 1,0,-1
 33 250 l 1,1,-1
 41 297 l 1,2,-1
 246 383 l 1,3,-1
 447 464 l 1,4,-1
 455 459 l 1,5,-1
 457 409 l 1,6,7
 345 370 345 370 262 336 c 1,8,-1
 109 276 l 1,9,-1
 108 270 l 1,10,-1
 259 200 l 1,11,-1
 422 121 l 1,12,-1
 422 110 l 1,13,-1
 387 70 l 1,14,15
 293 120 293 120 219 155 c 2,16,-1
 40 239 l 1,0,-1
EndSplineSet
EndChar

StartChar: equal
Encoding: 61 61 32
Width: 486
GlyphClass: 2
Flags: W
LayerCount: 2
Fore
SplineSet
463 220 m 1,0,-1
 467 210 l 1,1,-1
 453 159 l 1,2,-1
 15 157 l 1,3,-1
 11 166 l 1,4,-1
 27 215 l 1,5,6
 171 214 171 214 256 214 c 1,7,-1
 463 220 l 1,0,-1
482 377 m 1,8,-1
 487 367 l 1,9,-1
 473 316 l 1,10,-1
 35 314 l 1,11,-1
 30 323 l 1,12,-1
 47 372 l 1,13,14
 190 371 190 371 276 371 c 1,15,-1
 482 377 l 1,8,-1
EndSplineSet
EndChar

StartChar: greater
Encoding: 62 62 33
Width: 484
GlyphClass: 2
Flags: W
LayerCount: 2
Fore
SplineSet
456 295 m 1,0,-1
 462 284 l 1,1,-1
 454 237 l 1,2,-1
 250 151 l 1,3,-1
 48 70 l 1,4,-1
 40 75 l 1,5,-1
 38 125 l 1,6,7
 150 164 150 164 233 198 c 1,8,-1
 386 258 l 1,9,-1
 387 264 l 1,10,-1
 236 334 l 1,11,-1
 73 413 l 1,12,-1
 73 424 l 1,13,-1
 108 464 l 1,14,15
 202 414 202 414 276 379 c 2,16,-1
 456 295 l 1,0,-1
EndSplineSet
EndChar

StartChar: question
Encoding: 63 63 34
Width: 346
GlyphClass: 2
Flags: W
LayerCount: 2
Fore
SplineSet
286 511 m 0,0,1
 286 614 286 614 107 626 c 1,2,-1
 106 637 l 1,3,-1
 145 690 l 1,4,-1
 159 694 l 1,5,6
 243 691 243 691 300 648 c 128,-1,7
 357 605 357 605 357 542 c 0,8,9
 357 472 357 472 316 430 c 1,10,11
 293 408 293 408 276.5 395 c 128,-1,12
 260 382 260 382 223.5 360 c 128,-1,13
 187 338 187 338 172 328 c 1,14,-1
 168 319 l 1,15,-1
 176 224 l 1,16,-1
 172 216 l 1,17,-1
 109 199 l 1,18,-1
 101 203 l 1,19,-1
 93 323 l 1,20,-1
 97 337 l 1,21,-1
 220 413 l 1,22,23
 286 455 286 455 286 511 c 0,0,1
159.5 8 m 128,-1,25
 140 -12 140 -12 113 -12 c 128,-1,26
 86 -12 86 -12 73.5 2.5 c 128,-1,27
 61 17 61 17 61 41.5 c 128,-1,28
 61 66 61 66 80.5 86.5 c 128,-1,29
 100 107 100 107 126.5 107 c 128,-1,30
 153 107 153 107 166 93 c 128,-1,31
 179 79 179 79 179 53.5 c 128,-1,24
 179 28 179 28 159.5 8 c 128,-1,25
EndSplineSet
EndChar

StartChar: at
Encoding: 64 64 35
Width: 801
GlyphClass: 2
Flags: W
LayerCount: 2
Fore
SplineSet
468 -12 m 0,0,1
 432 -12 432 -12 432 17 c 0,2,3
 432 28 432 28 475 225 c 1,4,-1
 469 227 l 1,5,6
 379 56 379 56 282 -12 c 1,7,8
 243 -12 243 -12 222.5 25 c 128,-1,9
 202 62 202 62 202 134 c 128,-1,10
 202 206 202 206 237 285 c 128,-1,11
 272 364 272 364 325 412 c 128,-1,12
 378 460 378 460 431 460 c 1,13,-1
 531 444 l 1,14,-1
 540 469 l 1,15,-1
 545 470 l 1,16,-1
 576 455 l 1,17,-1
 584 443 l 1,18,19
 526 244 526 244 500 58 c 1,20,-1
 504 54 l 1,21,22
 610 54 610 54 665.5 115 c 128,-1,23
 721 176 721 176 721 280 c 0,24,25
 721 410 721 410 641 483.5 c 128,-1,26
 561 557 561 557 419.5 557 c 128,-1,27
 278 557 278 557 186.5 454.5 c 128,-1,28
 95 352 95 352 95 201.5 c 128,-1,29
 95 51 95 51 183.5 -52.5 c 128,-1,30
 272 -156 272 -156 448 -166 c 1,31,-1
 448 -173 l 1,32,-1
 422 -209 l 1,33,34
 234 -200 234 -200 129 -88 c 128,-1,35
 24 24 24 24 24 188 c 0,36,37
 24 270 24 270 54.5 346.5 c 128,-1,38
 85 423 85 423 139 482.5 c 128,-1,39
 193 542 193 542 274.5 577.5 c 128,-1,40
 356 613 356 613 451 613 c 0,41,42
 600 613 600 613 695 524.5 c 128,-1,43
 790 436 790 436 790 305 c 128,-1,44
 790 174 790 174 704.5 81 c 128,-1,45
 619 -12 619 -12 468 -12 c 0,0,1
301 69 m 0,46,47
 328 69 328 69 386.5 156 c 128,-1,48
 445 243 445 243 501 373 c 1,49,50
 447 406 447 406 399.5 406 c 128,-1,51
 352 406 352 406 312 335 c 128,-1,52
 272 264 272 264 272 173 c 0,53,54
 272 131 272 131 280.5 100 c 128,-1,55
 289 69 289 69 301 69 c 0,46,47
EndSplineSet
EndChar

StartChar: A
Encoding: 65 65 36
Width: 552
GlyphClass: 2
Flags: W
LayerCount: 2
Fore
SplineSet
287 -10 m 1,0,-1
 285 -3 l 1,1,-1
 293 33 l 1,2,3
 348 37 348 37 366.5 47 c 128,-1,4
 385 57 385 57 385 83 c 0,5,6
 385 96 385 96 363 234 c 1,7,8
 339 235 339 235 279.5 235 c 128,-1,9
 220 235 220 235 156 227 c 1,10,-1
 107 119 l 2,11,12
 93 90 93 90 93 73 c 0,13,14
 93 37 93 37 146 37 c 2,15,-1
 202 37 l 1,16,-1
 202 34 l 1,17,-1
 192 -7 l 1,18,19
 124 0 124 0 60 0 c 1,20,-1
 -45 -3 l 1,21,-1
 -32 42 l 1,22,23
 -3 45 -3 45 15.5 61.5 c 128,-1,24
 34 78 34 78 54 120 c 2,25,-1
 302 631 l 1,26,-1
 358 648 l 1,27,-1
 366 649 l 1,28,29
 410 342 410 342 456 111 c 0,30,31
 463 73 463 73 480.5 58.5 c 128,-1,32
 498 44 498 44 540 39 c 1,33,-1
 542 36 l 1,34,-1
 531 -3 l 1,35,36
 462 0 462 0 413.5 0 c 128,-1,37
 365 0 365 0 287 -10 c 1,0,-1
264 271 m 2,38,39
 311 271 311 271 355 277 c 1,40,-1
 311 544 l 1,41,-1
 304 544 l 1,42,-1
 179 271 l 1,43,-1
 264 271 l 2,38,39
EndSplineSet
EndChar

StartChar: B
Encoding: 66 66 37
Width: 571
GlyphClass: 2
Flags: W
LayerCount: 2
Fore
SplineSet
275 -10 m 1,0,-1
 138 0 l 1,1,2
 95 0 95 0 29 -12 c 1,3,-1
 39 31 l 1,4,5
 86 40 86 40 103.5 57.5 c 128,-1,6
 121 75 121 75 126 118 c 0,7,8
 180 556 180 556 180 567.5 c 128,-1,9
 180 579 180 579 175.5 587.5 c 128,-1,10
 171 596 171 596 149 596 c 1,11,-1
 117 594 l 1,12,-1
 115 598 l 1,13,-1
 127 639 l 1,14,15
 195 636 195 636 231 636 c 1,16,-1
 333 640 l 1,17,18
 417 640 417 640 465.5 605.5 c 128,-1,19
 514 571 514 571 514 511 c 128,-1,20
 514 451 514 451 478.5 406 c 128,-1,21
 443 361 443 361 381 335 c 1,22,23
 444 321 444 321 479 284 c 128,-1,24
 514 247 514 247 514 196 c 0,25,26
 514 115 514 115 441.5 52.5 c 128,-1,27
 369 -10 369 -10 275 -10 c 1,0,-1
187 97 m 0,28,29
 187 67 187 67 208.5 52 c 128,-1,30
 230 37 230 37 292.5 37 c 128,-1,31
 355 37 355 37 394 76 c 128,-1,32
 433 115 433 115 433 180 c 0,33,34
 433 281 433 281 316 302 c 1,35,-1
 216 300 l 1,36,37
 187 104 187 104 187 97 c 0,28,29
437 491 m 0,38,39
 437 602 437 602 281 602 c 0,40,41
 271 602 271 602 267 597.5 c 128,-1,42
 263 593 263 593 260 579 c 0,43,44
 230 395 230 395 223 349 c 1,45,46
 315 341 315 341 323.5 341.5 c 128,-1,47
 332 342 332 342 339.5 344.5 c 128,-1,48
 347 347 347 347 366 358 c 128,-1,49
 385 369 385 369 399 384 c 128,-1,50
 413 399 413 399 425 427.5 c 128,-1,51
 437 456 437 456 437 491 c 0,38,39
EndSplineSet
EndChar

StartChar: C
Encoding: 67 67 38
Width: 604
GlyphClass: 2
Flags: W
LayerCount: 2
Fore
SplineSet
499 28 m 1,0,1
 422 -12 422 -12 305.5 -12 c 128,-1,2
 189 -12 189 -12 117 60 c 128,-1,3
 45 132 45 132 45 253 c 0,4,5
 45 421 45 421 152 534.5 c 128,-1,6
 259 648 259 648 417 648 c 0,7,8
 483 648 483 648 590 625 c 1,9,-1
 593 619 l 1,10,11
 565 545 565 545 548 455 c 1,12,-1
 505 451 l 1,13,14
 514 490 514 490 514 510 c 0,15,16
 514 594 514 594 383 594 c 0,17,18
 272 594 272 594 202 507.5 c 128,-1,19
 132 421 132 421 132 282 c 0,20,21
 132 168 132 168 183 100.5 c 128,-1,22
 234 33 234 33 322 33 c 0,23,24
 452 33 452 33 508 193 c 1,25,-1
 551 197 l 1,26,27
 520 107 520 107 505 37 c 1,28,-1
 499 28 l 1,0,1
EndSplineSet
EndChar

StartChar: D
Encoding: 68 68 39
Width: 675
GlyphClass: 2
Flags: W
LayerCount: 2
Fore
SplineSet
286 -12 m 1,0,1
 188 0 188 0 154 0 c 0,2,3
 98 0 98 0 28 -12 c 1,4,-1
 39 31 l 1,5,6
 85 40 85 40 103 57.5 c 128,-1,7
 121 75 121 75 126 117 c 0,8,9
 180 556 180 556 180 567.5 c 128,-1,10
 180 579 180 579 175.5 587.5 c 128,-1,11
 171 596 171 596 150 596 c 1,12,-1
 116 594 l 1,13,-1
 115 598 l 1,14,-1
 126 639 l 1,15,16
 189 636 189 636 226 636 c 1,17,-1
 362 640 l 1,18,19
 491 640 491 640 572 566.5 c 128,-1,20
 653 493 653 493 653 382.5 c 128,-1,21
 653 272 653 272 603.5 182.5 c 128,-1,22
 554 93 554 93 469.5 40.5 c 128,-1,23
 385 -12 385 -12 286 -12 c 1,0,1
298 596 m 0,24,25
 278 596 278 596 271 591.5 c 128,-1,26
 264 587 264 587 262 574 c 0,27,28
 191 130 191 130 191 107 c 0,29,30
 191 65 191 65 215.5 50 c 128,-1,31
 240 35 240 35 305 35 c 0,32,33
 423 35 423 35 495 124 c 128,-1,34
 567 213 567 213 567 356 c 0,35,36
 567 471 567 471 498 533.5 c 128,-1,37
 429 596 429 596 298 596 c 0,24,25
EndSplineSet
EndChar

StartChar: E
Encoding: 69 69 40
Width: 567
GlyphClass: 2
Flags: W
LayerCount: 2
Fore
SplineSet
225 352 m 1,0,-1
 324 351 l 1,1,-1
 442 362 l 1,2,-1
 445 358 l 1,3,-1
 425 302 l 1,4,5
 343 305 343 305 298 305 c 128,-1,6
 253 305 253 305 216 298 c 1,7,8
 210 257 210 257 202 204 c 0,9,10
 185 100 185 100 185 77.5 c 128,-1,11
 185 55 185 55 199 48 c 128,-1,12
 213 41 213 41 266 41 c 128,-1,13
 319 41 319 41 350 44 c 128,-1,14
 381 47 381 47 404.5 61.5 c 128,-1,15
 428 76 428 76 437.5 97.5 c 128,-1,16
 447 119 447 119 459 164 c 1,17,-1
 500 169 l 1,18,-1
 502 164 l 1,19,20
 474 82 474 82 455 -2 c 1,21,-1
 450 -7 l 1,22,23
 251 0 251 0 190 0 c 0,24,25
 97 0 97 0 29 -10 c 1,26,-1
 40 33 l 1,27,28
 84 39 84 39 102 56.5 c 128,-1,29
 120 74 120 74 125 117 c 0,30,31
 180 556 180 556 180 567.5 c 128,-1,32
 180 579 180 579 175.5 587.5 c 128,-1,33
 171 596 171 596 149 596 c 1,34,-1
 116 594 l 1,35,-1
 115 597 l 1,36,-1
 126 639 l 1,37,38
 200 636 200 636 330.5 636 c 128,-1,39
 461 636 461 636 546 648 c 1,40,-1
 548 643 l 1,41,42
 523 571 523 571 506 479 c 1,43,-1
 462 475 l 1,44,45
 471 514 471 514 471 543.5 c 128,-1,46
 471 573 471 573 445.5 581.5 c 128,-1,47
 420 590 420 590 350.5 590 c 128,-1,48
 281 590 281 590 270.5 584.5 c 128,-1,49
 260 579 260 579 256 551 c 2,50,-1
 225 352 l 1,0,-1
EndSplineSet
EndChar

StartChar: F
Encoding: 70 70 41
Width: 490
GlyphClass: 2
Flags: W
LayerCount: 2
Fore
SplineSet
213 280 m 1,0,1
 186 94 186 94 186 80 c 128,-1,2
 186 66 186 66 192 53 c 128,-1,3
 198 40 198 40 222 40 c 1,4,-1
 291 43 l 1,5,-1
 292 39 l 1,6,-1
 279 -4 l 1,7,8
 188 0 188 0 152 0 c 0,9,10
 95 0 95 0 29 -12 c 1,11,-1
 39 31 l 1,12,13
 85 40 85 40 102.5 57.5 c 128,-1,14
 120 75 120 75 125 117 c 0,15,16
 180 556 180 556 180 567.5 c 128,-1,17
 180 579 180 579 175.5 587.5 c 128,-1,18
 171 596 171 596 149 596 c 1,19,-1
 116 594 l 1,20,-1
 115 597 l 1,21,-1
 126 639 l 1,22,23
 200 636 200 636 322.5 636 c 128,-1,24
 445 636 445 636 528 648 c 1,25,-1
 530 643 l 1,26,27
 504 568 504 568 487 476 c 1,28,-1
 444 472 l 1,29,30
 453 514 453 514 453 544 c 128,-1,31
 453 574 453 574 430 582 c 128,-1,32
 407 590 407 590 344 590 c 128,-1,33
 281 590 281 590 270.5 584.5 c 128,-1,34
 260 579 260 579 256 551 c 2,35,-1
 223 335 l 1,36,-1
 322 334 l 1,37,-1
 424 345 l 1,38,-1
 426 341 l 1,39,-1
 407 284 l 1,40,41
 333 287 333 287 293 287 c 128,-1,42
 253 287 253 287 213 280 c 1,0,1
EndSplineSet
EndChar

StartChar: G
Encoding: 71 71 42
Width: 640
GlyphClass: 2
Flags: W
LayerCount: 2
Fore
SplineSet
374 303 m 1,0,-1
 467 299 l 1,1,-1
 492 299 l 1,2,-1
 575 304 l 1,3,-1
 576 284 l 1,4,5
 546 264 546 264 534 187.5 c 128,-1,6
 522 111 522 111 522 73 c 1,7,-1
 523 43 l 1,8,-1
 517 35 l 1,9,10
 479 16 479 16 420 2 c 128,-1,11
 361 -12 361 -12 307 -12 c 0,12,13
 189 -12 189 -12 117 60 c 128,-1,14
 45 132 45 132 45 253 c 0,15,16
 45 421 45 421 152 534.5 c 128,-1,17
 259 648 259 648 417 648 c 0,18,19
 483 648 483 648 590 625 c 1,20,-1
 593 619 l 1,21,22
 565 545 565 545 548 455 c 1,23,-1
 505 451 l 1,24,25
 514 490 514 490 514 510 c 0,26,27
 514 594 514 594 383 594 c 0,28,29
 272 594 272 594 202 507.5 c 128,-1,30
 132 421 132 421 132 282 c 0,31,32
 132 168 132 168 183 100.5 c 128,-1,33
 234 33 234 33 322 33 c 0,34,35
 357 33 357 33 391 42.5 c 128,-1,36
 425 52 425 52 441 62 c 2,37,-1
 457 72 l 1,38,39
 473 208 473 208 473 221.5 c 128,-1,40
 473 235 473 235 465.5 243.5 c 128,-1,41
 458 252 458 252 425 252 c 2,42,-1
 358 252 l 1,43,-1
 357 256 l 1,44,-1
 371 303 l 1,45,-1
 374 303 l 1,0,-1
EndSplineSet
EndChar

StartChar: H
Encoding: 72 72 43
Width: 723
GlyphClass: 2
Flags: W
LayerCount: 2
Fore
SplineSet
224 347 m 1,0,-1
 387 346 l 2,1,2
 449 346 449 346 532 356 c 1,3,4
 558 559 558 559 558 569 c 128,-1,5
 558 579 558 579 553 587.5 c 128,-1,6
 548 596 548 596 527 596 c 1,7,-1
 494 594 l 1,8,-1
 492 597 l 1,9,-1
 505 640 l 1,10,11
 565 636 565 636 590 636 c 0,12,13
 635 636 635 636 711 646 c 1,14,-1
 703 603 l 1,15,16
 666 598 666 598 652 586.5 c 128,-1,17
 638 575 638 575 633 546 c 0,18,19
 565 131 565 131 565 95.5 c 128,-1,20
 565 60 565 60 573 50.5 c 128,-1,21
 581 41 581 41 601 41 c 1,22,-1
 645 44 l 1,23,24
 646 43 646 43 632 -3 c 1,25,26
 555 0 555 0 513 0 c 2,27,-1
 482 0 l 2,28,29
 449 0 449 0 407 -2 c 1,30,-1
 420 41 l 1,31,32
 465 42 465 42 482 62.5 c 128,-1,33
 499 83 499 83 507 149 c 2,34,-1
 525 303 l 1,35,36
 422 304 422 304 377 304 c 1,37,-1
 215 293 l 1,38,39
 188 100 188 100 188 84.5 c 128,-1,40
 188 69 188 69 189 60 c 0,41,42
 191 42 191 42 223 42 c 1,43,-1
 267 45 l 1,44,-1
 268 41 l 1,45,-1
 254 -3 l 2,46,47
 254 0 254 0 193.5 0 c 128,-1,48
 133 0 133 0 81 -4 c 128,-1,49
 29 -8 29 -8 28 -12 c 2,50,-1
 39 31 l 1,51,52
 92 42 92 42 108 64 c 128,-1,53
 124 86 124 86 130 151 c 1,54,55
 180 556 180 556 180 567.5 c 128,-1,56
 180 579 180 579 175.5 587.5 c 128,-1,57
 171 596 171 596 149 596 c 1,58,-1
 117 594 l 1,59,-1
 115 597 l 1,60,-1
 127 640 l 1,61,62
 196 636 196 636 224 636 c 0,63,64
 269 636 269 636 333 646 c 1,65,-1
 325 603 l 1,66,67
 282 596 282 596 270 581 c 128,-1,68
 258 566 258 566 250 511 c 2,69,-1
 224 347 l 1,0,-1
EndSplineSet
EndChar

StartChar: I
Encoding: 73 73 44
Width: 346
GlyphClass: 2
Flags: W
LayerCount: 2
Fore
SplineSet
123 640 m 1,0,-1
 214 636 l 1,1,-1
 232 636 l 2,2,3
 272 636 272 636 342 646 c 1,4,-1
 332 603 l 1,5,6
 291 598 291 598 275.5 586 c 128,-1,7
 260 574 260 574 256 546 c 0,8,9
 186 140 186 140 186 85 c 0,10,11
 186 61 186 61 194.5 51.5 c 128,-1,12
 203 42 203 42 223 42 c 1,13,-1
 274 45 l 1,14,-1
 276 41 l 1,15,-1
 262 -3 l 1,16,17
 183 0 183 0 150 0 c 0,18,19
 94 0 94 0 26 -12 c 1,20,-1
 38 31 l 1,21,22
 84 40 84 40 102.5 58 c 128,-1,23
 121 76 121 76 126 118 c 0,24,25
 180 555 180 555 180 566.5 c 128,-1,26
 180 578 180 578 175 587 c 128,-1,27
 170 596 170 596 149 596 c 1,28,-1
 108 594 l 1,29,30
 107 596 107 596 107 597 c 2,31,-1
 119 640 l 1,32,-1
 123 640 l 1,0,-1
EndSplineSet
EndChar

StartChar: J
Encoding: 74 74 45
Width: 313
GlyphClass: 2
Flags: W
LayerCount: 2
Fore
SplineSet
114 114 m 0,0,1
 170 555 170 555 170 566.5 c 128,-1,2
 170 578 170 578 165 586.5 c 128,-1,3
 160 595 160 595 139 595 c 1,4,-1
 92 591 l 1,5,-1
 92 594 l 1,6,-1
 103 636 l 1,7,-1
 206 636 l 1,8,-1
 316 645 l 1,9,-1
 308 603 l 1,10,11
 273 598 273 598 261.5 587.5 c 128,-1,12
 250 577 250 577 245 546 c 0,13,14
 214 362 214 362 180 118 c 1,15,16
 167 16 167 16 123.5 -46 c 128,-1,17
 80 -108 80 -108 -4 -143 c 1,18,-1
 -16 -111 l 1,19,-1
 -13 -103 l 1,20,21
 50 -67 50 -67 76.5 -21 c 128,-1,22
 103 25 103 25 114 114 c 0,0,1
EndSplineSet
EndChar

StartChar: K
Encoding: 75 75 46
Width: 601
GlyphClass: 2
Flags: W
LayerCount: 2
Fore
SplineSet
126 118 m 0,0,1
 180 556 180 556 180 567.5 c 128,-1,2
 180 579 180 579 175.5 587.5 c 128,-1,3
 171 596 171 596 149 596 c 1,4,-1
 117 594 l 1,5,-1
 115 597 l 1,6,-1
 127 640 l 1,7,8
 195 636 195 636 222 636 c 0,9,10
 269 636 269 636 333 646 c 1,11,-1
 325 603 l 1,12,13
 288 598 288 598 273 585 c 128,-1,14
 258 572 258 572 253 543 c 2,15,-1
 188 109 l 2,16,17
 185 92 185 92 185 78 c 128,-1,18
 185 64 185 64 191 53 c 128,-1,19
 197 42 197 42 223 42 c 1,20,-1
 267 45 l 1,21,-1
 269 41 l 1,22,-1
 254 -3 l 1,23,24
 180 0 180 0 137 0 c 2,25,-1
 28 -1 l 1,26,-1
 43 42 l 1,27,28
 89 47 89 47 105 61 c 128,-1,29
 121 75 121 75 126 118 c 0,0,1
478 571 m 0,30,31
 478 595 478 595 421 599 c 1,32,-1
 419 603 l 1,33,-1
 431 644 l 1,34,35
 499 636 499 636 535 636 c 1,36,-1
 622 640 l 1,37,-1
 624 634 l 1,38,-1
 614 595 l 1,39,40
 588 590 588 590 565 574.5 c 128,-1,41
 542 559 542 559 493 513 c 1,42,-1
 315 339 l 1,43,-1
 451 118 l 2,44,45
 481 71 481 71 506 52 c 128,-1,46
 531 33 531 33 564 33 c 1,47,-1
 567 30 l 1,48,-1
 558 -2 l 1,49,50
 489 -14 489 -14 479 -14 c 0,51,52
 432 -14 432 -14 382 72 c 2,53,-1
 242 315 l 1,54,-1
 244 328 l 1,55,-1
 442 517 l 2,56,57
 478 552 478 552 478 571 c 0,30,31
EndSplineSet
EndChar

StartChar: L
Encoding: 76 76 47
Width: 485
GlyphClass: 2
Flags: W
LayerCount: 2
Fore
SplineSet
477 186 m 1,0,-1
 478 182 l 1,1,2
 450 93 450 93 427 -4 c 1,3,-1
 422 -9 l 1,4,5
 256 0 256 0 196 0 c 0,6,7
 102 0 102 0 38 -10 c 1,8,-1
 50 33 l 1,9,10
 88 39 88 39 104 57 c 128,-1,11
 120 75 120 75 125 117 c 0,12,13
 180 555 180 555 180 566.5 c 128,-1,14
 180 578 180 578 175 587 c 128,-1,15
 170 596 170 596 149 596 c 1,16,-1
 116 594 l 1,17,18
 115 596 115 596 115 597 c 2,19,-1
 127 640 l 1,20,21
 199 636 199 636 225 636 c 0,22,23
 269 636 269 636 333 646 c 1,24,-1
 325 604 l 1,25,26
 283 597 283 597 272.5 583.5 c 128,-1,27
 262 570 262 570 248 496 c 128,-1,28
 234 422 234 422 211 268.5 c 128,-1,29
 188 115 188 115 188 87.5 c 128,-1,30
 188 60 188 60 202.5 50.5 c 128,-1,31
 217 41 217 41 264 41 c 0,32,33
 349 41 349 41 379 65.5 c 128,-1,34
 409 90 409 90 435 182 c 1,35,-1
 477 186 l 1,0,-1
EndSplineSet
EndChar

StartChar: M
Encoding: 77 77 48
Width: 813
GlyphClass: 2
Flags: W
LayerCount: 2
Fore
SplineSet
789 642 m 1,0,-1
 790 638 l 1,1,-1
 781 604 l 1,2,3
 738 599 738 599 719.5 586.5 c 128,-1,4
 701 574 701 574 698.5 547.5 c 128,-1,5
 696 521 696 521 688 376 c 0,6,7
 678 194 678 194 678 135 c 128,-1,8
 678 76 678 76 684.5 58.5 c 128,-1,9
 691 41 691 41 714 41 c 1,10,-1
 741 43 l 2,11,12
 741 42 741 42 742 40 c 1,13,-1
 728 -3 l 1,14,15
 673 0 673 0 646 0 c 0,16,17
 600 0 600 0 540 -8 c 1,18,-1
 549 35 l 1,19,20
 606 42 606 42 612 85 c 1,21,-1
 633 529 l 1,22,-1
 628 529 l 1,23,24
 534 323 534 323 374 -13 c 1,25,-1
 353 -19 l 1,26,27
 277 319 277 319 231 529 c 1,28,-1
 227 529 l 1,29,30
 138 86 138 86 138 63.5 c 128,-1,31
 138 41 138 41 164 41 c 2,32,-1
 204 42 l 1,33,34
 205 40 205 40 205 39 c 2,35,-1
 191 -4 l 1,36,37
 131 0 131 0 106 0 c 0,38,39
 65 0 65 0 17 -8 c 1,40,-1
 28 35 l 1,41,42
 58 40 58 40 73.5 56.5 c 128,-1,43
 89 73 89 73 95.5 103 c 128,-1,44
 102 133 102 133 127 250 c 0,45,46
 189 538 189 538 189 555 c 0,47,48
 189 599 189 599 111 605 c 1,49,-1
 109 609 l 1,50,-1
 120 641 l 1,51,52
 193 636 193 636 223 636 c 1,53,-1
 286 640 l 1,54,55
 334 374 334 374 396 134 c 1,56,-1
 400 134 l 1,57,58
 499 344 499 344 624 639 c 1,59,60
 626 640 626 640 635 639 c 0,61,62
 662 636 662 636 684 636 c 1,63,-1
 789 642 l 1,0,-1
EndSplineSet
EndChar

StartChar: N
Encoding: 78 78 49
Width: 689
GlyphClass: 2
Flags: W
LayerCount: 2
Fore
SplineSet
102 602 m 1,0,-1
 101 607 l 1,1,-1
 112 641 l 1,2,3
 167 636 167 636 193 636 c 1,4,-1
 255 640 l 1,5,6
 380 388 380 388 520 134 c 1,7,-1
 524 134 l 1,8,9
 576 556 576 556 576 561 c 0,10,11
 576 595 576 595 549 595 c 2,12,-1
 538 595 l 1,13,-1
 520 594 l 2,14,15
 517 594 517 594 513 594 c 1,16,-1
 511 598 l 1,17,-1
 525 640 l 1,18,19
 582 636 582 636 607 636 c 0,20,21
 655 636 655 636 709 645 c 1,22,-1
 699 601 l 1,23,24
 633 592 633 592 625 538 c 2,25,-1
 543 -28 l 1,26,-1
 518 -42 l 1,27,28
 373 252 373 252 225 522 c 1,29,-1
 221 522 l 1,30,-1
 161 81 l 2,31,32
 158 59 158 59 163.5 50.5 c 128,-1,33
 169 42 169 42 186 42 c 2,34,-1
 235 42 l 1,35,-1
 237 39 l 1,36,-1
 223 -4 l 1,37,38
 165 0 165 0 123 0 c 1,39,-1
 34 -8 l 1,40,-1
 45 35 l 1,41,42
 104 42 104 42 112 98 c 0,43,44
 180 546 180 546 180 560 c 0,45,46
 180 594 180 594 102 602 c 1,0,-1
EndSplineSet
EndChar

StartChar: O
Encoding: 79 79 50
Width: 665
GlyphClass: 2
Flags: W
LayerCount: 2
Fore
SplineSet
311 35 m 0,0,1
 417 35 417 35 487 122.5 c 128,-1,2
 557 210 557 210 557 333 c 128,-1,3
 557 456 557 456 505.5 524.5 c 128,-1,4
 454 593 454 593 368 593 c 0,5,6
 265 593 265 593 196 504.5 c 128,-1,7
 127 416 127 416 127 294 c 128,-1,8
 127 172 127 172 177.5 103.5 c 128,-1,9
 228 35 228 35 311 35 c 0,0,1
286 -12 m 0,10,11
 179 -12 179 -12 112 62 c 128,-1,12
 45 136 45 136 45 254 c 0,13,14
 45 416 45 416 148.5 532 c 128,-1,15
 252 648 252 648 397 648 c 0,16,17
 506 648 506 648 575 573.5 c 128,-1,18
 644 499 644 499 644 382 c 0,19,20
 644 219 644 219 538.5 103.5 c 128,-1,21
 433 -12 433 -12 286 -12 c 0,10,11
EndSplineSet
EndChar

StartChar: P
Encoding: 80 80 51
Width: 528
GlyphClass: 2
Flags: W
LayerCount: 2
Fore
SplineSet
275 45 m 1,0,-1
 276 41 l 1,1,-1
 262 -3 l 2,2,3
 262 0 262 0 199.5 0 c 128,-1,4
 137 0 137 0 86.5 -3 c 128,-1,5
 36 -6 36 -6 34 -8 c 1,6,-1
 46 35 l 1,7,8
 90 43 90 43 105.5 59 c 128,-1,9
 121 75 121 75 126 117 c 0,10,11
 180 555 180 555 180 566.5 c 128,-1,12
 180 578 180 578 175 587 c 128,-1,13
 170 596 170 596 149 596 c 1,14,-1
 117 594 l 1,15,-1
 115 598 l 1,16,-1
 127 640 l 1,17,-1
 130 640 l 2,18,19
 134 640 134 640 140.5 639.5 c 128,-1,20
 147 639 147 639 156 638.5 c 128,-1,21
 165 638 165 638 175 637.5 c 128,-1,22
 185 637 185 637 195 636.5 c 128,-1,23
 205 636 205 636 215 636 c 2,24,-1
 232 636 l 1,25,-1
 342 640 l 1,26,27
 433 640 433 640 484 601 c 128,-1,28
 535 562 535 562 535 489 c 0,29,30
 535 395 535 395 463 320.5 c 128,-1,31
 391 246 391 246 299 246 c 2,32,-1
 207 246 l 1,33,34
 183 83 183 83 183 72 c 0,35,36
 183 41 183 41 222 41 c 1,37,-1
 275 45 l 1,0,-1
421 344 m 128,-1,39
 457 391 457 391 457 462.5 c 128,-1,40
 457 534 457 534 416.5 565 c 128,-1,41
 376 596 376 596 290 596 c 0,42,43
 271 596 271 596 268 594 c 128,-1,44
 265 592 265 592 252.5 529.5 c 128,-1,45
 240 467 240 467 217 301 c 1,46,-1
 317 286 l 1,47,38
 385 297 385 297 421 344 c 128,-1,39
EndSplineSet
EndChar

StartChar: Q
Encoding: 81 81 52
Width: 670
GlyphClass: 2
Flags: W
LayerCount: 2
Fore
SplineSet
529 -110.5 m 128,-1,1
 593 -141 593 -141 642 -141 c 128,-1,2
 691 -141 691 -141 729 -131 c 1,3,-1
 733 -133 l 1,4,-1
 736 -148 l 1,5,6
 658 -214 658 -214 640 -214 c 0,7,8
 570 -214 570 -214 505 -177 c 128,-1,9
 440 -140 440 -140 287 -12 c 1,10,-1
 286 -12 l 2,11,12
 179 -12 179 -12 112 62 c 128,-1,13
 45 136 45 136 45 254 c 0,14,15
 45 416 45 416 148.5 532 c 128,-1,16
 252 648 252 648 397 648 c 0,17,18
 506 648 506 648 575 573.5 c 128,-1,19
 644 499 644 499 644 372 c 128,-1,20
 644 245 644 245 566.5 138.5 c 128,-1,21
 489 32 489 32 371 0 c 1,22,-1
 371 -6 l 1,23,0
 465 -80 465 -80 529 -110.5 c 128,-1,1
311 35 m 0,24,25
 417 35 417 35 487 122.5 c 128,-1,26
 557 210 557 210 557 333 c 128,-1,27
 557 456 557 456 505.5 524.5 c 128,-1,28
 454 593 454 593 368 593 c 0,29,30
 265 593 265 593 196 504.5 c 128,-1,31
 127 416 127 416 127 294 c 128,-1,32
 127 172 127 172 177.5 103.5 c 128,-1,33
 228 35 228 35 311 35 c 0,24,25
EndSplineSet
EndChar

StartChar: R
Encoding: 82 82 53
Width: 585
GlyphClass: 2
Flags: W
LayerCount: 2
Fore
SplineSet
212 276 m 1,0,1
 187 98 187 98 187 79.5 c 128,-1,2
 187 61 187 61 192 53 c 1,3,4
 203 39 203 39 249 39 c 1,5,-1
 250 36 l 1,6,-1
 237 -4 l 1,7,8
 182 -2 182 -2 137 -1 c 1,9,-1
 28 -4 l 1,10,-1
 42 39 l 1,11,12
 88 44 88 44 104.5 59 c 128,-1,13
 121 74 121 74 126 117 c 0,14,15
 180 554 180 554 180 566 c 128,-1,16
 180 578 180 578 175 587 c 128,-1,17
 170 596 170 596 149 596 c 1,18,-1
 117 594 l 1,19,-1
 115 598 l 1,20,-1
 127 640 l 1,21,22
 196 636 196 636 232 636 c 1,23,-1
 339 640 l 1,24,25
 421 640 421 640 471.5 602.5 c 128,-1,26
 522 565 522 565 522 500.5 c 128,-1,27
 522 436 522 436 482 381.5 c 128,-1,28
 442 327 442 327 365 293 c 1,29,-1
 450 115 l 2,30,31
 474 67 474 67 497.5 48.5 c 128,-1,32
 521 30 521 30 560 30 c 1,33,-1
 563 27 l 1,34,-1
 554 -5 l 1,35,-1
 473 -16 l 1,36,37
 449 -16 449 -16 425 10 c 128,-1,38
 401 36 401 36 383 79 c 2,39,-1
 303 276 l 1,40,-1
 212 276 l 1,0,1
281 602 m 0,41,42
 272 602 272 602 268 598 c 0,43,44
 253 580 253 580 221 328 c 1,45,-1
 319 318 l 1,46,47
 0 0 0 0 349 330 c 1,48,49
 440 383 440 383 443 486 c 1,50,51
 443 602 443 602 281 602 c 0,41,42
EndSplineSet
EndChar

StartChar: S
Encoding: 83 83 54
Width: 507
GlyphClass: 2
Flags: W
LayerCount: 2
Fore
SplineSet
192 -12 m 0,0,1
 152 -12 152 -12 113 -4 c 128,-1,2
 74 4 74 4 36 21 c 1,3,-1
 32 31 l 1,4,5
 54 106 54 106 66 205 c 1,6,-1
 107 210 l 1,7,8
 102 164 102 164 102 124.5 c 128,-1,9
 102 85 102 85 113 65 c 0,10,11
 132 32 132 32 204.5 32 c 128,-1,12
 277 32 277 32 319 66 c 128,-1,13
 361 100 361 100 361 154 c 0,14,15
 361 190 361 190 334 217.5 c 128,-1,16
 307 245 307 245 238.5 285.5 c 128,-1,17
 170 326 170 326 145 350 c 0,18,19
 97 396 97 396 96 450 c 1,20,21
 96 532 96 532 163 590 c 128,-1,22
 230 648 230 648 328 648 c 0,23,24
 404 648 404 648 480 624 c 1,25,-1
 482 619 l 1,26,27
 458 542 458 542 441 450 c 1,28,-1
 405 446 l 1,29,-1
 400 451 l 1,30,31
 411 495 411 495 411 530.5 c 128,-1,32
 411 566 411 566 387.5 582.5 c 128,-1,33
 364 599 364 599 306.5 599 c 128,-1,34
 249 599 249 599 209.5 568.5 c 128,-1,35
 170 538 170 538 170 490 c 128,-1,36
 170 442 170 442 243 390 c 0,37,38
 260 379 260 379 293.5 359 c 128,-1,39
 327 339 327 339 348.5 325 c 128,-1,40
 370 311 370 311 394 291 c 0,41,42
 442 251 442 251 442 195 c 0,43,44
 442 106 442 106 372 47 c 128,-1,45
 302 -12 302 -12 192 -12 c 0,0,1
EndSplineSet
EndChar

StartChar: T
Encoding: 84 84 55
Width: 523
GlyphClass: 2
Flags: W
LayerCount: 2
Fore
SplineSet
549 641 m 1,0,1
 543 572 543 572 543 534 c 2,2,-1
 543 477 l 1,3,-1
 499 473 l 1,4,5
 498 508 498 508 497.5 524 c 128,-1,6
 497 540 497 540 490.5 557.5 c 128,-1,7
 484 575 484 575 478 580 c 128,-1,8
 472 585 472 585 451.5 591.5 c 128,-1,9
 431 598 431 598 412 599 c 128,-1,10
 393 600 393 600 351 602 c 1,11,12
 336 531 336 531 304.5 325.5 c 128,-1,13
 273 120 273 120 273 92.5 c 128,-1,14
 273 65 273 65 284 53 c 128,-1,15
 295 41 295 41 320 41 c 1,16,-1
 375 44 l 1,17,-1
 377 40 l 1,18,-1
 363 -3 l 1,19,20
 269 0 269 0 223 0 c 1,21,-1
 94 -4 l 1,22,-1
 106 36 l 1,23,24
 174 43 174 43 191 62 c 128,-1,25
 208 81 208 81 218 162 c 2,26,-1
 271 602 l 1,27,28
 225 600 225 600 205 599 c 128,-1,29
 185 598 185 598 161 592 c 128,-1,30
 137 586 137 586 130 581 c 128,-1,31
 123 576 123 576 112 558.5 c 128,-1,32
 101 541 101 541 97 526.5 c 128,-1,33
 93 512 93 512 84 477 c 1,34,-1
 40 473 l 1,35,36
 62 558 62 558 75 641 c 1,37,-1
 85 648 l 1,38,-1
 161 637 l 1,39,-1
 459 637 l 1,40,-1
 541 648 l 1,41,-1
 549 641 l 1,0,1
EndSplineSet
EndChar

StartChar: U
Encoding: 85 85 56
Width: 655
GlyphClass: 2
Flags: W
LayerCount: 2
Fore
SplineSet
175 202 m 0,0,1
 175 124 175 124 210.5 82.5 c 128,-1,2
 246 41 246 41 320.5 41 c 128,-1,3
 395 41 395 41 442.5 85.5 c 128,-1,4
 490 130 490 130 500 215 c 0,5,6
 536 547 536 547 536 563.5 c 128,-1,7
 536 580 536 580 531.5 588 c 128,-1,8
 527 596 527 596 506 596 c 2,9,-1
 463 594 l 1,10,-1
 463 598 l 1,11,-1
 474 639 l 1,12,13
 545 636 545 636 572 636 c 0,14,15
 617 636 617 636 675 646 c 1,16,-1
 665 603 l 1,17,18
 622 598 622 598 609 587.5 c 128,-1,19
 596 577 596 577 592 546 c 2,20,-1
 550 206 l 2,21,22
 537 103 537 103 468 45.5 c 128,-1,23
 399 -12 399 -12 286 -12 c 0,24,25
 196 -12 196 -12 148.5 35 c 128,-1,26
 101 82 101 82 101 166 c 0,27,28
 101 189 101 189 104 210 c 0,29,30
 147 555 147 555 147 567 c 128,-1,31
 147 579 147 579 142 587.5 c 128,-1,32
 137 596 137 596 115 596 c 1,33,-1
 82 594 l 1,34,-1
 81 598 l 1,35,-1
 93 639 l 1,36,37
 163 636 163 636 190 636 c 0,38,39
 236 636 236 636 300 646 c 1,40,-1
 291 603 l 1,41,42
 255 598 255 598 241 586.5 c 128,-1,43
 227 575 227 575 222 546 c 2,44,-1
 178 252 l 1,45,46
 175 225 175 225 175 202 c 0,0,1
EndSplineSet
EndChar

StartChar: V
Encoding: 86 86 57
Width: 584
GlyphClass: 2
Flags: W
LayerCount: 2
Fore
SplineSet
50 639 m 1,0,1
 127 636 127 636 154 636 c 0,2,3
 204 636 204 636 304 648 c 1,4,-1
 306 641 l 1,5,-1
 297 604 l 1,6,7
 239 600 239 600 222.5 591.5 c 128,-1,8
 206 583 206 583 206 562 c 0,9,10
 206 519 206 519 272 93 c 1,11,-1
 280 93 l 1,12,13
 294 123 294 123 328 191.5 c 128,-1,14
 362 260 362 260 387.5 313 c 128,-1,15
 413 366 413 366 440 424 c 0,16,17
 499 547 499 547 499 563 c 0,18,19
 499 599 499 599 437 599 c 2,20,-1
 386 599 l 1,21,-1
 384 603 l 1,22,-1
 395 644 l 1,23,24
 468 636 468 636 531 636 c 1,25,-1
 637 640 l 1,26,-1
 624 595 l 1,27,28
 594 594 594 594 581 585 c 128,-1,29
 568 576 568 576 553 547 c 2,30,-1
 285 5 l 1,31,-1
 227 -17 l 1,32,33
 173 270 173 270 122 538 c 0,34,35
 112 594 112 594 39 595 c 1,36,-1
 38 599 l 1,37,-1
 50 639 l 1,0,1
EndSplineSet
EndChar

StartChar: W
Encoding: 87 87 58
Width: 893
GlyphClass: 2
Flags: W
LayerCount: 2
Fore
SplineSet
271 93 m 1,0,1
 274 100 274 100 456 480 c 1,2,3
 452 490 452 490 445 536 c 1,4,5
 433 592 433 592 364 595 c 1,6,-1
 363 599 l 1,7,-1
 375 639 l 1,8,9
 450 636 450 636 478 636 c 0,10,11
 531 636 531 636 621 648 c 1,12,-1
 622 641 l 1,13,-1
 614 604 l 1,14,15
 556 600 556 600 540 591.5 c 128,-1,16
 524 583 524 583 524 561 c 0,17,18
 524 517 524 517 588 93 c 1,19,-1
 594 93 l 1,20,21
 606 119 606 119 640 190.5 c 128,-1,22
 674 262 674 262 698.5 314 c 128,-1,23
 723 366 723 366 751 426 c 0,24,25
 809 550 809 550 809 568 c 0,26,27
 809 599 809 599 747 599 c 2,28,-1
 699 599 l 1,29,-1
 697 603 l 1,30,-1
 709 644 l 1,31,32
 780 636 780 636 841 636 c 1,33,-1
 942 640 l 1,34,-1
 930 595 l 1,35,36
 902 593 902 593 889 584.5 c 128,-1,37
 876 576 876 576 862 547 c 2,38,-1
 592 5 l 1,39,-1
 535 -17 l 1,40,-1
 467 415 l 1,41,-1
 461 415 l 1,42,-1
 272 5 l 1,43,-1
 213 -17 l 1,44,45
 170 271 170 271 121 538 c 0,46,47
 111 594 111 594 42 595 c 1,48,-1
 40 599 l 1,49,-1
 51 639 l 1,50,51
 127 636 127 636 157 636 c 0,52,53
 217 636 217 636 297 648 c 1,54,-1
 299 641 l 1,55,-1
 292 604 l 1,56,57
 235 600 235 600 218.5 591.5 c 128,-1,58
 202 583 202 583 202 558 c 0,59,60
 202 516 202 516 265 93 c 1,61,-1
 271 93 l 1,0,1
EndSplineSet
EndChar

StartChar: X
Encoding: 88 88 59
Width: 627
GlyphClass: 2
Flags: W
LayerCount: 2
Fore
SplineSet
444 603 m 1,0,-1
 443 607 l 1,1,-1
 452 644 l 1,2,3
 524 636 524 636 557 636 c 1,4,-1
 649 640 l 1,5,-1
 652 634 l 1,6,-1
 642 599 l 1,7,8
 601 592 601 592 576 572.5 c 128,-1,9
 551 553 551 553 499 496 c 2,10,-1
 362 342 l 1,11,-1
 478 124 l 2,12,13
 499 84 499 84 527 64.5 c 128,-1,14
 555 45 555 45 600 41 c 1,15,-1
 589 -3 l 1,16,17
 515 0 515 0 471 0 c 1,18,-1
 323 -8 l 1,19,-1
 321 -1 l 1,20,-1
 329 35 l 1,21,22
 410 39 410 39 410 74 c 0,23,24
 410 86 410 86 396 116 c 2,25,-1
 313 284 l 1,26,-1
 205 159 l 2,27,28
 167 115 167 115 155.5 97 c 128,-1,29
 144 79 144 79 144 64 c 0,30,31
 144 41 144 41 196 37 c 1,32,-1
 198 34 l 1,33,-1
 186 -7 l 1,34,35
 118 0 118 0 82 0 c 1,36,-1
 -11 -4 l 1,37,-1
 -14 3 l 1,38,-1
 -4 41 l 1,39,40
 38 53 38 53 75 84.5 c 128,-1,41
 112 116 112 116 170 180 c 2,42,-1
 293 316 l 1,43,-1
 190 517 l 2,44,45
 153 589 153 589 68 600 c 1,46,-1
 68 604 l 1,47,-1
 77 640 l 1,48,49
 172 636 172 636 210 636 c 0,50,51
 288 636 288 636 344 645 c 1,52,-1
 346 638 l 1,53,-1
 339 605 l 1,54,55
 258 599 258 599 258 568 c 0,56,57
 258 545 258 545 342 374 c 1,58,59
 353 388 353 388 401 443 c 0,60,61
 497 553 497 553 497 576 c 0,62,63
 497 597 497 597 444 603 c 1,0,-1
EndSplineSet
EndChar

StartChar: Y
Encoding: 89 89 60
Width: 512
GlyphClass: 2
Flags: W
LayerCount: 2
Fore
SplineSet
210 593 m 128,-1,1
 195 585 195 585 195 568 c 0,2,3
 195 533 195 533 272 304 c 1,4,-1
 276 304 l 1,5,-1
 415 522 l 2,6,7
 436 554 436 554 436 575 c 0,8,9
 436 599 436 599 379 603 c 1,10,-1
 377 607 l 1,11,-1
 388 644 l 1,12,13
 460 636 460 636 492 636 c 1,14,-1
 581 640 l 1,15,-1
 584 634 l 1,16,-1
 573 599 l 1,17,18
 528 591 528 591 508 572.5 c 128,-1,19
 488 554 488 554 462 515 c 0,20,21
 305 281 305 281 302.5 276 c 128,-1,22
 300 271 300 271 296.5 260 c 128,-1,23
 293 249 293 249 290.5 242 c 128,-1,24
 288 235 288 235 285.5 217.5 c 128,-1,25
 283 200 283 200 282 190 c 0,26,27
 268 98 268 98 268 80.5 c 128,-1,28
 268 63 268 63 271 56 c 0,29,30
 277 41 277 41 303 41 c 1,31,-1
 350 44 l 1,32,-1
 352 40 l 1,33,-1
 338 -3 l 1,34,35
 260 0 260 0 229 0 c 0,36,37
 176 0 176 0 110 -12 c 1,38,-1
 121 31 l 1,39,40
 172 42 172 42 187.5 62.5 c 128,-1,41
 203 83 203 83 209 141 c 0,42,43
 215 198 215 198 215 228.5 c 128,-1,44
 215 259 215 259 200 301 c 0,45,46
 125 518 125 518 122.5 524.5 c 128,-1,47
 120 531 120 531 115.5 543.5 c 128,-1,48
 111 556 111 556 108.5 559 c 128,-1,49
 106 562 106 562 101 570 c 128,-1,50
 96 578 96 578 92 580 c 128,-1,51
 88 582 88 582 81.5 587 c 128,-1,52
 75 592 75 592 67.5 593.5 c 128,-1,53
 60 595 60 595 51 597 c 128,-1,54
 42 599 42 599 30 600 c 1,55,-1
 28 604 l 1,56,-1
 39 640 l 1,57,58
 98 636 98 636 132 636 c 0,59,60
 200 636 200 636 279 645 c 1,61,-1
 281 638 l 1,62,-1
 273 605 l 1,63,0
 225 601 225 601 210 593 c 128,-1,1
EndSplineSet
EndChar

StartChar: Z
Encoding: 90 90 61
Width: 544
GlyphClass: 2
Flags: W
LayerCount: 2
Fore
SplineSet
447 13 m 1,0,-1
 431 -3 l 1,1,-1
 87 3 l 1,2,-1
 18 -3 l 1,3,-1
 10 28 l 1,4,-1
 439 596 l 1,5,-1
 269 590 l 1,6,7
 203 589 203 589 171 558.5 c 128,-1,8
 139 528 139 528 122 451 c 1,9,-1
 78 447 l 1,10,11
 106 548 106 548 119 639 c 1,12,-1
 130 648 l 1,13,-1
 297 637 l 1,14,-1
 541 630 l 1,15,-1
 548 602 l 1,16,17
 335 350 335 350 106 36 c 1,18,-1
 305 43 l 2,19,20
 355 44 355 44 390.5 84 c 128,-1,21
 426 124 426 124 453 210 c 1,22,-1
 496 215 l 1,23,24
 463 108 463 108 447 13 c 1,0,-1
EndSplineSet
EndChar

StartChar: bracketleft
Encoding: 91 91 62
Width: 297
GlyphClass: 2
Flags: W
LayerCount: 2
Fore
SplineSet
224 -137 m 1,0,-1
 49 -126 l 1,1,2
 93 150 93 150 106 250 c 1,3,-1
 142 629 l 1,4,-1
 321 640 l 1,5,-1
 325 634 l 1,6,-1
 315 603 l 1,7,-1
 203 579 l 1,8,-1
 123 -76 l 1,9,-1
 231 -100 l 1,10,-1
 234 -107 l 1,11,-1
 224 -137 l 1,0,-1
EndSplineSet
EndChar

StartChar: backslash
Encoding: 92 92 63
Width: 316
GlyphClass: 2
Flags: W
LayerCount: 2
Fore
SplineSet
89 665 m 1,0,-1
 98 675 l 1,1,-1
 144 675 l 1,2,-1
 199 226 l 1,3,-1
 247 -102 l 1,4,-1
 240 -110 l 1,5,-1
 191 -110 l 1,6,7
 155 179 155 179 89 665 c 1,0,-1
EndSplineSet
EndChar

StartChar: bracketright
Encoding: 93 93 64
Width: 297
GlyphClass: 2
Flags: W
LayerCount: 2
Fore
SplineSet
81 640 m 1,0,-1
 256 629 l 1,1,2
 212 353 212 353 199 253 c 1,3,-1
 163 -126 l 1,4,-1
 -17 -137 l 1,5,-1
 -20 -131 l 1,6,-1
 -10 -100 l 1,7,-1
 102 -76 l 1,8,-1
 182 579 l 1,9,-1
 74 603 l 1,10,-1
 71 610 l 1,11,-1
 81 640 l 1,0,-1
EndSplineSet
EndChar

StartChar: asciicircum
Encoding: 94 94 65
Width: 485
GlyphClass: 2
Flags: W
LayerCount: 2
Fore
SplineSet
292 481 m 1,0,-1
 302 473 l 1,1,2
 340 334 340 334 416 87 c 1,3,-1
 373 57 l 1,4,-1
 362 58 l 1,5,6
 309 238 309 238 263 407 c 1,7,-1
 257 407 l 1,8,-1
 87 59 l 1,9,-1
 38 66 l 1,10,-1
 35 75 l 1,11,12
 88 185 88 185 137 276 c 2,13,-1
 244 479 l 1,14,-1
 292 481 l 1,0,-1
EndSplineSet
EndChar

StartChar: underscore
Encoding: 95 95 66
Width: 439
GlyphClass: 2
Flags: W
LayerCount: 2
Fore
SplineSet
393 -142 m 1,0,-1
 -45 -144 l 1,1,-1
 -50 -135 l 1,2,-1
 -33 -86 l 1,3,4
 -4 -86 -4 -86 24 -86 c 2,5,-1
 140 -87 l 1,6,-1
 197 -87 l 2,7,8
 265 -87 265 -87 333.5 -84.5 c 128,-1,9
 402 -82 402 -82 403 -81 c 1,10,-1
 407 -91 l 1,11,-1
 393 -142 l 1,0,-1
EndSplineSet
EndChar

StartChar: grave
Encoding: 96 96 67
Width: 382
GlyphClass: 2
Flags: W
LayerCount: 2
Fore
SplineSet
115 660 m 1,0,-1
 114 671 l 1,1,-1
 152 712 l 1,2,-1
 162 714 l 1,3,4
 240 620 240 620 312 542 c 1,5,-1
 292 523 l 1,6,-1
 283 521 l 1,7,8
 216 583 216 583 115 660 c 1,0,-1
EndSplineSet
EndChar

StartChar: a
Encoding: 97 97 68
Width: 461
GlyphClass: 2
Flags: W
LayerCount: 2
Fore
SplineSet
298 -12 m 0,0,1
 262 -12 262 -12 262 17 c 0,2,3
 262 35 262 35 305 225 c 1,4,-1
 299 227 l 1,5,6
 205 53 205 53 112 -12 c 1,7,8
 74 -12 74 -12 53 23.5 c 128,-1,9
 32 59 32 59 32 124 c 0,10,11
 32 247 32 247 104.5 353.5 c 128,-1,12
 177 460 177 460 261 460 c 1,13,-1
 361 444 l 1,14,-1
 370 469 l 1,15,-1
 375 470 l 1,16,-1
 406 455 l 1,17,-1
 414 443 l 1,18,19
 357 250 357 250 331 64 c 1,20,-1
 334 60 l 1,21,22
 341 60 341 60 354 70 c 128,-1,23
 367 80 367 80 413 119 c 1,24,-1
 425 118 l 1,25,-1
 438 94 l 1,26,27
 326 -12 326 -12 298 -12 c 0,0,1
131 69 m 0,28,29
 159 69 159 69 217.5 158.5 c 128,-1,30
 276 248 276 248 331 373 c 1,31,32
 277 406 277 406 229 406 c 128,-1,33
 181 406 181 406 141.5 334 c 128,-1,34
 102 262 102 262 102 173 c 0,35,36
 102 130 102 130 110.5 99.5 c 128,-1,37
 119 69 119 69 131 69 c 0,28,29
EndSplineSet
EndChar

StartChar: b
Encoding: 98 98 69
Width: 453
GlyphClass: 2
Flags: W
LayerCount: 2
Fore
SplineSet
149 650 m 0,0,1
 149 689 149 689 107 689 c 2,2,-1
 66 689 l 1,3,-1
 72 727 l 1,4,-1
 233 733 l 1,5,-1
 242 721 l 1,6,7
 178 452 178 452 141 202 c 1,8,-1
 144 200 l 1,9,10
 193 305 193 305 233 366 c 128,-1,11
 273 427 273 427 318 464 c 1,12,13
 363 464 363 464 391.5 420.5 c 128,-1,14
 420 377 420 377 420 307 c 0,15,16
 420 185 420 185 351 88.5 c 128,-1,17
 282 -8 282 -8 195 -8 c 0,18,19
 133 -8 133 -8 67 16 c 1,20,-1
 57 35 l 1,21,22
 149 609 149 609 149 650 c 0,0,1
305 381 m 0,23,24
 282 381 282 381 232.5 297.5 c 128,-1,25
 183 214 183 214 121 69 c 1,26,27
 184 46 184 46 231 46 c 128,-1,28
 278 46 278 46 314.5 111.5 c 128,-1,29
 351 177 351 177 351 259 c 0,30,31
 351 307 351 307 337 344 c 128,-1,32
 323 381 323 381 305 381 c 0,23,24
EndSplineSet
EndChar

StartChar: c
Encoding: 99 99 70
Width: 344
GlyphClass: 2
Flags: W
LayerCount: 2
Fore
SplineSet
302 362 m 1,0,1
 271 405 271 405 226.5 405 c 128,-1,2
 182 405 182 405 143 336 c 128,-1,3
 104 267 104 267 104 194 c 128,-1,4
 104 121 104 121 122.5 84 c 128,-1,5
 141 47 141 47 172 47 c 128,-1,6
 203 47 203 47 233.5 71.5 c 128,-1,7
 264 96 264 96 282 134 c 1,8,-1
 296 133 l 1,9,-1
 311 109 l 1,10,11
 282 56 282 56 237.5 22 c 128,-1,12
 193 -12 193 -12 144.5 -12 c 128,-1,13
 96 -12 96 -12 65 32 c 128,-1,14
 34 76 34 76 34 153 c 128,-1,15
 34 230 34 230 66.5 302.5 c 128,-1,16
 99 375 99 375 151.5 419.5 c 128,-1,17
 204 464 204 464 259 464 c 128,-1,18
 314 464 314 464 345 443 c 1,19,-1
 350 432 l 1,20,-1
 316 365 l 1,21,-1
 302 362 l 1,0,1
EndSplineSet
EndChar

StartChar: d
Encoding: 100 100 71
Width: 463
GlyphClass: 2
Flags: W
LayerCount: 2
Fore
SplineSet
298 -12 m 0,0,1
 262 -12 262 -12 262 17 c 0,2,3
 262 30 262 30 305 225 c 1,4,-1
 298 227 l 1,5,6
 204 52 204 52 112 -12 c 1,7,8
 74 -12 74 -12 53 23.5 c 128,-1,9
 32 59 32 59 32 124 c 0,10,11
 32 247 32 247 104.5 353.5 c 128,-1,12
 177 460 177 460 261 460 c 1,13,-1
 333 448 l 1,14,15
 360 650 360 650 360 660.5 c 128,-1,16
 360 671 360 671 351.5 680 c 128,-1,17
 343 689 343 689 318 689 c 2,18,-1
 277 689 l 1,19,-1
 283 727 l 1,20,-1
 444 733 l 1,21,-1
 453 721 l 1,22,23
 361 292 361 292 331 64 c 1,24,-1
 334 60 l 1,25,26
 341 60 341 60 352.5 68.5 c 128,-1,27
 364 77 364 77 413 119 c 1,28,-1
 425 118 l 1,29,-1
 438 94 l 1,30,31
 325 -12 325 -12 298 -12 c 0,0,1
131 69 m 0,32,33
 159 69 159 69 216 157.5 c 128,-1,34
 273 246 273 246 328 374 c 1,35,36
 274 406 274 406 227.5 406 c 128,-1,37
 181 406 181 406 141.5 334 c 128,-1,38
 102 262 102 262 102 173 c 0,39,40
 102 130 102 130 110.5 99.5 c 128,-1,41
 119 69 119 69 131 69 c 0,32,33
EndSplineSet
EndChar

StartChar: e
Encoding: 101 101 72
Width: 359
GlyphClass: 2
Flags: W
LayerCount: 2
Fore
SplineSet
340 386 m 0,0,1
 340 323 340 323 285 278 c 128,-1,2
 230 233 230 233 102 190 c 1,3,4
 101 179 101 179 101 169 c 0,5,6
 101 119 101 119 119 83.5 c 128,-1,7
 137 48 137 48 169.5 48 c 128,-1,8
 202 48 202 48 232 71.5 c 128,-1,9
 262 95 262 95 282 134 c 1,10,-1
 296 133 l 1,11,-1
 311 109 l 1,12,13
 282 56 282 56 237.5 22 c 128,-1,14
 193 -12 193 -12 144.5 -12 c 128,-1,15
 96 -12 96 -12 65 32 c 128,-1,16
 34 76 34 76 34 153 c 0,17,18
 34 268 34 268 105.5 366 c 128,-1,19
 177 464 177 464 261 464 c 0,20,21
 299 464 299 464 319.5 443.5 c 128,-1,22
 340 423 340 423 340 386 c 0,0,1
231 289 m 128,-1,24
 269 319 269 319 269 362.5 c 128,-1,25
 269 406 269 406 229.5 406 c 128,-1,26
 190 406 190 406 153.5 354.5 c 128,-1,27
 117 303 117 303 106 232 c 1,28,23
 193 259 193 259 231 289 c 128,-1,24
EndSplineSet
EndChar

StartChar: f
Encoding: 102 102 73
Width: 257
GlyphClass: 2
Flags: W
LayerCount: 2
Fore
SplineSet
337 742 m 0,0,1
 396 742 396 742 438 727 c 1,2,-1
 442 716 l 1,3,-1
 411 653 l 1,4,-1
 392 650 l 1,5,6
 336 683 336 683 293 683 c 0,7,8
 214 683 214 683 200 569 c 2,9,-1
 185 449 l 1,10,-1
 330 450 l 1,11,-1
 334 447 l 1,12,-1
 326 407 l 1,13,-1
 190 408 l 1,14,-1
 180 402 l 1,15,-1
 128 -75 l 2,16,17
 119 -154 119 -154 78 -198 c 128,-1,18
 37 -242 37 -242 -27 -242 c 0,19,20
 -58 -242 -58 -242 -84 -229 c 128,-1,21
 -110 -216 -110 -216 -117 -196 c 1,22,23
 -105 -150 -105 -150 -83 -112 c 1,24,-1
 -69 -112 l 1,25,26
 -70 -149 -70 -149 -50.5 -172 c 128,-1,27
 -31 -195 -31 -195 -2 -195 c 128,-1,28
 27 -195 27 -195 48 -172.5 c 128,-1,29
 69 -150 69 -150 73.5 -113.5 c 128,-1,30
 78 -77 78 -77 81 -14 c 0,31,32
 83 38 83 38 113 397 c 1,33,-1
 106 402 l 1,34,-1
 37 405 l 1,35,-1
 34 410 l 1,36,-1
 38 439 l 1,37,-1
 117 451 l 1,38,-1
 126 531 l 2,39,40
 137 622 137 622 197 682 c 128,-1,41
 257 742 257 742 337 742 c 0,0,1
EndSplineSet
EndChar

StartChar: g
Encoding: 103 103 74
Width: 444
GlyphClass: 2
Flags: W
LayerCount: 2
Fore
SplineSet
166 87 m 0,0,1
 213 87 213 87 347 375 c 1,2,3
 285 406 285 406 243 406 c 128,-1,4
 201 406 201 406 164.5 341 c 128,-1,5
 128 276 128 276 128 196 c 0,6,7
 128 153 128 153 139.5 120 c 128,-1,8
 151 87 151 87 166 87 c 0,0,1
-1 -107 m 0,9,10
 -1 -133 -1 -133 36.5 -158 c 128,-1,11
 74 -183 74 -183 113 -183 c 0,12,13
 177 -183 177 -183 222 -136.5 c 128,-1,14
 267 -90 267 -90 277 -11 c 2,15,-1
 302 196 l 1,16,-1
 294 198 l 1,17,18
 248 113 248 113 219 74 c 128,-1,19
 190 35 190 35 161 14 c 128,-1,20
 132 -7 132 -7 88.5 -35.5 c 128,-1,21
 45 -64 45 -64 22 -81 c 128,-1,22
 -1 -98 -1 -98 -1 -107 c 0,9,10
80 -241 m 0,23,24
 18 -241 18 -241 -31 -202.5 c 128,-1,25
 -80 -164 -80 -164 -80 -120 c 0,26,27
 -80 -115 -80 -115 -78 -110 c 1,28,29
 -23 -66 -23 -66 109 12 c 1,30,-1
 110 21 l 1,31,32
 59 51 59 51 59 156 c 128,-1,33
 59 261 59 261 128.5 360.5 c 128,-1,34
 198 460 198 460 277 460 c 1,35,-1
 379 444 l 1,36,-1
 390 469 l 1,37,-1
 395 470 l 1,38,-1
 426 455 l 1,39,-1
 434 446 l 1,40,41
 364 316 364 316 355 238 c 0,42,43
 351 202 351 202 346 109.5 c 128,-1,44
 341 17 341 17 339 0 c 0,45,46
 328 -87 328 -87 245.5 -164 c 128,-1,47
 163 -241 163 -241 80 -241 c 0,23,24
EndSplineSet
EndChar

StartChar: h
Encoding: 104 104 75
Width: 490
GlyphClass: 2
Flags: W
LayerCount: 2
Fore
SplineSet
447 94 m 1,0,1
 340 -12 340 -12 308 -12 c 128,-1,2
 276 -12 276 -12 276 17 c 128,-1,3
 276 46 276 46 314 170 c 128,-1,4
 352 294 352 294 352 321 c 0,5,6
 352 371 352 371 318 371 c 0,7,8
 287 371 287 371 235.5 295.5 c 128,-1,9
 184 220 184 220 132 98 c 1,10,-1
 121 14 l 2,11,12
 120 9 120 9 95.5 0 c 128,-1,13
 71 -9 71 -9 59 -9 c 1,14,-1
 52 0 l 1,15,16
 148 610 148 610 148 649.5 c 128,-1,17
 148 689 148 689 106 689 c 2,18,-1
 65 689 l 1,19,-1
 71 727 l 1,20,-1
 232 733 l 1,21,-1
 241 721 l 1,22,23
 177 452 177 452 140 202 c 1,24,-1
 145 199 l 1,25,26
 252 408 252 408 348 464 c 1,27,28
 380 464 380 464 403.5 435.5 c 128,-1,29
 427 407 427 407 427 367.5 c 128,-1,30
 427 328 427 328 386.5 211 c 128,-1,31
 346 94 346 94 340 64 c 1,32,-1
 343 60 l 1,33,34
 350 60 350 60 363 70 c 128,-1,35
 376 80 376 80 422 119 c 1,36,-1
 434 118 l 1,37,-1
 447 94 l 1,0,1
EndSplineSet
EndChar

StartChar: i
Encoding: 105 105 76
Width: 264
GlyphClass: 2
Flags: W
LayerCount: 2
Fore
SplineSet
223 611.5 m 128,-1,1
 205 592 205 592 181.5 592 c 128,-1,2
 158 592 158 592 147 605 c 128,-1,3
 136 618 136 618 136 640 c 128,-1,4
 136 662 136 662 154.5 682 c 128,-1,5
 173 702 173 702 196 702 c 128,-1,6
 219 702 219 702 230 689 c 128,-1,7
 241 676 241 676 241 653.5 c 128,-1,0
 241 631 241 631 223 611.5 c 128,-1,1
97 -12 m 0,8,9
 67 -12 67 -12 67 23 c 1,10,11
 118 331 118 331 118 359.5 c 128,-1,12
 118 388 118 388 108 398 c 128,-1,13
 98 408 98 408 76 408 c 2,14,-1
 35 408 l 1,15,-1
 42 446 l 1,16,-1
 204 452 l 1,17,-1
 213 440 l 1,18,19
 156 250 156 250 130 64 c 1,20,-1
 133 60 l 1,21,22
 145 60 145 60 212 119 c 1,23,-1
 224 118 l 1,24,-1
 237 94 l 1,25,26
 131 -12 131 -12 97 -12 c 0,8,9
EndSplineSet
EndChar

StartChar: j
Encoding: 106 106 77
Width: 245
GlyphClass: 2
Flags: W
LayerCount: 2
Fore
SplineSet
118 365 m 0,0,1
 118 408 118 408 74 408 c 2,2,-1
 33 408 l 1,3,-1
 41 446 l 1,4,-1
 200 452 l 1,5,-1
 210 440 l 1,6,7
 145 179 145 179 124 21 c 0,8,9
 110 -80 110 -80 68 -141.5 c 128,-1,10
 26 -203 26 -203 -48 -241 c 1,11,-1
 -63 -222 l 1,12,-1
 -60 -214 l 1,13,14
 -1 -172 -1 -172 27 -118.5 c 128,-1,15
 55 -65 55 -65 68 38 c 1,16,17
 118 330 118 330 118 365 c 0,0,1
220 611.5 m 128,-1,19
 201 592 201 592 178.5 592 c 128,-1,20
 156 592 156 592 144.5 604 c 128,-1,21
 133 616 133 616 133 639.5 c 128,-1,22
 133 663 133 663 152 682.5 c 128,-1,23
 171 702 171 702 193.5 702 c 128,-1,24
 216 702 216 702 227.5 690 c 128,-1,25
 239 678 239 678 239 654.5 c 128,-1,18
 239 631 239 631 220 611.5 c 128,-1,19
EndSplineSet
EndChar

StartChar: k
Encoding: 107 107 78
Width: 432
GlyphClass: 2
Flags: W
LayerCount: 2
Fore
SplineSet
352 334 m 0,0,1
 352 350 352 350 342.5 360.5 c 128,-1,2
 333 371 333 371 319 371 c 0,3,4
 288 371 288 371 235.5 294.5 c 128,-1,5
 183 218 183 218 132 97 c 1,6,-1
 121 14 l 2,7,8
 120 9 120 9 95.5 0 c 128,-1,9
 71 -9 71 -9 59 -9 c 1,10,-1
 52 0 l 1,11,12
 148 610 148 610 148 649.5 c 128,-1,13
 148 689 148 689 106 689 c 2,14,-1
 65 689 l 1,15,-1
 71 727 l 1,16,-1
 232 733 l 1,17,-1
 241 721 l 1,18,19
 177 452 177 452 140 202 c 1,20,-1
 145 199 l 1,21,22
 252 408 252 408 348 464 c 1,23,24
 380 464 380 464 402 437 c 128,-1,25
 424 410 424 410 424 372 c 0,26,27
 424 277 424 277 270 186 c 1,28,29
 326 98 326 98 392 20 c 1,30,-1
 394 8 l 1,31,-1
 333 -24 l 1,32,-1
 320 -17 l 1,33,-1
 212 179 l 1,34,-1
 216 194 l 1,35,36
 352 263 352 263 352 334 c 0,0,1
EndSplineSet
EndChar

StartChar: l
Encoding: 108 108 79
Width: 250
GlyphClass: 2
Flags: W
LayerCount: 2
Fore
SplineSet
225 94 m 1,0,1
 119 -12 119 -12 86.5 -12 c 128,-1,2
 54 -12 54 -12 54 17 c 0,3,4
 54 23 54 23 101 324.5 c 128,-1,5
 148 626 148 626 148 649 c 0,6,7
 148 689 148 689 106 689 c 2,8,-1
 65 689 l 1,9,-1
 71 727 l 1,10,-1
 232 733 l 1,11,-1
 241 721 l 1,12,13
 152 321 152 321 118 64 c 1,14,-1
 121 60 l 1,15,16
 133 60 133 60 200 119 c 1,17,-1
 212 118 l 1,18,-1
 225 94 l 1,0,1
EndSplineSet
EndChar

StartChar: m
Encoding: 109 109 80
Width: 736
GlyphClass: 2
Flags: W
LayerCount: 2
Fore
SplineSet
693 94 m 1,0,1
 583 -12 583 -12 551.5 -12 c 128,-1,2
 520 -12 520 -12 520 17 c 128,-1,3
 520 46 520 46 561 170.5 c 128,-1,4
 602 295 602 295 602 322 c 0,5,6
 602 371 602 371 569 371 c 128,-1,7
 536 371 536 371 481.5 290 c 128,-1,8
 427 209 427 209 372 79 c 1,9,-1
 360 14 l 2,10,11
 359 9 359 9 334.5 0 c 128,-1,12
 310 -9 310 -9 298 -9 c 1,13,-1
 291 0 l 1,14,15
 358 293 358 293 358 320 c 0,16,17
 358 371 358 371 324 371 c 0,18,19
 294 371 294 371 244 295.5 c 128,-1,20
 194 220 194 220 144 99 c 1,21,-1
 133 14 l 2,22,23
 132 9 132 9 107.5 0 c 128,-1,24
 83 -9 83 -9 71 -9 c 1,25,-1
 64 0 l 1,26,27
 119 336 119 336 119 362.5 c 128,-1,28
 119 389 119 389 109 398.5 c 128,-1,29
 99 408 99 408 76 408 c 2,30,-1
 35 408 l 1,31,-1
 42 446 l 1,32,-1
 204 452 l 1,33,-1
 213 440 l 1,34,35
 171 319 171 319 152 202 c 1,36,-1
 155 199 l 1,37,38
 260 408 260 408 354 464 c 1,39,40
 386 464 386 464 408.5 436.5 c 128,-1,41
 431 409 431 409 431 371 c 0,42,43
 431 343 431 343 390 202 c 1,44,-1
 393 199 l 1,45,46
 442 296 442 296 496.5 365.5 c 128,-1,47
 551 435 551 435 600 464 c 1,48,49
 632 464 632 464 653 437.5 c 128,-1,50
 674 411 674 411 674 370.5 c 128,-1,51
 674 330 674 330 632.5 209.5 c 128,-1,52
 591 89 591 89 585 64 c 1,53,-1
 588 60 l 1,54,55
 595 60 595 60 608 69.5 c 128,-1,56
 621 79 621 79 668 119 c 1,57,-1
 680 118 l 1,58,-1
 693 94 l 1,0,1
EndSplineSet
EndChar

StartChar: n
Encoding: 110 110 81
Width: 502
GlyphClass: 2
Flags: W
LayerCount: 2
Fore
SplineSet
459 94 m 1,0,1
 353 -12 353 -12 320.5 -12 c 128,-1,2
 288 -12 288 -12 288 17 c 128,-1,3
 288 46 288 46 326 170 c 128,-1,4
 364 294 364 294 364 321 c 0,5,6
 364 371 364 371 330 371 c 0,7,8
 299 371 299 371 247.5 295 c 128,-1,9
 196 219 196 219 144 96 c 1,10,-1
 133 14 l 2,11,12
 132 9 132 9 107.5 0 c 128,-1,13
 83 -9 83 -9 71 -9 c 1,14,-1
 64 0 l 1,15,16
 119 336 119 336 119 362.5 c 128,-1,17
 119 389 119 389 109 398.5 c 128,-1,18
 99 408 99 408 76 408 c 2,19,-1
 35 408 l 1,20,-1
 42 446 l 1,21,-1
 204 452 l 1,22,-1
 213 440 l 1,23,24
 171 319 171 319 152 202 c 1,25,-1
 157 199 l 1,26,27
 264 408 264 408 360 464 c 1,28,29
 392 464 392 464 414 436.5 c 128,-1,30
 436 409 436 409 436 369 c 128,-1,31
 436 329 436 329 397 210.5 c 128,-1,32
 358 92 358 92 352 64 c 1,33,-1
 355 60 l 1,34,35
 362 60 362 60 375 70 c 128,-1,36
 388 80 388 80 434 119 c 1,37,-1
 446 118 l 1,38,-1
 459 94 l 1,0,1
EndSplineSet
EndChar

StartChar: o
Encoding: 111 111 82
Width: 406
GlyphClass: 2
Flags: W
LayerCount: 2
Fore
SplineSet
186 43 m 0,0,1
 235 43 235 43 267.5 104.5 c 128,-1,2
 300 166 300 166 300 246.5 c 128,-1,3
 300 327 300 327 278.5 365.5 c 128,-1,4
 257 404 257 404 219 404 c 0,5,6
 170 404 170 404 138 346.5 c 128,-1,7
 106 289 106 289 106 210.5 c 128,-1,8
 106 132 106 132 128.5 87.5 c 128,-1,9
 151 43 151 43 186 43 c 0,0,1
146 -12 m 0,10,11
 96 -12 96 -12 65 33 c 128,-1,12
 34 78 34 78 34 152 c 0,13,14
 34 275 34 275 102.5 369.5 c 128,-1,15
 171 464 171 464 261 464 c 0,16,17
 314 464 314 464 344.5 424.5 c 128,-1,18
 375 385 375 385 375 315 c 0,19,20
 375 183 375 183 307 85.5 c 128,-1,21
 239 -12 239 -12 146 -12 c 0,10,11
EndSplineSet
EndChar

StartChar: p
Encoding: 112 112 83
Width: 465
GlyphClass: 2
Flags: W
LayerCount: 2
Fore
SplineSet
88 123 m 128,-1,1
 121 342 121 342 121 365.5 c 128,-1,2
 121 389 121 389 111 398.5 c 128,-1,3
 101 408 101 408 78 408 c 2,4,-1
 37 408 l 1,5,-1
 44 446 l 1,6,-1
 206 452 l 1,7,-1
 215 440 l 1,8,9
 175 326 175 326 153 205 c 1,10,-1
 157 202 l 1,11,12
 211 313 211 313 250 371.5 c 128,-1,13
 289 430 289 430 330 464 c 1,14,15
 375 464 375 464 403.5 420.5 c 128,-1,16
 432 377 432 377 432 307 c 0,17,18
 432 194 432 194 364 93 c 128,-1,19
 296 -8 296 -8 220 -8 c 1,20,-1
 125 5 l 1,21,22
 103 -148 103 -148 103 -160 c 128,-1,23
 103 -172 103 -172 110.5 -180.5 c 128,-1,24
 118 -189 118 -189 146 -189 c 2,25,-1
 187 -189 l 1,26,-1
 188 -195 l 1,27,-1
 182 -228 l 1,28,29
 101 -228 101 -228 -16 -235 c 1,30,-1
 -10 -199 l 1,31,32
 13 -197 13 -197 24 -183.5 c 128,-1,33
 35 -170 35 -170 45 -133 c 128,-1,0
 55 -96 55 -96 88 123 c 128,-1,1
317 381 m 0,34,35
 294 381 294 381 244 297 c 128,-1,36
 194 213 194 213 136 75 c 1,37,38
 201 46 201 46 253 46 c 0,39,40
 293 46 293 46 328 113.5 c 128,-1,41
 363 181 363 181 363 259 c 0,42,43
 363 307 363 307 349 344 c 128,-1,44
 335 381 335 381 317 381 c 0,34,35
EndSplineSet
EndChar

StartChar: q
Encoding: 113 113 84
Width: 442
GlyphClass: 2
Flags: W
LayerCount: 2
Fore
SplineSet
60 30 m 128,-1,1
 34 72 34 72 34 143.5 c 128,-1,2
 34 215 34 215 67.5 290 c 128,-1,3
 101 365 101 365 154 412.5 c 128,-1,4
 207 460 207 460 261 460 c 1,5,-1
 359 444 l 1,6,-1
 380 496 l 1,7,-1
 387 498 l 1,8,-1
 420 487 l 1,9,-1
 427 475 l 1,10,11
 402 430 402 430 352 181.5 c 128,-1,12
 302 -67 302 -67 302 -144 c 0,13,14
 302 -168 302 -168 309 -177.5 c 128,-1,15
 316 -187 316 -187 333 -187 c 2,16,-1
 374 -187 l 1,17,-1
 376 -193 l 1,18,-1
 371 -227 l 1,19,20
 277 -227 277 -227 163 -239 c 1,21,-1
 169 -200 l 1,22,23
 209 -195 209 -195 222 -181.5 c 128,-1,24
 235 -168 235 -168 243 -123 c 2,25,-1
 273 51 l 1,26,-1
 305 225 l 1,27,-1
 298 227 l 1,28,29
 205 53 205 53 127 -12 c 1,30,0
 86 -12 86 -12 60 30 c 128,-1,1
141 69 m 0,31,32
 164 69 164 69 214.5 150.5 c 128,-1,33
 265 232 265 232 329 374 c 1,34,35
 271 406 271 406 226 406 c 128,-1,36
 181 406 181 406 141.5 337.5 c 128,-1,37
 102 269 102 269 102 184 c 0,38,39
 102 138 102 138 113.5 103.5 c 128,-1,40
 125 69 125 69 141 69 c 0,31,32
EndSplineSet
EndChar

StartChar: r
Encoding: 114 114 85
Width: 346
GlyphClass: 2
Flags: W
LayerCount: 2
Fore
SplineSet
64 0 m 1,0,1
 119 324 119 324 119 356 c 128,-1,2
 119 388 119 388 109.5 398 c 128,-1,3
 100 408 100 408 76 408 c 2,4,-1
 35 408 l 1,5,-1
 42 446 l 1,6,-1
 204 452 l 1,7,-1
 213 440 l 1,8,9
 178 332 178 332 159 233 c 1,10,-1
 163 232 l 1,11,12
 204 326 204 326 257.5 393 c 128,-1,13
 311 460 311 460 344 460 c 1,14,15
 373 435 373 435 373 391 c 0,16,17
 373 378 373 378 368 356 c 1,18,-1
 360 353 l 1,19,20
 349 358 349 358 332 358 c 0,21,22
 289 358 289 358 239 295.5 c 128,-1,23
 189 233 189 233 148 127 c 1,24,-1
 133 14 l 2,25,26
 132 9 132 9 107.5 0 c 128,-1,27
 83 -9 83 -9 71 -9 c 1,28,-1
 64 0 l 1,0,1
EndSplineSet
EndChar

StartChar: s
Encoding: 115 115 86
Width: 339
GlyphClass: 2
Flags: W
LayerCount: 2
Fore
SplineSet
57 138 m 1,0,1
 57 34 57 34 153 34 c 0,2,3
 182 34 182 34 202.5 53 c 128,-1,4
 223 72 223 72 223 98 c 0,5,6
 223 135 223 135 160 189 c 0,7,8
 87 251 87 251 73 286 c 0,9,10
 66 304 66 304 66 324 c 0,11,12
 66 380 66 380 113 422 c 128,-1,13
 160 464 160 464 227.5 464 c 128,-1,14
 295 464 295 464 325 424 c 1,15,16
 318 403 318 403 291 346 c 1,17,-1
 277 346 l 1,18,19
 253 416 253 416 190 416 c 0,20,21
 166 416 166 416 149.5 400.5 c 128,-1,22
 133 385 133 385 133 359.5 c 128,-1,23
 133 334 133 334 163 302 c 0,24,25
 172 292 172 292 211.5 258 c 128,-1,26
 251 224 251 224 270 196.5 c 128,-1,27
 289 169 289 169 289 137 c 0,28,29
 289 79 289 79 238.5 33.5 c 128,-1,30
 188 -12 188 -12 124 -12 c 0,31,32
 78 -12 78 -12 46.5 3 c 128,-1,33
 15 18 15 18 7 44 c 1,34,35
 23 103 23 103 43 138 c 1,36,-1
 57 138 l 1,0,1
EndSplineSet
EndChar

StartChar: t
Encoding: 116 116 87
Width: 285
GlyphClass: 2
Flags: W
LayerCount: 2
Fore
SplineSet
116 -12 m 0,0,1
 86 -12 86 -12 71.5 4 c 128,-1,2
 57 20 57 20 57 43 c 0,3,4
 57 50 57 50 113 398 c 1,5,-1
 108 402 l 1,6,-1
 39 405 l 1,7,-1
 36 410 l 1,8,-1
 40 439 l 1,9,-1
 120 452 l 1,10,-1
 136 572 l 1,11,-1
 226 607 l 1,12,-1
 232 595 l 1,13,14
 210 527 210 527 192 449 c 1,15,-1
 314 450 l 1,16,-1
 318 447 l 1,17,-1
 310 407 l 1,18,-1
 192 408 l 1,19,-1
 181 402 l 1,20,21
 119 91 119 91 119 85 c 0,22,23
 119 60 119 60 143 60 c 0,24,25
 169 60 169 60 242 129 c 1,26,-1
 255 128 l 1,27,-1
 267 104 l 1,28,29
 162 -12 162 -12 116 -12 c 0,0,1
EndSplineSet
EndChar

StartChar: u
Encoding: 117 117 88
Width: 486
GlyphClass: 2
Flags: W
LayerCount: 2
Fore
SplineSet
75 11 m 128,-1,1
 51 34 51 34 51 68 c 128,-1,2
 51 102 51 102 88 227 c 128,-1,3
 125 352 125 352 125 372 c 0,4,5
 125 408 125 408 83 408 c 2,6,-1
 42 408 l 1,7,-1
 50 446 l 1,8,-1
 212 452 l 1,9,-1
 221 440 l 1,10,11
 122 162 122 162 122 102 c 0,12,13
 122 67 122 67 151 67 c 128,-1,14
 180 67 180 67 235 149 c 128,-1,15
 290 231 290 231 347 358 c 1,16,-1
 365 453 l 1,17,-1
 374 456 l 1,18,-1
 432 447 l 1,19,-1
 439 439 l 1,20,21
 382 250 382 250 356 64 c 1,22,-1
 359 60 l 1,23,24
 366 60 366 60 379 70 c 128,-1,25
 392 80 392 80 438 119 c 1,26,-1
 450 118 l 1,27,-1
 463 94 l 1,28,29
 350 -12 350 -12 323 -12 c 0,30,31
 287 -12 287 -12 287 16 c 0,32,33
 287 43 287 43 330 225 c 1,34,-1
 321 228 l 1,35,36
 232 57 232 57 139 -12 c 1,37,0
 99 -12 99 -12 75 11 c 128,-1,1
EndSplineSet
EndChar

StartChar: v
Encoding: 118 118 89
Width: 421
GlyphClass: 2
Flags: W
LayerCount: 2
Fore
SplineSet
187 77 m 0,0,1
 187 67 187 67 187 58 c 1,2,-1
 196 58 l 1,3,4
 334 256 334 256 334 346 c 0,5,6
 334 370 334 370 322 389.5 c 128,-1,7
 310 409 310 409 298 417 c 2,8,-1
 286 425 l 1,9,-1
 290 442 l 1,10,-1
 371 464 l 1,11,12
 406 442 406 442 406 388 c 0,13,14
 406 281 406 281 206 -11 c 1,15,-1
 148 -11 l 1,16,-1
 133 1 l 1,17,18
 128 191 128 191 97 362 c 0,19,20
 93 385 93 385 84.5 393.5 c 128,-1,21
 76 402 76 402 56 402 c 1,22,-1
 4 397 l 1,23,-1
 7 435 l 1,24,-1
 155 459 l 1,25,-1
 166 449 l 1,26,27
 187 283 187 283 187 77 c 0,0,1
EndSplineSet
EndChar

StartChar: w
Encoding: 119 119 90
Width: 643
GlyphClass: 2
Flags: W
LayerCount: 2
Fore
SplineSet
404 388 m 0,0,1
 404 359 404 359 386 313 c 1,2,-1
 413 58 l 1,3,-1
 422 58 l 1,4,5
 484 149 484 149 520 227 c 128,-1,6
 556 305 556 305 556 347 c 0,7,8
 556 370 556 370 544 389.5 c 128,-1,9
 532 409 532 409 520 417 c 2,10,-1
 508 425 l 1,11,-1
 512 442 l 1,12,-1
 593 464 l 1,13,14
 628 440 628 440 628 388 c 0,15,16
 628 284 628 284 432 -11 c 1,17,-1
 374 -11 l 1,18,-1
 359 1 l 1,19,-1
 338 199 l 1,20,-1
 331 199 l 1,21,22
 287 116 287 116 206 -11 c 1,23,-1
 148 -11 l 1,24,-1
 133 1 l 1,25,26
 128 184 128 184 97 362 c 0,27,28
 93 385 93 385 84.5 393.5 c 128,-1,29
 76 402 76 402 56 402 c 1,30,-1
 4 397 l 1,31,-1
 7 435 l 1,32,-1
 155 459 l 1,33,-1
 166 449 l 1,34,35
 187 280 187 280 187 77 c 0,36,37
 187 67 187 67 187 58 c 1,38,-1
 196 58 l 1,39,40
 289 194 289 194 323 294 c 1,41,-1
 306 437 l 1,42,-1
 313 447 l 1,43,-1
 369 464 l 1,44,45
 404 442 404 442 404 388 c 0,0,1
EndSplineSet
EndChar

StartChar: x
Encoding: 120 120 91
Width: 462
GlyphClass: 2
Flags: W
LayerCount: 2
Fore
SplineSet
29 96 m 0,0,1
 29 35 29 35 61 35 c 0,2,3
 112 35 112 35 191 226 c 1,4,5
 160 335 160 335 148.5 363.5 c 128,-1,6
 137 392 137 392 124.5 392 c 128,-1,7
 112 392 112 392 47 333 c 1,8,-1
 34 334 l 1,9,-1
 22 358 l 1,10,11
 118 464 118 464 169 464 c 0,12,13
 188 464 188 464 203.5 429 c 128,-1,14
 219 394 219 394 247 290 c 1,15,16
 289 382 289 382 329 423 c 128,-1,17
 369 464 369 464 413.5 464 c 128,-1,18
 458 464 458 464 477 434 c 1,19,20
 460 391 460 391 443 356 c 1,21,-1
 429 356 l 1,22,23
 415 411 415 411 389 411 c 128,-1,24
 363 411 363 411 336.5 373 c 128,-1,25
 310 335 310 335 269 239 c 1,26,27
 294 134 294 134 307.5 97 c 128,-1,28
 321 60 321 60 334 60 c 128,-1,29
 347 60 347 60 423 119 c 1,30,-1
 435 118 l 1,31,-1
 448 94 l 1,32,33
 387 32 387 32 356.5 10 c 128,-1,34
 326 -12 326 -12 303.5 -12 c 128,-1,35
 281 -12 281 -12 263 27 c 128,-1,36
 245 66 245 66 215 176 c 1,37,38
 171 75 171 75 129.5 31.5 c 128,-1,39
 88 -12 88 -12 37 -12 c 0,40,41
 13 -12 13 -12 -3 -2 c 128,-1,42
 -19 8 -19 8 -20 24 c 1,43,44
 -8 71 -8 71 15 108 c 1,45,-1
 29 108 l 1,46,47
 29 102 29 102 29 96 c 0,0,1
EndSplineSet
EndChar

StartChar: y
Encoding: 121 121 92
Width: 438
GlyphClass: 2
Flags: W
LayerCount: 2
Fore
SplineSet
423 388 m 0,0,1
 423 293 423 293 243 21 c 1,2,3
 150 -117 150 -117 84 -180 c 128,-1,4
 18 -243 18 -243 -34 -243 c 0,5,6
 -63 -243 -63 -243 -84.5 -232.5 c 128,-1,7
 -106 -222 -106 -222 -110 -206 c 1,8,9
 -110 -185 -110 -185 -92 -126 c 1,10,-1
 -78 -126 l 1,11,12
 -54 -165 -54 -165 -12.5 -165 c 128,-1,13
 29 -165 29 -165 64 -138.5 c 128,-1,14
 99 -112 99 -112 151 -43 c 1,15,16
 140 164 140 164 113 362 c 0,17,18
 109 385 109 385 100.5 393.5 c 128,-1,19
 92 402 92 402 72 402 c 1,20,-1
 20 397 l 1,21,-1
 23 435 l 1,22,-1
 171 459 l 1,23,-1
 182 449 l 1,24,25
 202 284 202 284 202 69 c 0,26,27
 202 58 202 58 202 48 c 1,28,-1
 212 48 l 1,29,30
 351 266 351 266 351 346 c 0,31,32
 351 393 351 393 303 425 c 1,33,-1
 307 442 l 1,34,-1
 388 464 l 1,35,36
 423 442 423 442 423 388 c 0,0,1
EndSplineSet
EndChar

StartChar: z
Encoding: 122 122 93
Width: 398
GlyphClass: 2
Flags: W
LayerCount: 2
Fore
SplineSet
304 436 m 0,0,1
 322 436 322 436 335 451 c 2,2,-1
 351 471 l 1,3,-1
 395 464 l 1,4,-1
 400 445 l 1,5,6
 209 222 209 222 105 82 c 1,7,-1
 134 89 l 1,8,9
 155 89 155 89 204.5 78 c 128,-1,10
 254 67 254 67 276 67 c 0,11,12
 334 67 334 67 349 132 c 1,13,-1
 367 130 l 1,14,15
 375 104 375 104 375 91 c 0,16,17
 375 49 375 49 349 18.5 c 128,-1,18
 323 -12 323 -12 290.5 -12 c 128,-1,19
 258 -12 258 -12 199 10.5 c 128,-1,20
 140 33 140 33 100 33 c 128,-1,21
 60 33 60 33 10 3 c 1,22,-1
 -1 20 l 1,23,-1
 283 384 l 1,24,-1
 182 385 l 2,25,26
 142 385 142 385 122 371 c 128,-1,27
 102 357 102 357 90 320 c 1,28,-1
 51 314 l 1,29,30
 75 392 75 392 85 454 c 1,31,-1
 99 464 l 1,32,33
 213 436 213 436 304 436 c 0,0,1
EndSplineSet
EndChar

StartChar: braceleft
Encoding: 123 123 94
Width: 297
GlyphClass: 2
Flags: W
LayerCount: 2
Fore
SplineSet
206 524 m 1,0,-1
 213 388 l 1,1,2
 213 292 213 292 129 265 c 1,3,-1
 128 259 l 1,4,5
 187 235 187 235 187 169 c 0,6,7
 187 138 187 138 161.5 61 c 128,-1,8
 136 -16 136 -16 136 -40.5 c 128,-1,9
 136 -65 136 -65 149 -81 c 128,-1,10
 162 -97 162 -97 188 -97 c 1,11,-1
 236 -91 l 1,12,-1
 239 -97 l 1,13,-1
 228 -125 l 1,14,15
 203 -133 203 -133 173 -133 c 0,16,17
 123 -133 123 -133 95 -103.5 c 128,-1,18
 67 -74 67 -74 67 -34.5 c 128,-1,19
 67 5 67 5 98.5 76 c 128,-1,20
 130 147 130 147 130 168 c 0,21,22
 130 228 130 228 47 247 c 1,23,-1
 54 268 l 1,24,25
 153 296 153 296 153 361 c 0,26,27
 153 380 153 380 143.5 435.5 c 128,-1,28
 134 491 134 491 134 517 c 0,29,30
 134 572 134 572 171.5 610.5 c 128,-1,31
 209 649 209 649 272 649 c 1,32,-1
 327 643 l 1,33,-1
 329 638 l 1,34,-1
 318 608 l 1,35,36
 291 613 291 613 274 613 c 0,37,38
 240 613 240 613 223 588 c 128,-1,39
 206 563 206 563 206 524 c 1,0,-1
EndSplineSet
EndChar

StartChar: bar
Encoding: 124 124 95
Width: 355
GlyphClass: 2
Flags: W
LayerCount: 2
Fore
SplineSet
277 807 m 1,0,-1
 287 801 l 1,1,2
 239 457 239 457 219 291 c 2,3,-1
 152 -258 l 1,4,-1
 93 -269 l 1,5,-1
 85 -263 l 1,6,7
 85 -263 85 -263 216 796 c 1,8,-1
 277 807 l 1,0,-1
EndSplineSet
EndChar

StartChar: braceright
Encoding: 125 125 96
Width: 297
GlyphClass: 2
Flags: W
LayerCount: 2
Fore
SplineSet
100 -8 m 1,0,-1
 94 128 l 1,1,2
 94 224 94 224 178 251 c 1,3,-1
 178 257 l 1,4,5
 120 281 120 281 120 347 c 0,6,7
 120 378 120 378 145 455 c 128,-1,8
 170 532 170 532 170 556 c 0,9,10
 170 613 170 613 119 613 c 1,11,-1
 70 607 l 1,12,-1
 68 613 l 1,13,-1
 79 641 l 1,14,15
 104 649 104 649 134 649 c 0,16,17
 184 649 184 649 212 619.5 c 128,-1,18
 240 590 240 590 240 550.5 c 128,-1,19
 240 511 240 511 208.5 440 c 128,-1,20
 177 369 177 369 177 348 c 0,21,22
 177 289 177 289 259 269 c 1,23,-1
 253 248 l 1,24,25
 154 220 154 220 154 155 c 0,26,27
 154 136 154 136 163.5 80.5 c 128,-1,28
 173 25 173 25 173 -1 c 0,29,30
 173 -56 173 -56 135 -94.5 c 128,-1,31
 97 -133 97 -133 35 -133 c 1,32,-1
 -20 -127 l 1,33,-1
 -22 -122 l 1,34,-1
 -11 -92 l 1,35,36
 16 -97 16 -97 32 -97 c 0,37,38
 66 -97 66 -97 83 -72 c 128,-1,39
 100 -47 100 -47 100 -8 c 1,0,-1
EndSplineSet
EndChar

StartChar: asciitilde
Encoding: 126 126 97
Width: 486
GlyphClass: 2
Flags: W
LayerCount: 2
Fore
SplineSet
257 299.5 m 128,-1,1
 345 278 345 278 360 278 c 0,2,3
 385 278 385 278 422 320 c 1,4,-1
 434 333 l 1,5,-1
 440 333 l 1,6,-1
 459 312 l 1,7,-1
 459 307 l 1,8,-1
 374 218 l 1,9,-1
 358 214 l 1,10,11
 331 214 331 214 243 235.5 c 128,-1,12
 155 257 155 257 140 257 c 0,13,14
 113 257 113 257 78 216 c 2,15,-1
 66 202 l 1,16,-1
 60 202 l 1,17,-1
 41 223 l 1,18,-1
 41 228 l 1,19,-1
 126 317 l 1,20,-1
 142 321 l 1,21,0
 169 321 169 321 257 299.5 c 128,-1,1
EndSplineSet
EndChar

StartChar: exclamdown
Encoding: 161 161 99
Width: 273
GlyphClass: 2
Flags: W
LayerCount: 2
Fore
SplineSet
140.5 444 m 128,-1,1
 160 464 160 464 187 464 c 128,-1,2
 214 464 214 464 226.5 449.5 c 128,-1,3
 239 435 239 435 239 410.5 c 128,-1,4
 239 386 239 386 219.5 365.5 c 128,-1,5
 200 345 200 345 173.5 345 c 128,-1,6
 147 345 147 345 134 359 c 128,-1,7
 121 373 121 373 121 398.5 c 128,-1,0
 121 424 121 424 140.5 444 c 128,-1,1
175 242 m 1,8,-1
 128 -214 l 1,9,-1
 119 -224 l 1,10,-1
 35 -242 l 1,11,-1
 27 -231 l 1,12,-1
 136 243 l 1,13,-1
 165 250 l 1,14,-1
 175 242 l 1,8,-1
EndSplineSet
EndChar

StartChar: cent
Encoding: 162 162 100
Width: 344
GlyphClass: 2
Flags: W
LayerCount: 2
Fore
SplineSet
34 153 m 0,0,1
 34 263 34 263 96 356 c 128,-1,2
 158 449 158 449 239 462 c 1,3,-1
 280 654 l 1,4,-1
 308 658 l 1,5,-1
 312 649 l 1,6,-1
 272 464 l 1,7,8
 317 461 317 461 345 443 c 1,9,-1
 350 432 l 1,10,-1
 316 365 l 1,11,-1
 302 362 l 1,12,13
 283 388 283 388 258 399 c 1,14,-1
 183 47 l 1,15,16
 211 52 211 52 238.5 75.5 c 128,-1,17
 266 99 266 99 282 134 c 1,18,-1
 296 133 l 1,19,-1
 311 109 l 1,20,21
 286 62 286 62 247.5 30 c 128,-1,22
 209 -2 209 -2 170 -10 c 1,23,-1
 140 -151 l 1,24,-1
 113 -154 l 1,25,-1
 109 -147 l 1,26,-1
 138 -11 l 1,27,28
 89 -7 89 -7 61.5 37 c 128,-1,29
 34 81 34 81 34 153 c 0,0,1
104 183 m 0,30,31
 104 76 104 76 151 52 c 1,32,-1
 227 405 l 1,33,34
 180 403 180 403 142 334.5 c 128,-1,35
 104 266 104 266 104 183 c 0,30,31
EndSplineSet
EndChar

StartChar: sterling
Encoding: 163 163 101
Width: 504
GlyphClass: 2
Flags: W
LayerCount: 2
Fore
SplineSet
437 95 m 0,0,1
 437 50 437 50 411.5 19 c 128,-1,2
 386 -12 386 -12 352 -12 c 128,-1,3
 318 -12 318 -12 236.5 10.5 c 128,-1,4
 155 33 155 33 114.5 33 c 128,-1,5
 74 33 74 33 31 3 c 1,6,-1
 24 7 l 1,7,-1
 14 41 l 1,8,9
 121 110 121 110 133 204 c 2,10,-1
 139 252 l 1,11,12
 140 275 140 275 129.5 283 c 128,-1,13
 119 291 119 291 83 293 c 1,14,-1
 80 299 l 1,15,-1
 91 333 l 1,16,-1
 150 344 l 1,17,-1
 152 361 l 2,18,19
 165 468 165 468 225.5 533 c 128,-1,20
 286 598 286 598 371 598 c 0,21,22
 438 598 438 598 468 583 c 1,23,-1
 472 572 l 1,24,-1
 441 509 l 1,25,-1
 423 506 l 1,26,27
 368 539 368 539 327 539 c 0,28,29
 245 539 245 539 226 415 c 2,30,-1
 214 337 l 1,31,-1
 368 340 l 1,32,-1
 371 337 l 1,33,-1
 354 284 l 1,34,35
 280 287 280 287 206 287 c 1,36,-1
 194 208 l 1,37,38
 180 128 180 128 118 78 c 1,39,-1
 172 89 l 1,40,41
 201 89 201 89 255.5 78 c 128,-1,42
 310 67 310 67 332 67 c 0,43,44
 397 67 397 67 413 142 c 1,45,-1
 430 140 l 1,46,47
 437 119 437 119 437 95 c 0,0,1
EndSplineSet
EndChar

StartChar: currency
Encoding: 164 164 102
Width: 426
GlyphClass: 2
Flags: W
LayerCount: 2
Fore
SplineSet
100 277 m 1,0,1
 86 305 86 305 86 351 c 128,-1,2
 86 397 86 397 123 444 c 1,3,-1
 64 513 l 1,4,-1
 67 525 l 1,5,-1
 110 551 l 1,6,7
 137 517 137 517 166 482 c 1,8,9
 203 506 203 506 245.5 506 c 128,-1,10
 288 506 288 506 320 482 c 1,11,-1
 395 557 l 1,12,-1
 407 554 l 1,13,-1
 430 514 l 1,14,-1
 354 445 l 1,15,16
 371 416 371 416 371 372 c 128,-1,17
 371 328 371 328 338 281 c 1,18,-1
 398 215 l 1,19,-1
 394 204 l 1,20,-1
 350 174 l 1,21,-1
 295 240 l 1,22,23
 255 213 255 213 210 213 c 128,-1,24
 165 213 165 213 132 240 c 1,25,-1
 59 173 l 1,26,-1
 49 176 l 1,27,-1
 30 215 l 1,28,29
 32 215 32 215 100 277 c 1,0,1
166 425.5 m 128,-1,31
 134 393 134 393 134 352.5 c 128,-1,32
 134 312 134 312 157 286.5 c 128,-1,33
 180 261 180 261 219 261 c 128,-1,34
 258 261 258 261 290.5 293.5 c 128,-1,35
 323 326 323 326 323 366.5 c 128,-1,36
 323 407 323 407 299.5 432.5 c 128,-1,37
 276 458 276 458 237 458 c 128,-1,30
 198 458 198 458 166 425.5 c 128,-1,31
EndSplineSet
EndChar

StartChar: yen
Encoding: 165 165 103
Width: 528
GlyphClass: 2
Flags: W
LayerCount: 2
Fore
SplineSet
192 279 m 1,0,-1
 66 278 l 1,1,-1
 62 285 l 1,2,-1
 70 314 l 1,3,-1
 177 314 l 1,4,5
 171 330 171 330 161.5 356 c 128,-1,6
 152 382 152 382 147.5 393 c 128,-1,7
 143 404 143 404 134 420 c 128,-1,8
 125 436 125 436 116 442 c 0,9,10
 93 458 93 458 60 460 c 1,11,-1
 60 469 l 1,12,13
 63 481 63 481 71 505 c 1,14,15
 127 502 127 502 156 502 c 0,16,17
 191 502 191 502 282 509 c 1,18,-1
 285 499 l 1,19,-1
 278 465 l 1,20,21
 240 461 240 461 227.5 455 c 128,-1,22
 215 449 215 449 215 439 c 128,-1,23
 215 429 215 429 223 405 c 1,24,-1
 222 405 l 1,25,-1
 278 248 l 1,26,-1
 385 407 l 2,27,28
 402 433 402 433 402 447.5 c 128,-1,29
 402 462 402 462 354 464 c 1,30,-1
 354 471 l 1,31,-1
 363 508 l 1,32,33
 447 502 447 502 458 502 c 2,34,-1
 535 505 l 1,35,-1
 539 498 l 1,36,-1
 529 461 l 1,37,38
 492 455 492 455 475 441.5 c 128,-1,39
 458 428 458 428 427 384 c 2,40,-1
 379 316 l 1,41,-1
 489 318 l 1,42,-1
 494 309 l 1,43,-1
 487 279 l 1,44,-1
 352 279 l 1,45,-1
 312 222 l 1,46,47
 301 204 301 204 298 183 c 1,48,-1
 473 187 l 1,49,-1
 477 178 l 1,50,-1
 471 148 l 1,51,-1
 292 148 l 1,52,53
 282 88 282 88 282 71 c 128,-1,54
 282 54 282 54 289 48.5 c 128,-1,55
 296 43 296 43 315 43 c 2,56,-1
 353 44 l 1,57,-1
 354 36 l 1,58,-1
 341 -2 l 1,59,60
 270 0 270 0 244 0 c 0,61,62
 200 0 200 0 134 -10 c 1,63,-1
 144 33 l 1,64,65
 193 41 193 41 203.5 59.5 c 128,-1,66
 214 78 214 78 222 148 c 1,67,-1
 50 147 l 1,68,-1
 46 154 l 1,69,-1
 54 183 l 1,70,-1
 223 183 l 1,71,72
 220 212 220 212 210 236 c 2,73,-1
 192 279 l 1,0,-1
EndSplineSet
EndChar

StartChar: brokenbar
Encoding: 166 166 104
Width: 355
GlyphClass: 2
Flags: W
LayerCount: 2
Fore
SplineSet
137 166 m 1,0,-1
 201 178 l 1,1,-1
 204 175 l 1,2,-1
 152 -258 l 1,3,-1
 92 -269 l 1,4,-1
 84 -263 l 1,5,-1
 137 166 l 1,0,-1
229 376 m 1,6,-1
 167 367 l 1,7,-1
 163 370 l 1,8,9
 199 654 199 654 216 796 c 1,10,-1
 277 807 l 1,11,-1
 287 801 l 1,12,13
 252 552 252 552 229 376 c 1,6,-1
EndSplineSet
EndChar

StartChar: section
Encoding: 167 167 105
Width: 490
GlyphClass: 2
Flags: W
LayerCount: 2
Fore
SplineSet
70 256 m 128,-1,1
 48 293 48 293 48 337.5 c 128,-1,2
 48 382 48 382 83 429 c 128,-1,3
 118 476 118 476 178 511 c 1,4,5
 186 567 186 567 233 608 c 128,-1,6
 280 649 280 649 338 649 c 0,7,8
 375 649 375 649 402 635 c 128,-1,9
 429 621 429 621 429 604.5 c 128,-1,10
 429 588 429 588 418.5 559 c 128,-1,11
 408 530 408 530 400 522 c 1,12,-1
 386 522 l 1,13,14
 377 556 377 556 352.5 578 c 128,-1,15
 328 600 328 600 301 600 c 128,-1,16
 274 600 274 600 256 579.5 c 128,-1,17
 238 559 238 559 238 528.5 c 128,-1,18
 238 498 238 498 260.5 468 c 128,-1,19
 283 438 283 438 315.5 412 c 128,-1,20
 348 386 348 386 380 359 c 128,-1,21
 412 332 412 332 434.5 296.5 c 128,-1,22
 457 261 457 261 457 215 c 128,-1,23
 457 169 457 169 419 116.5 c 128,-1,24
 381 64 381 64 324 35 c 1,25,26
 316 -14 316 -14 262.5 -59.5 c 128,-1,27
 209 -105 209 -105 146 -105 c 0,28,29
 100 -105 100 -105 71 -84 c 128,-1,30
 42 -63 42 -63 42 -31 c 0,31,32
 42 -13 42 -13 51 19 c 128,-1,33
 60 51 60 51 68 60 c 1,34,-1
 83 60 l 1,35,36
 86 7 86 7 112.5 -25.5 c 128,-1,37
 139 -58 139 -58 176.5 -58 c 128,-1,38
 214 -58 214 -58 238.5 -34.5 c 128,-1,39
 263 -11 263 -11 263 21.5 c 128,-1,40
 263 54 263 54 241 83.5 c 128,-1,41
 219 113 219 113 187.5 139 c 128,-1,42
 156 165 156 165 124 192 c 128,-1,0
 92 219 92 219 70 256 c 128,-1,1
180 258 m 0,43,44
 211 231 211 231 242 204 c 0,45,46
 316 137 316 137 325 74 c 1,47,48
 394 117 394 117 394 180 c 0,49,50
 394 229 394 229 322 294 c 0,51,52
 292 321 292 321 262 349 c 0,53,54
 187 417 187 417 178 476 c 1,55,56
 109 435 109 435 109 378 c 128,-1,57
 109 321 109 321 180 258 c 0,43,44
EndSplineSet
EndChar

StartChar: dieresis
Encoding: 168 168 106
Width: 382
GlyphClass: 2
Flags: W
LayerCount: 2
Fore
SplineSet
348 582.5 m 128,-1,1
 332 566 332 566 312 566 c 128,-1,2
 292 566 292 566 282.5 577.5 c 128,-1,3
 273 589 273 589 273 607.5 c 128,-1,4
 273 626 273 626 289.5 642.5 c 128,-1,5
 306 659 306 659 326 659 c 0,6,7
 364 659 364 659 364 621 c 0,8,0
 364 599 364 599 348 582.5 c 128,-1,1
188 582.5 m 128,-1,10
 172 566 172 566 152 566 c 128,-1,11
 132 566 132 566 122.5 577.5 c 128,-1,12
 113 589 113 589 113 607.5 c 128,-1,13
 113 626 113 626 129.5 642.5 c 128,-1,14
 146 659 146 659 166 659 c 0,15,16
 204 659 204 659 204 621 c 0,17,9
 204 599 204 599 188 582.5 c 128,-1,10
EndSplineSet
EndChar

StartChar: copyright
Encoding: 169 169 107
Width: 665
GlyphClass: 2
Flags: W
LayerCount: 2
Fore
SplineSet
47 261 m 0,0,1
 47 397 47 397 147 497.5 c 128,-1,2
 247 598 247 598 379 598 c 0,3,4
 490 598 490 598 563 519 c 128,-1,5
 636 440 636 440 636 325 c 0,6,7
 636 189 636 189 536 88.5 c 128,-1,8
 436 -12 436 -12 304 -12 c 0,9,10
 193 -12 193 -12 120 67 c 128,-1,11
 47 146 47 146 47 261 c 0,0,1
88 265 m 0,12,13
 88 165 88 165 151 96.5 c 128,-1,14
 214 28 214 28 309 28 c 0,15,16
 422 28 422 28 508.5 115.5 c 128,-1,17
 595 203 595 203 595 321 c 0,18,19
 595 421 595 421 532 489.5 c 128,-1,20
 469 558 469 558 374 558 c 0,21,22
 261 558 261 558 174.5 470.5 c 128,-1,23
 88 383 88 383 88 265 c 0,12,13
447 146 m 1,24,25
 405 125 405 125 341 125 c 128,-1,26
 277 125 277 125 238.5 162.5 c 128,-1,27
 200 200 200 200 200 263 c 0,28,29
 200 351 200 351 256 408 c 128,-1,30
 312 465 312 465 399 465 c 0,31,32
 437 465 437 465 495 453 c 1,33,-1
 497 449 l 1,34,35
 482 409 482 409 473 361 c 1,36,-1
 443 358 l 1,37,38
 447 380 447 380 447 390 c 0,39,40
 447 431 447 431 385.5 431 c 128,-1,41
 324 431 324 431 290 389 c 128,-1,42
 256 347 256 347 256 283.5 c 128,-1,43
 256 220 256 220 281 187.5 c 128,-1,44
 306 155 306 155 351 155 c 0,45,46
 417 155 417 155 445 235 c 1,47,-1
 475 237 l 1,48,49
 459 188 459 188 451 151 c 1,50,-1
 447 146 l 1,24,25
EndSplineSet
EndChar

StartChar: ordfeminine
Encoding: 170 170 108
Width: 324
GlyphClass: 2
Flags: W
LayerCount: 2
Fore
SplineSet
210 343 m 128,-1,1
 184 343 184 343 184 365 c 0,2,3
 184 369 184 369 208 481 c 1,4,-1
 204 482 l 1,5,6
 146 380 146 380 94 343 c 1,7,8
 64 343 64 343 47 366.5 c 128,-1,9
 30 390 30 390 30 433 c 0,10,11
 30 510 30 510 78 576.5 c 128,-1,12
 126 643 126 643 181 643 c 1,13,-1
 240 632 l 1,14,-1
 245 647 l 1,15,-1
 251 650 l 1,16,-1
 288 641 l 1,17,-1
 293 631 l 1,18,19
 260 515 260 515 244 407 c 1,20,-1
 246 405 l 1,21,22
 252 405 252 405 292 439 c 1,23,-1
 302 438 l 1,24,-1
 311 419 l 1,25,0
 236 343 236 343 210 343 c 128,-1,1
110 407 m 128,-1,27
 126 407 126 407 159 458.5 c 128,-1,28
 192 510 192 510 221 580 c 1,29,30
 190 600 190 600 163 600 c 128,-1,31
 136 600 136 600 115 558.5 c 128,-1,32
 94 517 94 517 94 462 c 128,-1,26
 94 407 94 407 110 407 c 128,-1,27
EndSplineSet
EndChar

StartChar: guillemotleft
Encoding: 171 171 109
Width: 411
GlyphClass: 2
Flags: W
LayerCount: 2
Fore
SplineSet
387 400 m 1,0,-1
 407 385 l 1,1,-1
 407 375 l 1,2,-1
 287 226 l 1,3,-1
 370 71 l 1,4,-1
 367 61 l 1,5,-1
 343 46 l 1,6,-1
 199 212 l 1,7,-1
 201 227 l 1,8,-1
 387 400 l 1,0,-1
227 400 m 1,9,-1
 247 385 l 1,10,-1
 247 375 l 1,11,-1
 127 226 l 1,12,-1
 210 71 l 1,13,-1
 207 61 l 1,14,-1
 183 46 l 1,15,-1
 39 212 l 1,16,-1
 41 227 l 1,17,-1
 227 400 l 1,9,-1
EndSplineSet
EndChar

StartChar: logicalnot
Encoding: 172 172 110
Width: 486
GlyphClass: 2
Flags: W
LayerCount: 2
Fore
SplineSet
443 297 m 1,0,-1
 448 287 l 1,1,2
 433 224 433 224 427 177 c 2,3,-1
 411 41 l 1,4,-1
 360 30 l 1,5,-1
 352 36 l 1,6,7
 367 148 367 148 378 236 c 1,8,-1
 25 234 l 1,9,-1
 20 243 l 1,10,-1
 37 292 l 1,11,12
 180 291 180 291 266 291 c 1,13,-1
 443 297 l 1,0,-1
EndSplineSet
EndChar

StartChar: registered
Encoding: 174 174 111
Width: 449
GlyphClass: 2
Flags: W
LayerCount: 2
Fore
SplineSet
111.5 356 m 128,-1,1
 62 409 62 409 62 493 c 128,-1,2
 62 577 62 577 129 644 c 128,-1,3
 196 711 196 711 277.5 711 c 128,-1,4
 359 711 359 711 408 658.5 c 128,-1,5
 457 606 457 606 457 521.5 c 128,-1,6
 457 437 457 437 390.5 370 c 128,-1,7
 324 303 324 303 242.5 303 c 128,-1,0
 161 303 161 303 111.5 356 c 128,-1,1
152.5 620.5 m 128,-1,9
 97 565 97 565 97 495 c 128,-1,10
 97 425 97 425 137.5 381.5 c 128,-1,11
 178 338 178 338 245 338 c 128,-1,12
 312 338 312 338 367.5 393.5 c 128,-1,13
 423 449 423 449 423 519 c 128,-1,14
 423 589 423 589 382.5 632.5 c 128,-1,15
 342 676 342 676 275 676 c 128,-1,8
 208 676 208 676 152.5 620.5 c 128,-1,9
196 620 m 1,16,-1
 229 619 l 1,17,-1
 240 619 l 1,18,-1
 270 621 l 1,19,20
 304 621 304 621 323 608 c 128,-1,21
 342 595 342 595 342 572 c 0,22,23
 342 527 342 527 288 503 c 1,24,-1
 310 460 l 2,25,26
 327 428 327 428 345 428 c 1,27,-1
 348 424 l 1,28,29
 347 412 347 412 338.5 409.5 c 128,-1,30
 330 407 330 407 309.5 407 c 128,-1,31
 289 407 289 407 276 439 c 1,32,-1
 256 494 l 1,33,-1
 232 494 l 1,34,35
 225 461 225 461 225 450 c 128,-1,36
 225 439 225 439 229.5 436 c 128,-1,37
 234 433 234 433 246 433 c 1,38,-1
 248 429 l 1,39,-1
 244 412 l 1,40,41
 226 413 226 413 213 413 c 2,42,-1
 201 413 l 1,43,-1
 158 411 l 1,44,-1
 162 432 l 1,45,46
 178 433 178 433 183 440 c 128,-1,47
 188 447 188 447 191 470 c 2,48,-1
 204 581 l 2,49,50
 205 592 205 592 203.5 595.5 c 128,-1,51
 202 599 202 599 195 599 c 2,52,-1
 185 599 l 1,53,-1
 183 603 l 1,54,-1
 188 620 l 1,55,-1
 196 620 l 1,16,-1
236 520 m 1,56,-1
 263 517 l 1,57,58
 298 530 298 530 298 563.5 c 128,-1,59
 298 597 298 597 253 597 c 0,60,61
 247 597 247 597 246 589 c 2,62,-1
 236 520 l 1,56,-1
EndSplineSet
EndChar

StartChar: macron
Encoding: 175 175 112
Width: 382
GlyphClass: 2
Flags: W
LayerCount: 2
Fore
SplineSet
383 653 m 1,0,-1
 387 643 l 1,1,-1
 374 596 l 1,2,-1
 100 594 l 1,3,-1
 95 603 l 1,4,-1
 110 648 l 1,5,6
 201 647 201 647 258 647 c 1,7,-1
 383 653 l 1,0,-1
EndSplineSet
EndChar

StartChar: degree
Encoding: 176 176 113
Width: 290
GlyphClass: 2
Flags: W
LayerCount: 2
Fore
SplineSet
90.5 429.5 m 128,-1,1
 60 462 60 462 60 514.5 c 128,-1,2
 60 567 60 567 101.5 608 c 128,-1,3
 143 649 143 649 193.5 649 c 128,-1,4
 244 649 244 649 274 616.5 c 128,-1,5
 304 584 304 584 304 532 c 128,-1,6
 304 480 304 480 263 438.5 c 128,-1,7
 222 397 222 397 171.5 397 c 128,-1,0
 121 397 121 397 90.5 429.5 c 128,-1,1
127.5 579.5 m 128,-1,9
 102 552 102 552 102 517.5 c 128,-1,10
 102 483 102 483 123.5 461 c 128,-1,11
 145 439 145 439 178 439 c 128,-1,12
 211 439 211 439 237 466.5 c 128,-1,13
 263 494 263 494 263 528.5 c 128,-1,14
 263 563 263 563 241 585 c 128,-1,15
 219 607 219 607 186 607 c 128,-1,8
 153 607 153 607 127.5 579.5 c 128,-1,9
EndSplineSet
EndChar

StartChar: plusminus
Encoding: 177 177 114
Width: 486
GlyphClass: 2
Flags: W
LayerCount: 2
Fore
SplineSet
464 249 m 1,0,-1
 272 248 l 1,1,-1
 250 64 l 1,2,-1
 199 53 l 1,3,-1
 191 59 l 1,4,5
 205 162 205 162 215 248 c 1,6,-1
 26 247 l 1,7,-1
 22 256 l 1,8,-1
 38 305 l 1,9,10
 139 304 139 304 222 304 c 1,11,-1
 247 495 l 1,12,-1
 299 503 l 1,13,-1
 308 497 l 1,14,15
 288 384 288 384 278 304 c 1,16,-1
 474 310 l 1,17,-1
 478 300 l 1,18,-1
 464 249 l 1,0,-1
424 -73 m 1,19,-1
 -13 -75 l 1,20,-1
 -17 -66 l 1,21,-1
 -1 -17 l 1,22,-1
 15 -17 l 1,23,-1
 111 -18 l 2,24,25
 170 -18 170 -18 233 -18 c 128,-1,26
 296 -18 296 -18 365 -15.5 c 128,-1,27
 434 -13 434 -13 434 -12 c 2,28,-1
 438 -22 l 1,29,-1
 424 -73 l 1,19,-1
EndSplineSet
EndChar

StartChar: two.sups
Encoding: 178 178 115
Width: 318
GlyphClass: 2
Flags: W
LayerCount: 2
Fore
SplineSet
202 631 m 0,0,1
 202 669 202 669 154 669 c 128,-1,2
 106 669 106 669 63 607 c 1,3,-1
 55 607 l 1,4,-1
 51 648 l 1,5,6
 75 683 75 683 111 705.5 c 128,-1,7
 147 728 147 728 185.5 728 c 128,-1,8
 224 728 224 728 251 707 c 128,-1,9
 278 686 278 686 278 649.5 c 128,-1,10
 278 613 278 613 242.5 560.5 c 128,-1,11
 207 508 207 508 112 407 c 1,12,-1
 114 402 l 1,13,-1
 190 402 l 2,14,15
 221 402 221 402 234.5 413 c 128,-1,16
 248 424 248 424 260 459 c 1,17,-1
 299 463 l 1,18,19
 277 401 277 401 267 352 c 1,20,-1
 258 346 l 1,21,22
 113 351 113 351 57 351 c 1,23,-1
 16 344 l 1,24,-1
 12 369 l 1,25,-1
 89 446 l 1,26,27
 202 571 202 571 202 631 c 0,0,1
EndSplineSet
EndChar

StartChar: three.sups
Encoding: 179 179 116
Width: 284
GlyphClass: 2
Flags: W
LayerCount: 2
Fore
SplineSet
30 407 m 1,0,1
 56 399 56 399 89 399 c 128,-1,2
 122 399 122 399 150.5 419.5 c 128,-1,3
 179 440 179 440 179 471 c 0,4,5
 179 523 179 523 88 523 c 1,6,-1
 83 528 l 1,7,-1
 83 560 l 1,8,-1
 125 569 l 1,9,10
 150 581 150 581 166.5 601 c 128,-1,11
 183 621 183 621 183 639 c 128,-1,12
 183 657 183 657 173 666.5 c 128,-1,13
 163 676 163 676 147 676 c 0,14,15
 110 676 110 676 74 648 c 1,16,-1
 67 648 l 1,17,-1
 61 685 l 1,18,19
 135 728 135 728 172 728 c 128,-1,20
 209 728 209 728 232 709.5 c 128,-1,21
 255 691 255 691 255 662 c 128,-1,22
 255 633 255 633 233.5 607 c 128,-1,23
 212 581 212 581 176 565 c 1,24,-1
 175 560 l 1,25,26
 249 538 249 538 249 481 c 0,27,28
 249 432 249 432 188 387.5 c 128,-1,29
 127 343 127 343 61 343 c 0,30,31
 37 343 37 343 29.5 354.5 c 128,-1,32
 22 366 22 366 22 379 c 128,-1,33
 22 392 22 392 23 400 c 1,34,-1
 30 407 l 1,0,1
EndSplineSet
EndChar

StartChar: acute
Encoding: 180 180 117
Width: 382
GlyphClass: 2
Flags: W
LayerCount: 2
Fore
SplineSet
366 672 m 1,0,-1
 365 661 l 1,1,2
 281 597 281 597 197 521 c 1,3,-1
 188 523 l 1,4,-1
 168 542 l 1,5,6
 241 621 241 621 318 715 c 1,7,-1
 328 713 l 1,8,-1
 366 672 l 1,0,-1
EndSplineSet
EndChar

StartChar: mu
Encoding: 181 181 118
AltUni2: 0003bc.ffffffff.0
Width: 500
GlyphClass: 2
Flags: W
LayerCount: 2
Fore
SplineSet
126 135 m 0,0,1
 126 57 126 57 195 57 c 0,2,3
 221 57 221 57 246 71 c 0,4,5
 286 94 286 94 308 113 c 1,6,-1
 336 346 l 1,7,-1
 341 439 l 1,8,-1
 346 446 l 1,9,-1
 434 464 l 1,10,-1
 439 452 l 1,11,12
 428 431 428 431 401 280.5 c 128,-1,13
 374 130 374 130 374 94.5 c 128,-1,14
 374 59 374 59 408 59 c 0,15,16
 433 59 433 59 468 84 c 1,17,-1
 480 68 l 1,18,19
 454 35 454 35 427 11.5 c 128,-1,20
 400 -12 400 -12 385 -12 c 0,21,22
 347 -12 347 -12 327.5 6.5 c 128,-1,23
 308 25 308 25 308 58 c 0,24,25
 308 62 308 62 308 65 c 1,26,-1
 303 67 l 1,27,28
 215 -2 215 -2 171 -12 c 1,29,30
 131 -12 131 -12 103 14 c 1,31,-1
 98 11 l 1,32,33
 74 -131 74 -131 74 -196 c 2,34,-1
 74 -220 l 1,35,-1
 68 -227 l 1,36,-1
 0 -242 l 1,37,-1
 -5 -230 l 1,38,39
 23 -88 23 -88 46 73 c 2,40,-1
 84 328 l 2,41,42
 90 374 90 374 90 422 c 2,43,-1
 90 438 l 1,44,-1
 96 445 l 1,45,-1
 185 464 l 1,46,-1
 189 452 l 1,47,48
 176 424 176 424 151 291.5 c 128,-1,49
 126 159 126 159 126 135 c 0,0,1
EndSplineSet
EndChar

StartChar: paragraph
Encoding: 182 182 119
Width: 539
GlyphClass: 2
Flags: W
LayerCount: 2
Fore
SplineSet
294 641 m 1,0,-1
 419 637 l 1,1,-1
 540 640 l 1,2,-1
 527 594 l 1,3,4
 520 594 520 594 501 594 c 128,-1,5
 482 594 482 594 466.5 585.5 c 128,-1,6
 451 577 451 577 446 549 c 1,7,8
 429 487 429 487 386 154 c 0,9,10
 378 88 378 88 365.5 44 c 128,-1,11
 353 0 353 0 330 -36 c 0,12,13
 286 -105 286 -105 176 -105 c 0,14,15
 126 -105 126 -105 92 -83.5 c 128,-1,16
 58 -62 58 -62 58 -20 c 0,17,18
 58 2 58 2 72.5 30 c 128,-1,19
 87 58 87 58 106 78 c 1,20,-1
 121 78 l 1,21,22
 119 59 119 59 119 30.5 c 128,-1,23
 119 2 119 2 134 -23 c 0,24,25
 154 -58 154 -58 196 -58 c 0,26,27
 254 -58 254 -58 278.5 -16.5 c 128,-1,28
 303 25 303 25 316 134 c 2,29,-1
 371 578 l 1,30,31
 371 588 371 588 367.5 590 c 128,-1,32
 364 592 364 592 346 592 c 0,33,34
 290 592 290 592 260.5 538 c 128,-1,35
 231 484 231 484 231 392.5 c 128,-1,36
 231 301 231 301 275 227 c 1,37,-1
 273 212 l 1,38,39
 182 220 182 220 123.5 272 c 128,-1,40
 65 324 65 324 65 417.5 c 128,-1,41
 65 511 65 511 129.5 576 c 128,-1,42
 194 641 194 641 294 641 c 1,0,-1
EndSplineSet
EndChar

StartChar: periodcentered
Encoding: 183 183 120
Width: 229
GlyphClass: 2
Flags: W
LayerCount: 2
Fore
SplineSet
155 188.5 m 128,-1,1
 135 168 135 168 108 168 c 128,-1,2
 81 168 81 168 69 182.5 c 128,-1,3
 57 197 57 197 57 221.5 c 128,-1,4
 57 246 57 246 76.5 266.5 c 128,-1,5
 96 287 96 287 122.5 287 c 128,-1,6
 149 287 149 287 162 273 c 128,-1,7
 175 259 175 259 175 234 c 128,-1,0
 175 209 175 209 155 188.5 c 128,-1,1
EndSplineSet
EndChar

StartChar: cedilla
Encoding: 184 184 121
Width: 383
GlyphClass: 2
Flags: W
LayerCount: 2
Fore
SplineSet
233 -135 m 0,0,1
 233 -173 233 -173 191 -203 c 128,-1,2
 149 -233 149 -233 105 -233 c 0,3,4
 82 -233 82 -233 62.5 -223.5 c 128,-1,5
 43 -214 43 -214 43 -198.5 c 128,-1,6
 43 -183 43 -183 75 -141 c 1,7,-1
 83 -141 l 1,8,9
 83 -145 83 -145 83 -157.5 c 128,-1,10
 83 -170 83 -170 94.5 -184 c 128,-1,11
 106 -198 106 -198 128 -198 c 128,-1,12
 150 -198 150 -198 165 -186.5 c 128,-1,13
 180 -175 180 -175 180 -158 c 0,14,15
 180 -132 180 -132 107 -85 c 1,16,-1
 152 23 l 1,17,-1
 194 23 l 1,18,-1
 161 -50 l 1,19,20
 182 -64 182 -64 199 -80 c 128,-1,21
 216 -96 216 -96 220 -102 c 0,22,23
 233 -121 233 -121 233 -135 c 0,0,1
EndSplineSet
EndChar

StartChar: one.sups
Encoding: 185 185 122
Width: 240
GlyphClass: 2
Flags: W
LayerCount: 2
Fore
SplineSet
149 415 m 0,0,1
 149 386 149 386 173 386 c 1,2,-1
 205 388 l 1,3,-1
 206 385 l 1,4,-1
 195 349 l 1,5,6
 140 351 140 351 109 351 c 1,7,-1
 19 344 l 1,8,-1
 28 379 l 1,9,10
 58 381 58 381 72 392 c 128,-1,11
 86 403 86 403 89 430 c 2,12,-1
 115 639 l 2,13,14
 117 661 117 661 111 667.5 c 128,-1,15
 105 674 105 674 87 674 c 1,16,-1
 55 671 l 1,17,-1
 53 674 l 1,18,-1
 60 706 l 1,19,20
 97 711 97 711 210 728 c 1,21,-1
 214 713 l 1,22,23
 191 694 191 694 183 655 c 128,-1,24
 175 616 175 616 162 524.5 c 128,-1,25
 149 433 149 433 149 415 c 0,0,1
EndSplineSet
EndChar

StartChar: ordmasculine
Encoding: 186 186 123
Width: 291
GlyphClass: 2
Flags: W
LayerCount: 2
Fore
SplineSet
97 478 m 0,0,1
 97 387 97 387 145 387 c 0,2,3
 169 387 169 387 186 422 c 128,-1,4
 203 457 203 457 203 515 c 0,5,6
 203 599 203 599 159 599 c 0,7,8
 132 599 132 599 114.5 565 c 128,-1,9
 97 531 97 531 97 478 c 0,0,1
116 343 m 0,10,11
 78 343 78 343 55.5 372.5 c 128,-1,12
 33 402 33 402 33 453 c 0,13,14
 33 533 33 533 77.5 590 c 128,-1,15
 122 647 122 647 185 647 c 0,16,17
 225 647 225 647 247 620.5 c 128,-1,18
 269 594 269 594 269 546 c 0,19,20
 269 461 269 461 224.5 402 c 128,-1,21
 180 343 180 343 116 343 c 0,10,11
EndSplineSet
EndChar

StartChar: guillemotright
Encoding: 187 187 124
Width: 411
GlyphClass: 2
Flags: W
LayerCount: 2
Fore
SplineSet
228 46 m 1,0,-1
 207 61 l 1,1,-1
 208 71 l 1,2,-1
 327 220 l 1,3,-1
 245 375 l 1,4,-1
 247 385 l 1,5,-1
 271 400 l 1,6,-1
 416 234 l 1,7,-1
 414 219 l 1,8,-1
 228 46 l 1,0,-1
68 46 m 1,9,-1
 47 61 l 1,10,-1
 48 71 l 1,11,-1
 167 220 l 1,12,-1
 85 375 l 1,13,-1
 87 385 l 1,14,-1
 111 400 l 1,15,-1
 256 234 l 1,16,-1
 254 219 l 1,17,-1
 68 46 l 1,9,-1
EndSplineSet
EndChar

StartChar: onequarter
Encoding: 188 188 125
Width: 685
GlyphClass: 2
Flags: W
LayerCount: 2
Fore
SplineSet
556 659 m 1,0,-1
 561 645 l 1,1,2
 387 386 387 386 299 245 c 2,3,-1
 84 -95 l 1,4,-1
 46 -76 l 1,5,-1
 41 -64 l 1,6,7
 174 138 174 138 517 678 c 1,8,-1
 556 659 l 1,0,-1
149 331 m 0,9,10
 149 302 149 302 173 302 c 1,11,-1
 205 304 l 1,12,-1
 206 301 l 1,13,-1
 195 265 l 1,14,15
 140 267 140 267 109 267 c 1,16,-1
 19 260 l 1,17,-1
 28 295 l 1,18,19
 58 297 58 297 72 308 c 128,-1,20
 86 319 86 319 89 346 c 2,21,-1
 115 555 l 2,22,23
 117 577 117 577 111 583.5 c 128,-1,24
 105 590 105 590 87 590 c 1,25,-1
 55 587 l 1,26,-1
 53 590 l 1,27,-1
 60 622 l 1,28,29
 97 627 97 627 210 644 c 1,30,-1
 214 629 l 1,31,32
 191 610 191 610 183 571 c 128,-1,33
 175 532 175 532 162 440.5 c 128,-1,34
 149 349 149 349 149 331 c 0,9,10
384 107 m 1,35,-1
 390 141 l 1,36,-1
 582 376 l 1,37,-1
 586 377 l 1,38,-1
 625 371 l 1,39,-1
 600 152 l 1,40,-1
 652 152 l 1,41,-1
 656 145 l 1,42,-1
 645 101 l 1,43,-1
 594 103 l 1,44,-1
 586 6 l 1,45,-1
 581 0 l 1,46,-1
 519 -7 l 1,47,-1
 515 -1 l 1,48,49
 526 57 526 57 532 104 c 1,50,-1
 384 107 l 1,35,-1
547 277 m 1,51,-1
 447 152 l 1,52,-1
 538 152 l 1,53,-1
 553 277 l 1,54,-1
 547 277 l 1,51,-1
EndSplineSet
EndChar

StartChar: onehalf
Encoding: 189 189 126
Width: 713
GlyphClass: 2
Flags: W
LayerCount: 2
Fore
SplineSet
556 659 m 1,0,-1
 561 645 l 1,1,2
 387 386 387 386 299 245 c 2,3,-1
 84 -95 l 1,4,-1
 46 -76 l 1,5,-1
 41 -64 l 1,6,7
 174 138 174 138 517 678 c 1,8,-1
 556 659 l 1,0,-1
149 331 m 0,9,10
 149 302 149 302 173 302 c 1,11,-1
 205 304 l 1,12,-1
 206 301 l 1,13,-1
 195 265 l 1,14,15
 140 267 140 267 109 267 c 1,16,-1
 19 260 l 1,17,-1
 28 295 l 1,18,19
 58 297 58 297 72 308 c 128,-1,20
 86 319 86 319 89 346 c 2,21,-1
 115 555 l 2,22,23
 117 577 117 577 111 583.5 c 128,-1,24
 105 590 105 590 87 590 c 1,25,-1
 55 587 l 1,26,-1
 53 590 l 1,27,-1
 60 622 l 1,28,29
 97 627 97 627 210 644 c 1,30,-1
 214 629 l 1,31,32
 191 610 191 610 183 571 c 128,-1,33
 175 532 175 532 162 440.5 c 128,-1,34
 149 349 149 349 149 331 c 0,9,10
586 280 m 0,35,36
 586 318 586 318 538 318 c 128,-1,37
 490 318 490 318 447 256 c 1,38,-1
 439 256 l 1,39,-1
 435 297 l 1,40,41
 459 332 459 332 495 354.5 c 128,-1,42
 531 377 531 377 569.5 377 c 128,-1,43
 608 377 608 377 635 356 c 128,-1,44
 662 335 662 335 662 298.5 c 128,-1,45
 662 262 662 262 626.5 209.5 c 128,-1,46
 591 157 591 157 496 56 c 1,47,-1
 498 51 l 1,48,-1
 574 51 l 2,49,50
 605 51 605 51 618.5 62 c 128,-1,51
 632 73 632 73 644 108 c 1,52,-1
 683 112 l 1,53,54
 661 50 661 50 651 1 c 1,55,-1
 642 -5 l 1,56,57
 497 0 497 0 441 0 c 1,58,-1
 400 -7 l 1,59,-1
 396 18 l 1,60,-1
 473 95 l 1,61,62
 586 220 586 220 586 280 c 0,35,36
EndSplineSet
EndChar

StartChar: threequarters
Encoding: 190 190 127
Width: 689
GlyphClass: 2
Flags: W
LayerCount: 2
Fore
SplineSet
560 659 m 1,0,-1
 565 645 l 1,1,2
 391 386 391 386 303 245 c 2,3,-1
 88 -95 l 1,4,-1
 50 -76 l 1,5,-1
 45 -64 l 1,6,7
 178 138 178 138 521 678 c 1,8,-1
 560 659 l 1,0,-1
388 107 m 1,9,-1
 394 141 l 1,10,-1
 586 376 l 1,11,-1
 590 377 l 1,12,-1
 629 371 l 1,13,-1
 604 152 l 1,14,-1
 656 152 l 1,15,-1
 660 145 l 1,16,-1
 649 101 l 1,17,-1
 598 103 l 1,18,-1
 590 6 l 1,19,-1
 585 0 l 1,20,-1
 523 -7 l 1,21,-1
 519 -1 l 1,22,23
 530 57 530 57 536 104 c 1,24,-1
 388 107 l 1,9,-1
551 277 m 1,25,-1
 451 152 l 1,26,-1
 542 152 l 1,27,-1
 557 277 l 1,28,-1
 551 277 l 1,25,-1
30 323 m 1,29,30
 56 315 56 315 89 315 c 128,-1,31
 122 315 122 315 150.5 335.5 c 128,-1,32
 179 356 179 356 179 387 c 0,33,34
 179 439 179 439 88 439 c 1,35,-1
 83 444 l 1,36,-1
 83 476 l 1,37,-1
 125 485 l 1,38,39
 150 497 150 497 166.5 517 c 128,-1,40
 183 537 183 537 183 555 c 128,-1,41
 183 573 183 573 173 582.5 c 128,-1,42
 163 592 163 592 147 592 c 0,43,44
 110 592 110 592 74 564 c 1,45,-1
 67 564 l 1,46,-1
 61 601 l 1,47,48
 135 644 135 644 172 644 c 128,-1,49
 209 644 209 644 232 625.5 c 128,-1,50
 255 607 255 607 255 578 c 128,-1,51
 255 549 255 549 233.5 523 c 128,-1,52
 212 497 212 497 176 481 c 1,53,-1
 175 476 l 1,54,55
 249 454 249 454 249 397 c 0,56,57
 249 348 249 348 188 303.5 c 128,-1,58
 127 259 127 259 61 259 c 0,59,60
 37 259 37 259 29.5 270.5 c 128,-1,61
 22 282 22 282 22 295 c 128,-1,62
 22 308 22 308 23 316 c 1,63,-1
 30 323 l 1,29,30
EndSplineSet
EndChar

StartChar: questiondown
Encoding: 191 191 128
Width: 346
GlyphClass: 2
Flags: W
LayerCount: 2
Fore
SplineSet
61 -59 m 0,0,1
 61 -162 61 -162 240 -174 c 1,2,-1
 241 -185 l 1,3,-1
 203 -238 l 1,4,-1
 189 -242 l 1,5,6
 105 -239 105 -239 48 -196 c 128,-1,7
 -9 -153 -9 -153 -9 -90 c 0,8,9
 -9 -20 -9 -20 32 22 c 1,10,11
 55 44 55 44 71.5 57 c 128,-1,12
 88 70 88 70 124.5 92 c 128,-1,13
 161 114 161 114 176 124 c 1,14,-1
 180 133 l 1,15,-1
 172 228 l 1,16,-1
 176 236 l 1,17,-1
 238 253 l 1,18,-1
 247 249 l 1,19,-1
 255 129 l 1,20,-1
 250 115 l 1,21,-1
 127 39 l 1,22,23
 61 -4 61 -4 61 -59 c 0,0,1
188.5 443.5 m 128,-1,25
 208 464 208 464 235 464 c 128,-1,26
 262 464 262 464 274.5 449.5 c 128,-1,27
 287 435 287 435 287 410.5 c 128,-1,28
 287 386 287 386 267 365.5 c 128,-1,29
 247 345 247 345 220.5 345 c 128,-1,30
 194 345 194 345 181.5 359 c 128,-1,31
 169 373 169 373 169 398 c 128,-1,24
 169 423 169 423 188.5 443.5 c 128,-1,25
EndSplineSet
EndChar

StartChar: Agrave
Encoding: 192 192 129
Width: 558
GlyphClass: 2
Flags: W
LayerCount: 2
Fore
SplineSet
287 -10 m 1,0,-1
 285 -3 l 1,1,-1
 293 33 l 1,2,3
 348 37 348 37 366.5 47 c 128,-1,4
 385 57 385 57 385 83 c 0,5,6
 385 96 385 96 363 234 c 1,7,8
 339 235 339 235 279.5 235 c 128,-1,9
 220 235 220 235 156 227 c 1,10,-1
 107 119 l 2,11,12
 93 90 93 90 93 73 c 0,13,14
 93 37 93 37 146 37 c 2,15,-1
 202 37 l 1,16,-1
 202 34 l 1,17,-1
 192 -7 l 1,18,19
 124 0 124 0 60 0 c 1,20,-1
 -45 -3 l 1,21,-1
 -32 42 l 1,22,23
 -3 45 -3 45 15.5 61.5 c 128,-1,24
 34 78 34 78 54 120 c 2,25,-1
 302 631 l 1,26,-1
 358 648 l 1,27,-1
 366 649 l 1,28,29
 410 342 410 342 456 111 c 0,30,31
 463 73 463 73 480.5 58.5 c 128,-1,32
 498 44 498 44 540 39 c 1,33,-1
 542 36 l 1,34,-1
 531 -3 l 1,35,36
 462 0 462 0 413.5 0 c 128,-1,37
 365 0 365 0 287 -10 c 1,0,-1
264 271 m 2,38,39
 311 271 311 271 355 277 c 1,40,-1
 311 544 l 1,41,-1
 304 544 l 1,42,-1
 179 271 l 1,43,-1
 264 271 l 2,38,39
209 777 m 1,44,-1
 205 787 l 1,45,-1
 221 835 l 1,46,-1
 230 841 l 1,47,48
 335 781 335 781 429 732 c 1,49,-1
 423 708 l 1,50,-1
 415 703 l 1,51,-1
 209 777 l 1,44,-1
EndSplineSet
EndChar

StartChar: Aacute
Encoding: 193 193 130
Width: 558
GlyphClass: 2
Flags: W
LayerCount: 2
Fore
SplineSet
287 -10 m 1,0,-1
 285 -3 l 1,1,-1
 293 33 l 1,2,3
 348 37 348 37 366.5 47 c 128,-1,4
 385 57 385 57 385 83 c 0,5,6
 385 96 385 96 363 234 c 1,7,8
 339 235 339 235 279.5 235 c 128,-1,9
 220 235 220 235 156 227 c 1,10,-1
 107 119 l 2,11,12
 93 90 93 90 93 73 c 0,13,14
 93 37 93 37 146 37 c 2,15,-1
 202 37 l 1,16,-1
 202 34 l 1,17,-1
 192 -7 l 1,18,19
 124 0 124 0 60 0 c 1,20,-1
 -45 -3 l 1,21,-1
 -32 42 l 1,22,23
 -3 45 -3 45 15.5 61.5 c 128,-1,24
 34 78 34 78 54 120 c 2,25,-1
 302 631 l 1,26,-1
 358 648 l 1,27,-1
 366 649 l 1,28,29
 410 342 410 342 456 111 c 0,30,31
 463 73 463 73 480.5 58.5 c 128,-1,32
 498 44 498 44 540 39 c 1,33,-1
 542 36 l 1,34,-1
 531 -3 l 1,35,36
 462 0 462 0 413.5 0 c 128,-1,37
 365 0 365 0 287 -10 c 1,0,-1
264 271 m 2,38,39
 311 271 311 271 355 277 c 1,40,-1
 311 544 l 1,41,-1
 304 544 l 1,42,-1
 179 271 l 1,43,-1
 264 271 l 2,38,39
512 787 m 1,44,-1
 508 777 l 1,45,46
 407 743 407 743 302 703 c 1,47,-1
 294 708 l 1,48,-1
 288 732 l 1,49,-1
 487 841 l 1,50,-1
 496 835 l 1,51,-1
 512 787 l 1,44,-1
EndSplineSet
EndChar

StartChar: Acircumflex
Encoding: 194 194 131
Width: 558
GlyphClass: 2
Flags: W
LayerCount: 2
Fore
SplineSet
287 -10 m 1,0,-1
 285 -3 l 1,1,-1
 293 33 l 1,2,3
 348 37 348 37 366.5 47 c 128,-1,4
 385 57 385 57 385 83 c 0,5,6
 385 96 385 96 363 234 c 1,7,8
 339 235 339 235 279.5 235 c 128,-1,9
 220 235 220 235 156 227 c 1,10,-1
 107 119 l 2,11,12
 93 90 93 90 93 73 c 0,13,14
 93 37 93 37 146 37 c 2,15,-1
 202 37 l 1,16,-1
 202 34 l 1,17,-1
 192 -7 l 1,18,19
 124 0 124 0 60 0 c 1,20,-1
 -45 -3 l 1,21,-1
 -32 42 l 1,22,23
 -3 45 -3 45 15.5 61.5 c 128,-1,24
 34 78 34 78 54 120 c 2,25,-1
 302 631 l 1,26,-1
 358 648 l 1,27,-1
 366 649 l 1,28,29
 410 342 410 342 456 111 c 0,30,31
 463 73 463 73 480.5 58.5 c 128,-1,32
 498 44 498 44 540 39 c 1,33,-1
 542 36 l 1,34,-1
 531 -3 l 1,35,36
 462 0 462 0 413.5 0 c 128,-1,37
 365 0 365 0 287 -10 c 1,0,-1
264 271 m 2,38,39
 311 271 311 271 355 277 c 1,40,-1
 311 544 l 1,41,-1
 304 544 l 1,42,-1
 179 271 l 1,43,-1
 264 271 l 2,38,39
221 713 m 1,44,-1
 210 735 l 1,45,-1
 357 846 l 1,46,-1
 371 846 l 1,47,-1
 491 735 l 1,48,-1
 474 713 l 1,49,-1
 465 712 l 1,50,-1
 355 777 l 1,51,-1
 230 712 l 1,52,-1
 221 713 l 1,44,-1
EndSplineSet
EndChar

StartChar: Atilde
Encoding: 195 195 132
Width: 558
GlyphClass: 2
Flags: W
LayerCount: 2
Fore
SplineSet
287 -10 m 1,0,-1
 285 -3 l 1,1,-1
 293 33 l 1,2,3
 348 37 348 37 366.5 47 c 128,-1,4
 385 57 385 57 385 83 c 0,5,6
 385 96 385 96 363 234 c 1,7,8
 339 235 339 235 279.5 235 c 128,-1,9
 220 235 220 235 156 227 c 1,10,-1
 107 119 l 2,11,12
 93 90 93 90 93 73 c 0,13,14
 93 37 93 37 146 37 c 2,15,-1
 202 37 l 1,16,-1
 202 34 l 1,17,-1
 192 -7 l 1,18,19
 124 0 124 0 60 0 c 1,20,-1
 -45 -3 l 1,21,-1
 -32 42 l 1,22,23
 -3 45 -3 45 15.5 61.5 c 128,-1,24
 34 78 34 78 54 120 c 2,25,-1
 302 631 l 1,26,-1
 358 648 l 1,27,-1
 366 649 l 1,28,29
 410 342 410 342 456 111 c 0,30,31
 463 73 463 73 480.5 58.5 c 128,-1,32
 498 44 498 44 540 39 c 1,33,-1
 542 36 l 1,34,-1
 531 -3 l 1,35,36
 462 0 462 0 413.5 0 c 128,-1,37
 365 0 365 0 287 -10 c 1,0,-1
264 271 m 2,38,39
 311 271 311 271 355 277 c 1,40,-1
 311 544 l 1,41,-1
 304 544 l 1,42,-1
 179 271 l 1,43,-1
 264 271 l 2,38,39
360.5 791.5 m 128,-1,45
 414 775 414 775 426 775 c 0,46,47
 446 775 446 775 493 820 c 1,48,-1
 499 820 l 1,49,-1
 518 799 l 1,50,-1
 518 794 l 1,51,-1
 435 715 l 1,52,-1
 419 711 l 1,53,54
 402 711 402 711 349 727.5 c 128,-1,55
 296 744 296 744 284 744 c 0,56,57
 262 744 262 744 228 710 c 2,58,-1
 217 699 l 1,59,-1
 211 699 l 1,60,-1
 191 720 l 1,61,-1
 192 725 l 1,62,-1
 275 804 l 1,63,-1
 290 808 l 1,64,44
 307 808 307 808 360.5 791.5 c 128,-1,45
EndSplineSet
EndChar

StartChar: Adieresis
Encoding: 196 196 133
Width: 558
GlyphClass: 2
Flags: W
LayerCount: 2
Fore
SplineSet
287 -10 m 1,0,-1
 285 -3 l 1,1,-1
 293 33 l 1,2,3
 348 37 348 37 366.5 47 c 128,-1,4
 385 57 385 57 385 83 c 0,5,6
 385 96 385 96 363 234 c 1,7,8
 339 235 339 235 279.5 235 c 128,-1,9
 220 235 220 235 156 227 c 1,10,-1
 107 119 l 2,11,12
 93 90 93 90 93 73 c 0,13,14
 93 37 93 37 146 37 c 2,15,-1
 202 37 l 1,16,-1
 202 34 l 1,17,-1
 192 -7 l 1,18,19
 124 0 124 0 60 0 c 1,20,-1
 -45 -3 l 1,21,-1
 -32 42 l 1,22,23
 -3 45 -3 45 15.5 61.5 c 128,-1,24
 34 78 34 78 54 120 c 2,25,-1
 302 631 l 1,26,-1
 358 648 l 1,27,-1
 366 649 l 1,28,29
 410 342 410 342 456 111 c 0,30,31
 463 73 463 73 480.5 58.5 c 128,-1,32
 498 44 498 44 540 39 c 1,33,-1
 542 36 l 1,34,-1
 531 -3 l 1,35,36
 462 0 462 0 413.5 0 c 128,-1,37
 365 0 365 0 287 -10 c 1,0,-1
264 271 m 2,38,39
 311 271 311 271 355 277 c 1,40,-1
 311 544 l 1,41,-1
 304 544 l 1,42,-1
 179 271 l 1,43,-1
 264 271 l 2,38,39
463.5 741.5 m 128,-1,45
 447 725 447 725 427 725 c 0,46,47
 389 725 389 725 389 763 c 0,48,49
 389 785 389 785 405.5 801.5 c 128,-1,50
 422 818 422 818 441.5 818 c 128,-1,51
 461 818 461 818 470.5 807 c 128,-1,52
 480 796 480 796 480 777 c 128,-1,44
 480 758 480 758 463.5 741.5 c 128,-1,45
303.5 741.5 m 128,-1,54
 287 725 287 725 267 725 c 0,55,56
 229 725 229 725 229 763 c 0,57,58
 229 785 229 785 245 801.5 c 128,-1,59
 261 818 261 818 281 818 c 128,-1,60
 301 818 301 818 310.5 807 c 128,-1,61
 320 796 320 796 320 777 c 128,-1,53
 320 758 320 758 303.5 741.5 c 128,-1,54
EndSplineSet
EndChar

StartChar: Aring
Encoding: 197 197 134
Width: 558
GlyphClass: 2
Flags: W
LayerCount: 2
Fore
SplineSet
287 -10 m 1,0,-1
 285 -3 l 1,1,-1
 293 33 l 1,2,3
 348 37 348 37 366.5 47 c 128,-1,4
 385 57 385 57 385 83 c 0,5,6
 385 96 385 96 363 234 c 1,7,8
 339 235 339 235 279.5 235 c 128,-1,9
 220 235 220 235 156 227 c 1,10,-1
 107 119 l 2,11,12
 93 90 93 90 93 73 c 0,13,14
 93 37 93 37 146 37 c 2,15,-1
 202 37 l 1,16,-1
 202 34 l 1,17,-1
 192 -7 l 1,18,19
 124 0 124 0 60 0 c 1,20,-1
 -45 -3 l 1,21,-1
 -32 42 l 1,22,23
 -3 45 -3 45 15.5 61.5 c 128,-1,24
 34 78 34 78 54 120 c 2,25,-1
 302 631 l 1,26,-1
 358 648 l 1,27,-1
 366 649 l 1,28,29
 410 342 410 342 456 111 c 0,30,31
 463 73 463 73 480.5 58.5 c 128,-1,32
 498 44 498 44 540 39 c 1,33,-1
 542 36 l 1,34,-1
 531 -3 l 1,35,36
 462 0 462 0 413.5 0 c 128,-1,37
 365 0 365 0 287 -10 c 1,0,-1
264 271 m 2,38,39
 311 271 311 271 355 277 c 1,40,-1
 311 544 l 1,41,-1
 304 544 l 1,42,-1
 179 271 l 1,43,-1
 264 271 l 2,38,39
349 712 m 0,44,45
 397 712 397 712 397 757 c 0,46,47
 397 799 397 799 353 799 c 0,48,49
 331 799 331 799 318.5 787 c 128,-1,50
 306 775 306 775 306 754 c 128,-1,51
 306 733 306 733 319.5 722.5 c 128,-1,52
 333 712 333 712 349 712 c 0,44,45
405.5 703.5 m 128,-1,54
 379 674 379 674 343 674 c 128,-1,55
 307 674 307 674 290 692.5 c 128,-1,56
 273 711 273 711 273 747 c 128,-1,57
 273 783 273 783 299.5 810.5 c 128,-1,58
 326 838 326 838 363 838 c 128,-1,59
 400 838 400 838 416 819 c 128,-1,60
 432 800 432 800 432 766.5 c 128,-1,53
 432 733 432 733 405.5 703.5 c 128,-1,54
EndSplineSet
EndChar

StartChar: AE
Encoding: 198 198 135
Width: 778
GlyphClass: 2
Flags: W
LayerCount: 2
Fore
SplineSet
367 117 m 2,0,-1
 367 153 l 1,1,-1
 365 277 l 1,2,-1
 180 260 l 1,3,-1
 96 120 l 2,4,5
 75 85 75 85 75 68.5 c 128,-1,6
 75 52 75 52 86 45.5 c 128,-1,7
 97 39 97 39 124 39 c 2,8,-1
 178 39 l 1,9,-1
 167 -7 l 1,10,11
 96 0 96 0 35 0 c 1,12,-1
 -31 -4 l 1,13,-1
 -33 30 l 1,14,15
 3 65 3 65 38 121 c 2,16,-1
 329 579 l 1,17,18
 326 595 326 595 307 595 c 1,19,-1
 274 593 l 1,20,-1
 272 597 l 1,21,-1
 285 640 l 2,22,23
 285 637 285 637 467.5 637 c 128,-1,24
 650 637 650 637 726 649 c 1,25,-1
 728 643 l 1,26,27
 703 570 703 570 686 478 c 1,28,-1
 639 474 l 1,29,30
 648 512 648 512 648 541 c 128,-1,31
 648 570 648 570 621.5 579 c 128,-1,32
 595 588 595 588 527 588 c 128,-1,33
 459 588 459 588 446 581.5 c 128,-1,34
 433 575 433 575 433 557 c 2,35,-1
 435 327 l 1,36,-1
 551 338 l 1,37,-1
 641 351 l 1,38,-1
 645 346 l 1,39,-1
 626 294 l 1,40,-1
 543 292 l 1,41,-1
 435 283 l 1,42,-1
 441 112 l 2,43,44
 442 75 442 75 458.5 59.5 c 128,-1,45
 475 44 475 44 517.5 44 c 128,-1,46
 560 44 560 44 585 46.5 c 128,-1,47
 610 49 610 49 630.5 55 c 128,-1,48
 651 61 651 61 662 76 c 0,49,50
 685 105 685 105 700 166 c 1,51,-1
 744 171 l 1,52,-1
 747 166 l 1,53,54
 719 83 719 83 700 -1 c 1,55,-1
 695 -7 l 2,56,57
 697 -5 697 -5 574 -2.5 c 128,-1,58
 451 0 451 0 411 0 c 0,59,60
 339 0 339 0 261 -10 c 1,61,-1
 260 -3 l 1,62,-1
 266 35 l 1,63,64
 313 38 313 38 340 60 c 128,-1,65
 367 82 367 82 367 117 c 2,0,-1
213 310 m 1,66,-1
 364 321 l 1,67,-1
 363 540 l 1,68,-1
 354 540 l 1,69,-1
 213 310 l 1,66,-1
EndSplineSet
EndChar

StartChar: Ccedilla
Encoding: 199 199 136
Width: 603
GlyphClass: 2
Flags: W
LayerCount: 2
Fore
SplineSet
45 253 m 0,0,1
 45 421 45 421 152 534.5 c 128,-1,2
 259 648 259 648 417 648 c 0,3,4
 483 648 483 648 590 625 c 1,5,-1
 593 619 l 1,6,7
 565 545 565 545 548 455 c 1,8,-1
 505 451 l 1,9,10
 514 490 514 490 514 510 c 0,11,12
 514 594 514 594 383 594 c 0,13,14
 272 594 272 594 202 507.5 c 128,-1,15
 132 421 132 421 132 282 c 0,16,17
 132 168 132 168 183 100.5 c 128,-1,18
 234 33 234 33 322 33 c 0,19,20
 452 33 452 33 508 193 c 1,21,-1
 551 197 l 1,22,23
 520 107 520 107 505 37 c 1,24,-1
 499 28 l 1,25,26
 430 -7 430 -7 325 -11 c 1,27,-1
 308 -50 l 1,28,29
 329 -64 329 -64 346 -80 c 128,-1,30
 363 -96 363 -96 368 -102 c 1,31,32
 380 -121 380 -121 380 -135 c 0,33,34
 380 -173 380 -173 338 -203 c 128,-1,35
 296 -233 296 -233 252 -233 c 0,36,37
 229 -233 229 -233 209.5 -223.5 c 128,-1,38
 190 -214 190 -214 190 -198.5 c 128,-1,39
 190 -183 190 -183 222 -141 c 1,40,-1
 230 -141 l 1,41,42
 230 -145 230 -145 230 -157.5 c 128,-1,43
 230 -170 230 -170 241.5 -184 c 128,-1,44
 253 -198 253 -198 275 -198 c 128,-1,45
 297 -198 297 -198 312 -186.5 c 128,-1,46
 327 -175 327 -175 327 -158 c 0,47,48
 327 -132 327 -132 254 -85 c 1,49,-1
 284 -11 l 1,50,51
 175 -4 175 -4 110 67 c 128,-1,52
 45 138 45 138 45 253 c 0,0,1
EndSplineSet
EndChar

StartChar: Egrave
Encoding: 200 200 137
Width: 568
GlyphClass: 2
Flags: W
LayerCount: 2
Fore
SplineSet
225 352 m 1,0,-1
 324 351 l 1,1,-1
 442 362 l 1,2,-1
 445 358 l 1,3,-1
 425 302 l 1,4,5
 343 305 343 305 298 305 c 128,-1,6
 253 305 253 305 216 298 c 1,7,8
 210 257 210 257 202 204 c 0,9,10
 185 100 185 100 185 77.5 c 128,-1,11
 185 55 185 55 199 48 c 128,-1,12
 213 41 213 41 266 41 c 128,-1,13
 319 41 319 41 350 44 c 128,-1,14
 381 47 381 47 404.5 61.5 c 128,-1,15
 428 76 428 76 437.5 97.5 c 128,-1,16
 447 119 447 119 459 164 c 1,17,-1
 500 169 l 1,18,-1
 502 164 l 1,19,20
 474 82 474 82 455 -2 c 1,21,-1
 450 -7 l 1,22,23
 251 0 251 0 190 0 c 0,24,25
 97 0 97 0 29 -10 c 1,26,-1
 40 33 l 1,27,28
 84 39 84 39 102 56.5 c 128,-1,29
 120 74 120 74 125 117 c 0,30,31
 180 556 180 556 180 567.5 c 128,-1,32
 180 579 180 579 175.5 587.5 c 128,-1,33
 171 596 171 596 149 596 c 1,34,-1
 116 594 l 1,35,-1
 115 597 l 1,36,-1
 126 639 l 1,37,38
 200 636 200 636 330.5 636 c 128,-1,39
 461 636 461 636 546 648 c 1,40,-1
 548 643 l 1,41,42
 523 571 523 571 506 479 c 1,43,-1
 462 475 l 1,44,45
 471 514 471 514 471 543.5 c 128,-1,46
 471 573 471 573 445.5 581.5 c 128,-1,47
 420 590 420 590 350.5 590 c 128,-1,48
 281 590 281 590 270.5 584.5 c 128,-1,49
 260 579 260 579 256 551 c 2,50,-1
 225 352 l 1,0,-1
224 777 m 1,51,-1
 220 787 l 1,52,-1
 236 835 l 1,53,-1
 245 841 l 1,54,55
 350 781 350 781 444 732 c 1,56,-1
 438 708 l 1,57,-1
 430 703 l 1,58,-1
 224 777 l 1,51,-1
EndSplineSet
EndChar

StartChar: Eacute
Encoding: 201 201 138
Width: 568
GlyphClass: 2
Flags: W
LayerCount: 2
Fore
SplineSet
225 352 m 1,0,-1
 324 351 l 1,1,-1
 442 362 l 1,2,-1
 445 358 l 1,3,-1
 425 302 l 1,4,5
 343 305 343 305 298 305 c 128,-1,6
 253 305 253 305 216 298 c 1,7,8
 210 257 210 257 202 204 c 0,9,10
 185 100 185 100 185 77.5 c 128,-1,11
 185 55 185 55 199 48 c 128,-1,12
 213 41 213 41 266 41 c 128,-1,13
 319 41 319 41 350 44 c 128,-1,14
 381 47 381 47 404.5 61.5 c 128,-1,15
 428 76 428 76 437.5 97.5 c 128,-1,16
 447 119 447 119 459 164 c 1,17,-1
 500 169 l 1,18,-1
 502 164 l 1,19,20
 474 82 474 82 455 -2 c 1,21,-1
 450 -7 l 1,22,23
 251 0 251 0 190 0 c 0,24,25
 97 0 97 0 29 -10 c 1,26,-1
 40 33 l 1,27,28
 84 39 84 39 102 56.5 c 128,-1,29
 120 74 120 74 125 117 c 0,30,31
 180 556 180 556 180 567.5 c 128,-1,32
 180 579 180 579 175.5 587.5 c 128,-1,33
 171 596 171 596 149 596 c 1,34,-1
 116 594 l 1,35,-1
 115 597 l 1,36,-1
 126 639 l 1,37,38
 200 636 200 636 330.5 636 c 128,-1,39
 461 636 461 636 546 648 c 1,40,-1
 548 643 l 1,41,42
 523 571 523 571 506 479 c 1,43,-1
 462 475 l 1,44,45
 471 514 471 514 471 543.5 c 128,-1,46
 471 573 471 573 445.5 581.5 c 128,-1,47
 420 590 420 590 350.5 590 c 128,-1,48
 281 590 281 590 270.5 584.5 c 128,-1,49
 260 579 260 579 256 551 c 2,50,-1
 225 352 l 1,0,-1
485 787 m 1,51,-1
 481 777 l 1,52,53
 380 743 380 743 275 703 c 1,54,-1
 267 708 l 1,55,-1
 261 732 l 1,56,-1
 460 841 l 1,57,-1
 469 835 l 1,58,-1
 485 787 l 1,51,-1
EndSplineSet
EndChar

StartChar: Ecircumflex
Encoding: 202 202 139
Width: 568
GlyphClass: 2
Flags: W
LayerCount: 2
Fore
SplineSet
225 352 m 1,0,-1
 324 351 l 1,1,-1
 442 362 l 1,2,-1
 445 358 l 1,3,-1
 425 302 l 1,4,5
 343 305 343 305 298 305 c 128,-1,6
 253 305 253 305 216 298 c 1,7,8
 210 257 210 257 202 204 c 0,9,10
 185 100 185 100 185 77.5 c 128,-1,11
 185 55 185 55 199 48 c 128,-1,12
 213 41 213 41 266 41 c 128,-1,13
 319 41 319 41 350 44 c 128,-1,14
 381 47 381 47 404.5 61.5 c 128,-1,15
 428 76 428 76 437.5 97.5 c 128,-1,16
 447 119 447 119 459 164 c 1,17,-1
 500 169 l 1,18,-1
 502 164 l 1,19,20
 474 82 474 82 455 -2 c 1,21,-1
 450 -7 l 1,22,23
 251 0 251 0 190 0 c 0,24,25
 97 0 97 0 29 -10 c 1,26,-1
 40 33 l 1,27,28
 84 39 84 39 102 56.5 c 128,-1,29
 120 74 120 74 125 117 c 0,30,31
 180 556 180 556 180 567.5 c 128,-1,32
 180 579 180 579 175.5 587.5 c 128,-1,33
 171 596 171 596 149 596 c 1,34,-1
 116 594 l 1,35,-1
 115 597 l 1,36,-1
 126 639 l 1,37,38
 200 636 200 636 330.5 636 c 128,-1,39
 461 636 461 636 546 648 c 1,40,-1
 548 643 l 1,41,42
 523 571 523 571 506 479 c 1,43,-1
 462 475 l 1,44,45
 471 514 471 514 471 543.5 c 128,-1,46
 471 573 471 573 445.5 581.5 c 128,-1,47
 420 590 420 590 350.5 590 c 128,-1,48
 281 590 281 590 270.5 584.5 c 128,-1,49
 260 579 260 579 256 551 c 2,50,-1
 225 352 l 1,0,-1
236 713 m 1,51,-1
 225 735 l 1,52,-1
 372 846 l 1,53,-1
 386 846 l 1,54,-1
 506 735 l 1,55,-1
 489 713 l 1,56,-1
 480 712 l 1,57,-1
 370 777 l 1,58,-1
 245 712 l 1,59,-1
 236 713 l 1,51,-1
EndSplineSet
EndChar

StartChar: Edieresis
Encoding: 203 203 140
Width: 568
GlyphClass: 2
Flags: W
LayerCount: 2
Fore
SplineSet
225 352 m 1,0,-1
 324 351 l 1,1,-1
 442 362 l 1,2,-1
 445 358 l 1,3,-1
 425 302 l 1,4,5
 343 305 343 305 298 305 c 128,-1,6
 253 305 253 305 216 298 c 1,7,8
 210 257 210 257 202 204 c 0,9,10
 185 100 185 100 185 77.5 c 128,-1,11
 185 55 185 55 199 48 c 128,-1,12
 213 41 213 41 266 41 c 128,-1,13
 319 41 319 41 350 44 c 128,-1,14
 381 47 381 47 404.5 61.5 c 128,-1,15
 428 76 428 76 437.5 97.5 c 128,-1,16
 447 119 447 119 459 164 c 1,17,-1
 500 169 l 1,18,-1
 502 164 l 1,19,20
 474 82 474 82 455 -2 c 1,21,-1
 450 -7 l 1,22,23
 251 0 251 0 190 0 c 0,24,25
 97 0 97 0 29 -10 c 1,26,-1
 40 33 l 1,27,28
 84 39 84 39 102 56.5 c 128,-1,29
 120 74 120 74 125 117 c 0,30,31
 180 556 180 556 180 567.5 c 128,-1,32
 180 579 180 579 175.5 587.5 c 128,-1,33
 171 596 171 596 149 596 c 1,34,-1
 116 594 l 1,35,-1
 115 597 l 1,36,-1
 126 639 l 1,37,38
 200 636 200 636 330.5 636 c 128,-1,39
 461 636 461 636 546 648 c 1,40,-1
 548 643 l 1,41,42
 523 571 523 571 506 479 c 1,43,-1
 462 475 l 1,44,45
 471 514 471 514 471 543.5 c 128,-1,46
 471 573 471 573 445.5 581.5 c 128,-1,47
 420 590 420 590 350.5 590 c 128,-1,48
 281 590 281 590 270.5 584.5 c 128,-1,49
 260 579 260 579 256 551 c 2,50,-1
 225 352 l 1,0,-1
478.5 741.5 m 128,-1,52
 462 725 462 725 442 725 c 0,53,54
 404 725 404 725 404 763 c 0,55,56
 404 785 404 785 420.5 801.5 c 128,-1,57
 437 818 437 818 456.5 818 c 128,-1,58
 476 818 476 818 485.5 807 c 128,-1,59
 495 796 495 796 495 777 c 128,-1,51
 495 758 495 758 478.5 741.5 c 128,-1,52
318.5 741.5 m 128,-1,61
 302 725 302 725 282 725 c 0,62,63
 244 725 244 725 244 763 c 0,64,65
 244 785 244 785 260 801.5 c 128,-1,66
 276 818 276 818 296 818 c 128,-1,67
 316 818 316 818 325.5 807 c 128,-1,68
 335 796 335 796 335 777 c 128,-1,60
 335 758 335 758 318.5 741.5 c 128,-1,61
EndSplineSet
EndChar

StartChar: Igrave
Encoding: 204 204 141
Width: 347
GlyphClass: 2
Flags: W
LayerCount: 2
Fore
SplineSet
123 640 m 1,0,-1
 214 636 l 1,1,-1
 232 636 l 2,2,3
 272 636 272 636 342 646 c 1,4,-1
 332 603 l 1,5,6
 291 598 291 598 275.5 586 c 128,-1,7
 260 574 260 574 256 546 c 0,8,9
 186 140 186 140 186 85 c 0,10,11
 186 61 186 61 194.5 51.5 c 128,-1,12
 203 42 203 42 223 42 c 1,13,-1
 274 45 l 1,14,-1
 276 41 l 1,15,-1
 262 -3 l 1,16,17
 183 0 183 0 150 0 c 0,18,19
 94 0 94 0 26 -12 c 1,20,-1
 38 31 l 1,21,22
 84 40 84 40 102.5 58 c 128,-1,23
 121 76 121 76 126 118 c 0,24,25
 180 555 180 555 180 566.5 c 128,-1,26
 180 578 180 578 175 587 c 128,-1,27
 170 596 170 596 149 596 c 1,28,-1
 108 594 l 1,29,30
 107 596 107 596 107 597 c 2,31,-1
 119 640 l 1,32,-1
 123 640 l 1,0,-1
98 777 m 1,33,-1
 94 787 l 1,34,-1
 110 835 l 1,35,-1
 119 841 l 1,36,37
 224 781 224 781 318 732 c 1,38,-1
 312 708 l 1,39,-1
 304 703 l 1,40,-1
 98 777 l 1,33,-1
EndSplineSet
EndChar

StartChar: Iacute
Encoding: 205 205 142
Width: 347
GlyphClass: 2
Flags: W
LayerCount: 2
Fore
SplineSet
123 640 m 1,0,-1
 214 636 l 1,1,-1
 232 636 l 2,2,3
 272 636 272 636 342 646 c 1,4,-1
 332 603 l 1,5,6
 291 598 291 598 275.5 586 c 128,-1,7
 260 574 260 574 256 546 c 0,8,9
 186 140 186 140 186 85 c 0,10,11
 186 61 186 61 194.5 51.5 c 128,-1,12
 203 42 203 42 223 42 c 1,13,-1
 274 45 l 1,14,-1
 276 41 l 1,15,-1
 262 -3 l 1,16,17
 183 0 183 0 150 0 c 0,18,19
 94 0 94 0 26 -12 c 1,20,-1
 38 31 l 1,21,22
 84 40 84 40 102.5 58 c 128,-1,23
 121 76 121 76 126 118 c 0,24,25
 180 555 180 555 180 566.5 c 128,-1,26
 180 578 180 578 175 587 c 128,-1,27
 170 596 170 596 149 596 c 1,28,-1
 108 594 l 1,29,30
 107 596 107 596 107 597 c 2,31,-1
 119 640 l 1,32,-1
 123 640 l 1,0,-1
391 787 m 1,33,-1
 387 777 l 1,34,35
 286 743 286 743 181 703 c 1,36,-1
 173 708 l 1,37,-1
 167 732 l 1,38,-1
 366 841 l 1,39,-1
 375 835 l 1,40,-1
 391 787 l 1,33,-1
EndSplineSet
EndChar

StartChar: Icircumflex
Encoding: 206 206 143
Width: 347
GlyphClass: 2
Flags: W
LayerCount: 2
Fore
SplineSet
123 640 m 1,0,-1
 214 636 l 1,1,-1
 232 636 l 2,2,3
 272 636 272 636 342 646 c 1,4,-1
 332 603 l 1,5,6
 291 598 291 598 275.5 586 c 128,-1,7
 260 574 260 574 256 546 c 0,8,9
 186 140 186 140 186 85 c 0,10,11
 186 61 186 61 194.5 51.5 c 128,-1,12
 203 42 203 42 223 42 c 1,13,-1
 274 45 l 1,14,-1
 276 41 l 1,15,-1
 262 -3 l 1,16,17
 183 0 183 0 150 0 c 0,18,19
 94 0 94 0 26 -12 c 1,20,-1
 38 31 l 1,21,22
 84 40 84 40 102.5 58 c 128,-1,23
 121 76 121 76 126 118 c 0,24,25
 180 555 180 555 180 566.5 c 128,-1,26
 180 578 180 578 175 587 c 128,-1,27
 170 596 170 596 149 596 c 1,28,-1
 108 594 l 1,29,30
 107 596 107 596 107 597 c 2,31,-1
 119 640 l 1,32,-1
 123 640 l 1,0,-1
110 713 m 1,33,-1
 99 735 l 1,34,-1
 246 846 l 1,35,-1
 260 846 l 1,36,-1
 380 735 l 1,37,-1
 363 713 l 1,38,-1
 354 712 l 1,39,-1
 244 777 l 1,40,-1
 119 712 l 1,41,-1
 110 713 l 1,33,-1
EndSplineSet
EndChar

StartChar: Idieresis
Encoding: 207 207 144
Width: 347
GlyphClass: 2
Flags: W
LayerCount: 2
Fore
SplineSet
123 640 m 1,0,-1
 214 636 l 1,1,-1
 232 636 l 2,2,3
 272 636 272 636 342 646 c 1,4,-1
 332 603 l 1,5,6
 291 598 291 598 275.5 586 c 128,-1,7
 260 574 260 574 256 546 c 0,8,9
 186 140 186 140 186 85 c 0,10,11
 186 61 186 61 194.5 51.5 c 128,-1,12
 203 42 203 42 223 42 c 1,13,-1
 274 45 l 1,14,-1
 276 41 l 1,15,-1
 262 -3 l 1,16,17
 183 0 183 0 150 0 c 0,18,19
 94 0 94 0 26 -12 c 1,20,-1
 38 31 l 1,21,22
 84 40 84 40 102.5 58 c 128,-1,23
 121 76 121 76 126 118 c 0,24,25
 180 555 180 555 180 566.5 c 128,-1,26
 180 578 180 578 175 587 c 128,-1,27
 170 596 170 596 149 596 c 1,28,-1
 108 594 l 1,29,30
 107 596 107 596 107 597 c 2,31,-1
 119 640 l 1,32,-1
 123 640 l 1,0,-1
352.5 741.5 m 128,-1,34
 336 725 336 725 316 725 c 0,35,36
 278 725 278 725 278 763 c 0,37,38
 278 785 278 785 294.5 801.5 c 128,-1,39
 311 818 311 818 330.5 818 c 128,-1,40
 350 818 350 818 359.5 807 c 128,-1,41
 369 796 369 796 369 777 c 128,-1,33
 369 758 369 758 352.5 741.5 c 128,-1,34
192.5 741.5 m 128,-1,43
 176 725 176 725 156 725 c 0,44,45
 118 725 118 725 118 763 c 0,46,47
 118 785 118 785 134 801.5 c 128,-1,48
 150 818 150 818 170 818 c 128,-1,49
 190 818 190 818 199.5 807 c 128,-1,50
 209 796 209 796 209 777 c 128,-1,42
 209 758 209 758 192.5 741.5 c 128,-1,43
EndSplineSet
EndChar

StartChar: Eth
Encoding: 208 208 145
Width: 684
GlyphClass: 2
Flags: W
LayerCount: 2
Fore
SplineSet
296 -12 m 1,0,1
 198 0 198 0 164 0 c 0,2,3
 108 0 108 0 38 -12 c 1,4,-1
 49 31 l 1,5,6
 95 40 95 40 113 57.5 c 128,-1,7
 131 75 131 75 136 117 c 2,8,-1
 159 304 l 1,9,-1
 26 304 l 1,10,-1
 20 311 l 1,11,-1
 31 343 l 1,12,-1
 164 343 l 1,13,14
 190 556 190 556 190 567.5 c 128,-1,15
 190 579 190 579 185.5 587.5 c 128,-1,16
 181 596 181 596 160 596 c 1,17,-1
 126 594 l 1,18,-1
 125 598 l 1,19,-1
 136 639 l 1,20,21
 199 636 199 636 236 636 c 1,22,-1
 372 640 l 1,23,24
 501 640 501 640 582 566.5 c 128,-1,25
 663 493 663 493 663 382.5 c 128,-1,26
 663 272 663 272 613.5 182.5 c 128,-1,27
 564 93 564 93 479.5 40.5 c 128,-1,28
 395 -12 395 -12 296 -12 c 1,0,1
308 596 m 0,29,30
 288 596 288 596 281 591.5 c 128,-1,31
 274 587 274 587 272 574 c 2,32,-1
 234 343 l 1,33,-1
 396 343 l 1,34,-1
 400 336 l 1,35,-1
 390 304 l 1,36,-1
 228 304 l 1,37,38
 201 131 201 131 201 107 c 0,39,40
 201 65 201 65 225.5 50 c 128,-1,41
 250 35 250 35 315 35 c 0,42,43
 433 35 433 35 505 124 c 128,-1,44
 577 213 577 213 577 356 c 0,45,46
 577 471 577 471 508 533.5 c 128,-1,47
 439 596 439 596 308 596 c 0,29,30
EndSplineSet
EndChar

StartChar: Ntilde
Encoding: 209 209 146
Width: 691
GlyphClass: 2
Flags: W
LayerCount: 2
Fore
SplineSet
102 602 m 1,0,-1
 101 607 l 1,1,-1
 112 641 l 1,2,3
 167 636 167 636 193 636 c 1,4,-1
 255 640 l 1,5,6
 380 388 380 388 520 134 c 1,7,-1
 524 134 l 1,8,9
 576 556 576 556 576 561 c 0,10,11
 576 595 576 595 549 595 c 2,12,-1
 538 595 l 1,13,-1
 520 594 l 2,14,15
 517 594 517 594 513 594 c 1,16,-1
 511 598 l 1,17,-1
 525 640 l 1,18,19
 582 636 582 636 607 636 c 0,20,21
 655 636 655 636 709 645 c 1,22,-1
 699 601 l 1,23,24
 633 592 633 592 625 538 c 2,25,-1
 543 -28 l 1,26,-1
 518 -42 l 1,27,28
 373 252 373 252 225 522 c 1,29,-1
 221 522 l 1,30,-1
 161 81 l 2,31,32
 158 59 158 59 163.5 50.5 c 128,-1,33
 169 42 169 42 186 42 c 2,34,-1
 235 42 l 1,35,-1
 237 39 l 1,36,-1
 223 -4 l 1,37,38
 165 0 165 0 123 0 c 1,39,-1
 34 -8 l 1,40,-1
 45 35 l 1,41,42
 104 42 104 42 112 98 c 0,43,44
 180 546 180 546 180 560 c 0,45,46
 180 594 180 594 102 602 c 1,0,-1
426.5 791.5 m 128,-1,48
 480 775 480 775 492 775 c 0,49,50
 512 775 512 775 559 820 c 1,51,-1
 565 820 l 1,52,-1
 584 799 l 1,53,-1
 584 794 l 1,54,-1
 501 715 l 1,55,-1
 485 711 l 1,56,57
 468 711 468 711 415 727.5 c 128,-1,58
 362 744 362 744 350 744 c 0,59,60
 328 744 328 744 294 710 c 2,61,-1
 283 699 l 1,62,-1
 277 699 l 1,63,-1
 257 720 l 1,64,-1
 258 725 l 1,65,-1
 341 804 l 1,66,-1
 356 808 l 1,67,47
 373 808 373 808 426.5 791.5 c 128,-1,48
EndSplineSet
EndChar

StartChar: Ograve
Encoding: 210 210 147
Width: 663
GlyphClass: 2
Flags: W
LayerCount: 2
Fore
SplineSet
311 35 m 0,0,1
 417 35 417 35 487 122.5 c 128,-1,2
 557 210 557 210 557 333 c 128,-1,3
 557 456 557 456 505.5 524.5 c 128,-1,4
 454 593 454 593 368 593 c 0,5,6
 265 593 265 593 196 504.5 c 128,-1,7
 127 416 127 416 127 294 c 128,-1,8
 127 172 127 172 177.5 103.5 c 128,-1,9
 228 35 228 35 311 35 c 0,0,1
286 -12 m 0,10,11
 179 -12 179 -12 112 62 c 128,-1,12
 45 136 45 136 45 254 c 0,13,14
 45 416 45 416 148.5 532 c 128,-1,15
 252 648 252 648 397 648 c 0,16,17
 506 648 506 648 575 573.5 c 128,-1,18
 644 499 644 499 644 382 c 0,19,20
 644 219 644 219 538.5 103.5 c 128,-1,21
 433 -12 433 -12 286 -12 c 0,10,11
256 777 m 1,22,-1
 252 787 l 1,23,-1
 268 835 l 1,24,-1
 277 841 l 1,25,26
 382 781 382 781 476 732 c 1,27,-1
 470 708 l 1,28,-1
 462 703 l 1,29,-1
 256 777 l 1,22,-1
EndSplineSet
EndChar

StartChar: Oacute
Encoding: 211 211 148
Width: 663
GlyphClass: 2
Flags: W
LayerCount: 2
Fore
SplineSet
311 35 m 0,0,1
 417 35 417 35 487 122.5 c 128,-1,2
 557 210 557 210 557 333 c 128,-1,3
 557 456 557 456 505.5 524.5 c 128,-1,4
 454 593 454 593 368 593 c 0,5,6
 265 593 265 593 196 504.5 c 128,-1,7
 127 416 127 416 127 294 c 128,-1,8
 127 172 127 172 177.5 103.5 c 128,-1,9
 228 35 228 35 311 35 c 0,0,1
286 -12 m 0,10,11
 179 -12 179 -12 112 62 c 128,-1,12
 45 136 45 136 45 254 c 0,13,14
 45 416 45 416 148.5 532 c 128,-1,15
 252 648 252 648 397 648 c 0,16,17
 506 648 506 648 575 573.5 c 128,-1,18
 644 499 644 499 644 382 c 0,19,20
 644 219 644 219 538.5 103.5 c 128,-1,21
 433 -12 433 -12 286 -12 c 0,10,11
529 787 m 1,22,-1
 525 777 l 1,23,24
 424 743 424 743 319 703 c 1,25,-1
 311 708 l 1,26,-1
 305 732 l 1,27,-1
 504 841 l 1,28,-1
 513 835 l 1,29,-1
 529 787 l 1,22,-1
EndSplineSet
EndChar

StartChar: Ocircumflex
Encoding: 212 212 149
Width: 663
GlyphClass: 2
Flags: W
LayerCount: 2
Fore
SplineSet
311 35 m 0,0,1
 417 35 417 35 487 122.5 c 128,-1,2
 557 210 557 210 557 333 c 128,-1,3
 557 456 557 456 505.5 524.5 c 128,-1,4
 454 593 454 593 368 593 c 0,5,6
 265 593 265 593 196 504.5 c 128,-1,7
 127 416 127 416 127 294 c 128,-1,8
 127 172 127 172 177.5 103.5 c 128,-1,9
 228 35 228 35 311 35 c 0,0,1
286 -12 m 0,10,11
 179 -12 179 -12 112 62 c 128,-1,12
 45 136 45 136 45 254 c 0,13,14
 45 416 45 416 148.5 532 c 128,-1,15
 252 648 252 648 397 648 c 0,16,17
 506 648 506 648 575 573.5 c 128,-1,18
 644 499 644 499 644 382 c 0,19,20
 644 219 644 219 538.5 103.5 c 128,-1,21
 433 -12 433 -12 286 -12 c 0,10,11
258 713 m 1,22,-1
 247 735 l 1,23,-1
 394 846 l 1,24,-1
 408 846 l 1,25,-1
 528 735 l 1,26,-1
 511 713 l 1,27,-1
 502 712 l 1,28,-1
 392 777 l 1,29,-1
 267 712 l 1,30,-1
 258 713 l 1,22,-1
EndSplineSet
EndChar

StartChar: Otilde
Encoding: 213 213 150
Width: 663
GlyphClass: 2
Flags: W
LayerCount: 2
Fore
SplineSet
311 35 m 0,0,1
 417 35 417 35 487 122.5 c 128,-1,2
 557 210 557 210 557 333 c 128,-1,3
 557 456 557 456 505.5 524.5 c 128,-1,4
 454 593 454 593 368 593 c 0,5,6
 265 593 265 593 196 504.5 c 128,-1,7
 127 416 127 416 127 294 c 128,-1,8
 127 172 127 172 177.5 103.5 c 128,-1,9
 228 35 228 35 311 35 c 0,0,1
286 -12 m 0,10,11
 179 -12 179 -12 112 62 c 128,-1,12
 45 136 45 136 45 254 c 0,13,14
 45 416 45 416 148.5 532 c 128,-1,15
 252 648 252 648 397 648 c 0,16,17
 506 648 506 648 575 573.5 c 128,-1,18
 644 499 644 499 644 382 c 0,19,20
 644 219 644 219 538.5 103.5 c 128,-1,21
 433 -12 433 -12 286 -12 c 0,10,11
407.5 791.5 m 128,-1,23
 461 775 461 775 472 775 c 0,24,25
 493 775 493 775 540 820 c 1,26,-1
 546 820 l 1,27,-1
 565 799 l 1,28,-1
 565 794 l 1,29,-1
 482 715 l 1,30,-1
 466 711 l 1,31,32
 449 711 449 711 396 727.5 c 128,-1,33
 343 744 343 744 332 744 c 0,34,35
 309 744 309 744 276 710 c 1,36,-1
 264 699 l 1,37,-1
 258 699 l 1,38,-1
 238 720 l 1,39,-1
 239 725 l 1,40,-1
 322 804 l 1,41,-1
 337 808 l 1,42,22
 354 808 354 808 407.5 791.5 c 128,-1,23
EndSplineSet
EndChar

StartChar: Odieresis
Encoding: 214 214 151
Width: 663
GlyphClass: 2
Flags: W
LayerCount: 2
Fore
SplineSet
311 35 m 0,0,1
 417 35 417 35 487 122.5 c 128,-1,2
 557 210 557 210 557 333 c 128,-1,3
 557 456 557 456 505.5 524.5 c 128,-1,4
 454 593 454 593 368 593 c 0,5,6
 265 593 265 593 196 504.5 c 128,-1,7
 127 416 127 416 127 294 c 128,-1,8
 127 172 127 172 177.5 103.5 c 128,-1,9
 228 35 228 35 311 35 c 0,0,1
286 -12 m 0,10,11
 179 -12 179 -12 112 62 c 128,-1,12
 45 136 45 136 45 254 c 0,13,14
 45 416 45 416 148.5 532 c 128,-1,15
 252 648 252 648 397 648 c 0,16,17
 506 648 506 648 575 573.5 c 128,-1,18
 644 499 644 499 644 382 c 0,19,20
 644 219 644 219 538.5 103.5 c 128,-1,21
 433 -12 433 -12 286 -12 c 0,10,11
500.5 741.5 m 128,-1,23
 484 725 484 725 464 725 c 0,24,25
 426 725 426 725 426 763 c 0,26,27
 426 785 426 785 442.5 801.5 c 128,-1,28
 459 818 459 818 478.5 818 c 128,-1,29
 498 818 498 818 507.5 807 c 128,-1,30
 517 796 517 796 517 777 c 128,-1,22
 517 758 517 758 500.5 741.5 c 128,-1,23
340.5 741.5 m 128,-1,32
 324 725 324 725 304 725 c 0,33,34
 266 725 266 725 266 763 c 0,35,36
 266 785 266 785 282 801.5 c 128,-1,37
 298 818 298 818 318 818 c 128,-1,38
 338 818 338 818 347.5 807 c 128,-1,39
 357 796 357 796 357 777 c 128,-1,31
 357 758 357 758 340.5 741.5 c 128,-1,32
EndSplineSet
EndChar

StartChar: multiply
Encoding: 215 215 152
Width: 486
GlyphClass: 2
Flags: W
LayerCount: 2
Fore
SplineSet
404 449 m 1,0,-1
 414 446 l 1,1,-1
 440 404 l 1,2,-1
 287 261 l 1,3,-1
 409 126 l 1,4,-1
 404 114 l 1,5,-1
 359 84 l 1,6,-1
 243 222 l 1,7,-1
 92 80 l 1,8,-1
 82 83 l 1,9,-1
 60 125 l 1,10,11
 141 199 141 199 208 261 c 1,12,-1
 87 405 l 1,13,-1
 90 416 l 1,14,-1
 137 442 l 1,15,16
 201 363 201 363 253 301 c 1,17,-1
 404 449 l 1,0,-1
EndSplineSet
EndChar

StartChar: Oslash
Encoding: 216 216 153
Width: 663
GlyphClass: 2
Flags: W
LayerCount: 2
Fore
SplineSet
45 254 m 0,0,1
 45 416 45 416 148.5 532 c 128,-1,2
 252 648 252 648 397 648 c 0,3,4
 442 648 442 648 482 634 c 1,5,-1
 521 708 l 1,6,-1
 550 701 l 1,7,-1
 553 689 l 1,8,-1
 515 619 l 1,9,10
 575 587 575 587 609.5 524.5 c 128,-1,11
 644 462 644 462 644 382 c 0,12,13
 644 219 644 219 538.5 103.5 c 128,-1,14
 433 -12 433 -12 286 -12 c 0,15,16
 239 -12 239 -12 192 6 c 1,17,-1
 137 -98 l 1,18,-1
 110 -92 l 1,19,-1
 108 -82 l 1,20,-1
 161 21 l 1,21,22
 106 54 106 54 75.5 115 c 128,-1,23
 45 176 45 176 45 254 c 0,0,1
311 35 m 0,24,25
 417 35 417 35 487 122.5 c 128,-1,26
 557 210 557 210 557 347 c 128,-1,27
 557 484 557 484 479 552 c 1,28,-1
 221 61 l 1,29,30
 261 35 261 35 311 35 c 0,24,25
196 504.5 m 128,-1,32
 127 416 127 416 127 284.5 c 128,-1,33
 127 153 127 153 194 84 c 1,34,-1
 450 572 l 1,35,36
 411 593 411 593 368 593 c 0,37,31
 265 593 265 593 196 504.5 c 128,-1,32
EndSplineSet
EndChar

StartChar: Ugrave
Encoding: 217 217 154
Width: 652
GlyphClass: 2
Flags: W
LayerCount: 2
Fore
SplineSet
175 202 m 0,0,1
 175 124 175 124 210.5 82.5 c 128,-1,2
 246 41 246 41 320.5 41 c 128,-1,3
 395 41 395 41 442.5 85.5 c 128,-1,4
 490 130 490 130 500 215 c 0,5,6
 536 547 536 547 536 563.5 c 128,-1,7
 536 580 536 580 531.5 588 c 128,-1,8
 527 596 527 596 506 596 c 2,9,-1
 463 594 l 1,10,-1
 463 598 l 1,11,-1
 474 639 l 1,12,13
 545 636 545 636 572 636 c 0,14,15
 617 636 617 636 675 646 c 1,16,-1
 665 603 l 1,17,18
 622 598 622 598 609 587.5 c 128,-1,19
 596 577 596 577 592 546 c 2,20,-1
 550 206 l 2,21,22
 537 103 537 103 468 45.5 c 128,-1,23
 399 -12 399 -12 286 -12 c 0,24,25
 196 -12 196 -12 148.5 35 c 128,-1,26
 101 82 101 82 101 166 c 0,27,28
 101 189 101 189 104 210 c 0,29,30
 147 555 147 555 147 567 c 128,-1,31
 147 579 147 579 142 587.5 c 128,-1,32
 137 596 137 596 115 596 c 1,33,-1
 82 594 l 1,34,-1
 81 598 l 1,35,-1
 93 639 l 1,36,37
 163 636 163 636 190 636 c 0,38,39
 236 636 236 636 300 646 c 1,40,-1
 291 603 l 1,41,42
 255 598 255 598 241 586.5 c 128,-1,43
 227 575 227 575 222 546 c 2,44,-1
 178 252 l 1,45,46
 175 225 175 225 175 202 c 0,0,1
261 777 m 1,47,-1
 257 787 l 1,48,-1
 273 835 l 1,49,-1
 282 841 l 1,50,51
 387 781 387 781 481 732 c 1,52,-1
 475 708 l 1,53,-1
 467 703 l 1,54,-1
 261 777 l 1,47,-1
EndSplineSet
EndChar

StartChar: Uacute
Encoding: 218 218 155
Width: 652
GlyphClass: 2
Flags: W
LayerCount: 2
Fore
SplineSet
175 202 m 0,0,1
 175 124 175 124 210.5 82.5 c 128,-1,2
 246 41 246 41 320.5 41 c 128,-1,3
 395 41 395 41 442.5 85.5 c 128,-1,4
 490 130 490 130 500 215 c 0,5,6
 536 547 536 547 536 563.5 c 128,-1,7
 536 580 536 580 531.5 588 c 128,-1,8
 527 596 527 596 506 596 c 2,9,-1
 463 594 l 1,10,-1
 463 598 l 1,11,-1
 474 639 l 1,12,13
 545 636 545 636 572 636 c 0,14,15
 617 636 617 636 675 646 c 1,16,-1
 665 603 l 1,17,18
 622 598 622 598 609 587.5 c 128,-1,19
 596 577 596 577 592 546 c 2,20,-1
 550 206 l 2,21,22
 537 103 537 103 468 45.5 c 128,-1,23
 399 -12 399 -12 286 -12 c 0,24,25
 196 -12 196 -12 148.5 35 c 128,-1,26
 101 82 101 82 101 166 c 0,27,28
 101 189 101 189 104 210 c 0,29,30
 147 555 147 555 147 567 c 128,-1,31
 147 579 147 579 142 587.5 c 128,-1,32
 137 596 137 596 115 596 c 1,33,-1
 82 594 l 1,34,-1
 81 598 l 1,35,-1
 93 639 l 1,36,37
 163 636 163 636 190 636 c 0,38,39
 236 636 236 636 300 646 c 1,40,-1
 291 603 l 1,41,42
 255 598 255 598 241 586.5 c 128,-1,43
 227 575 227 575 222 546 c 2,44,-1
 178 252 l 1,45,46
 175 225 175 225 175 202 c 0,0,1
564 787 m 1,47,-1
 560 777 l 1,48,49
 459 743 459 743 354 703 c 1,50,-1
 346 708 l 1,51,-1
 340 732 l 1,52,-1
 539 841 l 1,53,-1
 548 835 l 1,54,-1
 564 787 l 1,47,-1
EndSplineSet
EndChar

StartChar: Ucircumflex
Encoding: 219 219 156
Width: 652
GlyphClass: 2
Flags: W
LayerCount: 2
Fore
SplineSet
175 202 m 0,0,1
 175 124 175 124 210.5 82.5 c 128,-1,2
 246 41 246 41 320.5 41 c 128,-1,3
 395 41 395 41 442.5 85.5 c 128,-1,4
 490 130 490 130 500 215 c 0,5,6
 536 547 536 547 536 563.5 c 128,-1,7
 536 580 536 580 531.5 588 c 128,-1,8
 527 596 527 596 506 596 c 2,9,-1
 463 594 l 1,10,-1
 463 598 l 1,11,-1
 474 639 l 1,12,13
 545 636 545 636 572 636 c 0,14,15
 617 636 617 636 675 646 c 1,16,-1
 665 603 l 1,17,18
 622 598 622 598 609 587.5 c 128,-1,19
 596 577 596 577 592 546 c 2,20,-1
 550 206 l 2,21,22
 537 103 537 103 468 45.5 c 128,-1,23
 399 -12 399 -12 286 -12 c 0,24,25
 196 -12 196 -12 148.5 35 c 128,-1,26
 101 82 101 82 101 166 c 0,27,28
 101 189 101 189 104 210 c 0,29,30
 147 555 147 555 147 567 c 128,-1,31
 147 579 147 579 142 587.5 c 128,-1,32
 137 596 137 596 115 596 c 1,33,-1
 82 594 l 1,34,-1
 81 598 l 1,35,-1
 93 639 l 1,36,37
 163 636 163 636 190 636 c 0,38,39
 236 636 236 636 300 646 c 1,40,-1
 291 603 l 1,41,42
 255 598 255 598 241 586.5 c 128,-1,43
 227 575 227 575 222 546 c 2,44,-1
 178 252 l 1,45,46
 175 225 175 225 175 202 c 0,0,1
273 713 m 1,47,-1
 262 735 l 1,48,-1
 409 846 l 1,49,-1
 423 846 l 1,50,-1
 543 735 l 1,51,-1
 526 713 l 1,52,-1
 517 712 l 1,53,-1
 407 777 l 1,54,-1
 282 712 l 1,55,-1
 273 713 l 1,47,-1
EndSplineSet
EndChar

StartChar: Udieresis
Encoding: 220 220 157
Width: 652
GlyphClass: 2
Flags: W
LayerCount: 2
Fore
SplineSet
175 202 m 0,0,1
 175 124 175 124 210.5 82.5 c 128,-1,2
 246 41 246 41 320.5 41 c 128,-1,3
 395 41 395 41 442.5 85.5 c 128,-1,4
 490 130 490 130 500 215 c 0,5,6
 536 547 536 547 536 563.5 c 128,-1,7
 536 580 536 580 531.5 588 c 128,-1,8
 527 596 527 596 506 596 c 2,9,-1
 463 594 l 1,10,-1
 463 598 l 1,11,-1
 474 639 l 1,12,13
 545 636 545 636 572 636 c 0,14,15
 617 636 617 636 675 646 c 1,16,-1
 665 603 l 1,17,18
 622 598 622 598 609 587.5 c 128,-1,19
 596 577 596 577 592 546 c 2,20,-1
 550 206 l 2,21,22
 537 103 537 103 468 45.5 c 128,-1,23
 399 -12 399 -12 286 -12 c 0,24,25
 196 -12 196 -12 148.5 35 c 128,-1,26
 101 82 101 82 101 166 c 0,27,28
 101 189 101 189 104 210 c 0,29,30
 147 555 147 555 147 567 c 128,-1,31
 147 579 147 579 142 587.5 c 128,-1,32
 137 596 137 596 115 596 c 1,33,-1
 82 594 l 1,34,-1
 81 598 l 1,35,-1
 93 639 l 1,36,37
 163 636 163 636 190 636 c 0,38,39
 236 636 236 636 300 646 c 1,40,-1
 291 603 l 1,41,42
 255 598 255 598 241 586.5 c 128,-1,43
 227 575 227 575 222 546 c 2,44,-1
 178 252 l 1,45,46
 175 225 175 225 175 202 c 0,0,1
515.5 741.5 m 128,-1,48
 499 725 499 725 479 725 c 0,49,50
 441 725 441 725 441 763 c 0,51,52
 441 785 441 785 457.5 801.5 c 128,-1,53
 474 818 474 818 493.5 818 c 128,-1,54
 513 818 513 818 522.5 807 c 128,-1,55
 532 796 532 796 532 777 c 128,-1,47
 532 758 532 758 515.5 741.5 c 128,-1,48
355.5 741.5 m 128,-1,57
 339 725 339 725 319 725 c 0,58,59
 281 725 281 725 281 763 c 0,60,61
 281 785 281 785 297 801.5 c 128,-1,62
 313 818 313 818 333 818 c 128,-1,63
 353 818 353 818 362.5 807 c 128,-1,64
 372 796 372 796 372 777 c 128,-1,56
 372 758 372 758 355.5 741.5 c 128,-1,57
EndSplineSet
EndChar

StartChar: Yacute
Encoding: 221 221 158
Width: 520
GlyphClass: 2
Flags: W
LayerCount: 2
Fore
SplineSet
210 593 m 128,-1,1
 195 585 195 585 195 568 c 0,2,3
 195 533 195 533 272 304 c 1,4,-1
 276 304 l 1,5,-1
 415 522 l 2,6,7
 436 554 436 554 436 575 c 0,8,9
 436 599 436 599 379 603 c 1,10,-1
 377 607 l 1,11,-1
 388 644 l 1,12,13
 460 636 460 636 492 636 c 1,14,-1
 581 640 l 1,15,-1
 584 634 l 1,16,-1
 573 599 l 1,17,18
 528 591 528 591 508 572.5 c 128,-1,19
 488 554 488 554 462 515 c 0,20,21
 305 281 305 281 302.5 276 c 128,-1,22
 300 271 300 271 296.5 260 c 128,-1,23
 293 249 293 249 290.5 242 c 128,-1,24
 288 235 288 235 285.5 217.5 c 128,-1,25
 283 200 283 200 282 190 c 0,26,27
 268 98 268 98 268 80.5 c 128,-1,28
 268 63 268 63 271 56 c 0,29,30
 277 41 277 41 303 41 c 1,31,-1
 350 44 l 1,32,-1
 352 40 l 1,33,-1
 338 -3 l 1,34,35
 260 0 260 0 229 0 c 0,36,37
 176 0 176 0 110 -12 c 1,38,-1
 121 31 l 1,39,40
 172 42 172 42 187.5 62.5 c 128,-1,41
 203 83 203 83 209 141 c 0,42,43
 215 198 215 198 215 228.5 c 128,-1,44
 215 259 215 259 200 301 c 0,45,46
 125 518 125 518 122.5 524.5 c 128,-1,47
 120 531 120 531 115.5 543.5 c 128,-1,48
 111 556 111 556 108.5 559 c 128,-1,49
 106 562 106 562 101 570 c 128,-1,50
 96 578 96 578 92 580 c 128,-1,51
 88 582 88 582 81.5 587 c 128,-1,52
 75 592 75 592 67.5 593.5 c 128,-1,53
 60 595 60 595 51 597 c 128,-1,54
 42 599 42 599 30 600 c 1,55,-1
 28 604 l 1,56,-1
 39 640 l 1,57,58
 98 636 98 636 132 636 c 0,59,60
 200 636 200 636 279 645 c 1,61,-1
 281 638 l 1,62,-1
 273 605 l 1,63,0
 225 601 225 601 210 593 c 128,-1,1
502 787 m 1,64,-1
 498 777 l 1,65,66
 397 743 397 743 292 703 c 1,67,-1
 284 708 l 1,68,-1
 278 732 l 1,69,-1
 477 841 l 1,70,-1
 486 835 l 1,71,-1
 502 787 l 1,64,-1
EndSplineSet
EndChar

StartChar: Thorn
Encoding: 222 222 159
Width: 523
GlyphClass: 2
Flags: W
LayerCount: 2
Fore
SplineSet
174 638 m 2,0,-1
 232 637 l 2,1,2
 262 637 262 637 345 646 c 1,3,-1
 335 601 l 1,4,5
 295 596 295 596 280 584.5 c 128,-1,6
 265 573 265 573 260 544 c 2,7,-1
 253 503 l 1,8,-1
 331 503 l 2,9,10
 422 503 422 503 470.5 466 c 128,-1,11
 519 429 519 429 519 360 c 0,12,13
 519 275 519 275 441.5 211.5 c 128,-1,14
 364 148 364 148 266 148 c 2,15,-1
 198 148 l 1,16,17
 191 97 191 97 191 81 c 128,-1,18
 191 65 191 65 196.5 54.5 c 128,-1,19
 202 44 202 44 227 44 c 1,20,-1
 278 47 l 1,21,-1
 279 43 l 1,22,-1
 265 -3 l 1,23,24
 183 0 183 0 150 0 c 0,25,26
 94 0 94 0 24 -12 c 1,27,-1
 36 34 l 1,28,29
 82 43 82 43 100 60.5 c 128,-1,30
 118 78 118 78 123 120 c 0,31,32
 177 553 177 553 177 564.5 c 128,-1,33
 177 576 177 576 172 585 c 128,-1,34
 167 594 167 594 146 594 c 1,35,-1
 106 592 l 1,36,-1
 104 596 l 1,37,-1
 117 640 l 1,38,39
 151 638 151 638 174 638 c 2,0,-1
432 341 m 0,40,41
 432 399 432 399 392.5 426.5 c 128,-1,42
 353 454 353 454 269 454 c 0,43,44
 245 454 245 454 243 446 c 0,45,46
 217 286 217 286 206 209 c 1,47,48
 247 194 247 194 301 192 c 1,49,50
 432 209 432 209 432 341 c 0,40,41
EndSplineSet
EndChar

StartChar: germandbls
Encoding: 223 223 160
Width: 549
GlyphClass: 2
Flags: W
LayerCount: 2
Fore
SplineSet
345 742 m 0,0,1
 411 742 411 742 457 709 c 128,-1,2
 503 676 503 676 503 629 c 0,3,4
 503 565 503 565 450 516 c 0,5,6
 428 495 428 495 406 476 c 1,7,8
 352 433 352 433 352 392 c 0,9,10
 352 347 352 347 442 292 c 0,11,12
 476 271 476 271 504.5 236 c 128,-1,13
 533 201 533 201 533 160 c 0,14,15
 533 91 533 91 478 39.5 c 128,-1,16
 423 -12 423 -12 350 -12 c 0,17,18
 301 -12 301 -12 267.5 3.5 c 128,-1,19
 234 19 234 19 234 39 c 0,20,21
 234 52 234 52 251 82.5 c 128,-1,22
 268 113 268 113 282 127 c 1,23,-1
 296 127 l 1,24,25
 295 117 295 117 295 108 c 0,26,27
 295 76 295 76 313 54 c 128,-1,28
 331 32 331 32 368 32 c 128,-1,29
 405 32 405 32 431 60.5 c 128,-1,30
 457 89 457 89 457 119 c 128,-1,31
 457 149 457 149 438.5 172 c 128,-1,32
 420 195 420 195 393.5 214.5 c 128,-1,33
 367 234 367 234 340.5 254 c 128,-1,34
 314 274 314 274 295.5 303 c 128,-1,35
 277 332 277 332 277 366.5 c 128,-1,36
 277 401 277 401 301 434.5 c 128,-1,37
 325 468 325 468 353.5 489.5 c 128,-1,38
 382 511 382 511 406 540.5 c 128,-1,39
 430 570 430 570 430 603.5 c 128,-1,40
 430 637 430 637 395.5 660 c 128,-1,41
 361 683 361 683 303 683 c 0,42,43
 215 683 215 683 200 569 c 1,44,-1
 128 -75 l 2,45,46
 119 -154 119 -154 78 -198 c 128,-1,47
 37 -242 37 -242 -27 -242 c 0,48,49
 -59 -242 -59 -242 -85 -228.5 c 128,-1,50
 -111 -215 -111 -215 -117 -196 c 1,51,52
 -105 -150 -105 -150 -83 -112 c 1,53,-1
 -69 -112 l 1,54,55
 -70 -149 -70 -149 -50.5 -172 c 128,-1,56
 -31 -195 -31 -195 -3.5 -195 c 128,-1,57
 24 -195 24 -195 43 -177 c 128,-1,58
 62 -159 62 -159 70 -130 c 1,59,60
 74 -80 74 -80 78 -32 c 0,61,62
 78 -28 78 -28 113 397 c 1,63,-1
 106 402 l 1,64,-1
 37 405 l 1,65,-1
 34 410 l 1,66,-1
 38 439 l 1,67,-1
 117 451 l 1,68,-1
 126 531 l 1,69,70
 138 623 138 623 199.5 682.5 c 128,-1,71
 261 742 261 742 345 742 c 0,0,1
72 -122 m 1,72,73
 72 -118 72 -118 73 -116 c 1,74,75
 72 -118 72 -118 72 -122 c 1,72,73
66 -170 m 1,76,-1
 66 -176 l 1,77,-1
 66 -170 l 1,76,-1
EndSplineSet
EndChar

StartChar: agrave
Encoding: 224 224 161
Width: 461
GlyphClass: 2
Flags: W
LayerCount: 2
Fore
SplineSet
298 -12 m 0,0,1
 262 -12 262 -12 262 17 c 0,2,3
 262 35 262 35 305 225 c 1,4,-1
 299 227 l 1,5,6
 205 53 205 53 112 -12 c 1,7,8
 74 -12 74 -12 53 23.5 c 128,-1,9
 32 59 32 59 32 124 c 0,10,11
 32 247 32 247 104.5 353.5 c 128,-1,12
 177 460 177 460 261 460 c 1,13,-1
 361 444 l 1,14,-1
 370 469 l 1,15,-1
 375 470 l 1,16,-1
 406 455 l 1,17,-1
 414 443 l 1,18,19
 357 250 357 250 331 64 c 1,20,-1
 334 60 l 1,21,22
 341 60 341 60 354 70 c 128,-1,23
 367 80 367 80 413 119 c 1,24,-1
 425 118 l 1,25,-1
 438 94 l 1,26,27
 326 -12 326 -12 298 -12 c 0,0,1
131 69 m 0,28,29
 159 69 159 69 217.5 158.5 c 128,-1,30
 276 248 276 248 331 373 c 1,31,32
 277 406 277 406 229 406 c 128,-1,33
 181 406 181 406 141.5 334 c 128,-1,34
 102 262 102 262 102 173 c 0,35,36
 102 130 102 130 110.5 99.5 c 128,-1,37
 119 69 119 69 131 69 c 0,28,29
156 660 m 1,38,-1
 155 671 l 1,39,-1
 193 712 l 1,40,-1
 203 714 l 1,41,42
 281 620 281 620 353 542 c 1,43,-1
 333 523 l 1,44,-1
 324 521 l 1,45,46
 257 583 257 583 156 660 c 1,38,-1
EndSplineSet
EndChar

StartChar: aacute
Encoding: 225 225 162
Width: 461
GlyphClass: 2
Flags: W
LayerCount: 2
Fore
SplineSet
298 -12 m 0,0,1
 262 -12 262 -12 262 17 c 0,2,3
 262 35 262 35 305 225 c 1,4,-1
 299 227 l 1,5,6
 205 53 205 53 112 -12 c 1,7,8
 74 -12 74 -12 53 23.5 c 128,-1,9
 32 59 32 59 32 124 c 0,10,11
 32 247 32 247 104.5 353.5 c 128,-1,12
 177 460 177 460 261 460 c 1,13,-1
 361 444 l 1,14,-1
 370 469 l 1,15,-1
 375 470 l 1,16,-1
 406 455 l 1,17,-1
 414 443 l 1,18,19
 357 250 357 250 331 64 c 1,20,-1
 334 60 l 1,21,22
 341 60 341 60 354 70 c 128,-1,23
 367 80 367 80 413 119 c 1,24,-1
 425 118 l 1,25,-1
 438 94 l 1,26,27
 326 -12 326 -12 298 -12 c 0,0,1
131 69 m 0,28,29
 159 69 159 69 217.5 158.5 c 128,-1,30
 276 248 276 248 331 373 c 1,31,32
 277 406 277 406 229 406 c 128,-1,33
 181 406 181 406 141.5 334 c 128,-1,34
 102 262 102 262 102 173 c 0,35,36
 102 130 102 130 110.5 99.5 c 128,-1,37
 119 69 119 69 131 69 c 0,28,29
402 672 m 1,38,-1
 401 661 l 1,39,40
 317 597 317 597 233 521 c 1,41,-1
 224 523 l 1,42,-1
 204 542 l 1,43,44
 277 621 277 621 354 715 c 1,45,-1
 364 713 l 1,46,-1
 402 672 l 1,38,-1
EndSplineSet
EndChar

StartChar: acircumflex
Encoding: 226 226 163
Width: 461
GlyphClass: 2
Flags: W
LayerCount: 2
Fore
SplineSet
298 -12 m 0,0,1
 262 -12 262 -12 262 17 c 0,2,3
 262 35 262 35 305 225 c 1,4,-1
 299 227 l 1,5,6
 205 53 205 53 112 -12 c 1,7,8
 74 -12 74 -12 53 23.5 c 128,-1,9
 32 59 32 59 32 124 c 0,10,11
 32 247 32 247 104.5 353.5 c 128,-1,12
 177 460 177 460 261 460 c 1,13,-1
 361 444 l 1,14,-1
 370 469 l 1,15,-1
 375 470 l 1,16,-1
 406 455 l 1,17,-1
 414 443 l 1,18,19
 357 250 357 250 331 64 c 1,20,-1
 334 60 l 1,21,22
 341 60 341 60 354 70 c 128,-1,23
 367 80 367 80 413 119 c 1,24,-1
 425 118 l 1,25,-1
 438 94 l 1,26,27
 326 -12 326 -12 298 -12 c 0,0,1
131 69 m 0,28,29
 159 69 159 69 217.5 158.5 c 128,-1,30
 276 248 276 248 331 373 c 1,31,32
 277 406 277 406 229 406 c 128,-1,33
 181 406 181 406 141.5 334 c 128,-1,34
 102 262 102 262 102 173 c 0,35,36
 102 130 102 130 110.5 99.5 c 128,-1,37
 119 69 119 69 131 69 c 0,28,29
142 528 m 1,38,-1
 130 550 l 1,39,-1
 282 703 l 1,40,-1
 296 703 l 1,41,-1
 411 550 l 1,42,-1
 394 528 l 1,43,-1
 385 527 l 1,44,-1
 280 624 l 1,45,-1
 151 527 l 1,46,-1
 142 528 l 1,38,-1
EndSplineSet
EndChar

StartChar: atilde
Encoding: 227 227 164
Width: 461
GlyphClass: 2
Flags: W
LayerCount: 2
Fore
SplineSet
298 -12 m 0,0,1
 262 -12 262 -12 262 17 c 0,2,3
 262 35 262 35 305 225 c 1,4,-1
 299 227 l 1,5,6
 205 53 205 53 112 -12 c 1,7,8
 74 -12 74 -12 53 23.5 c 128,-1,9
 32 59 32 59 32 124 c 0,10,11
 32 247 32 247 104.5 353.5 c 128,-1,12
 177 460 177 460 261 460 c 1,13,-1
 361 444 l 1,14,-1
 370 469 l 1,15,-1
 375 470 l 1,16,-1
 406 455 l 1,17,-1
 414 443 l 1,18,19
 357 250 357 250 331 64 c 1,20,-1
 334 60 l 1,21,22
 341 60 341 60 354 70 c 128,-1,23
 367 80 367 80 413 119 c 1,24,-1
 425 118 l 1,25,-1
 438 94 l 1,26,27
 326 -12 326 -12 298 -12 c 0,0,1
131 69 m 0,28,29
 159 69 159 69 217.5 158.5 c 128,-1,30
 276 248 276 248 331 373 c 1,31,32
 277 406 277 406 229 406 c 128,-1,33
 181 406 181 406 141.5 334 c 128,-1,34
 102 262 102 262 102 173 c 0,35,36
 102 130 102 130 110.5 99.5 c 128,-1,37
 119 69 119 69 131 69 c 0,28,29
294.5 653.5 m 128,-1,39
 348 637 348 637 360 637 c 0,40,41
 381 637 381 637 416 678 c 2,42,-1
 428 692 l 1,43,-1
 434 692 l 1,44,-1
 454 671 l 1,45,-1
 453 666 l 1,46,-1
 369 577 l 1,47,-1
 353 573 l 1,48,49
 336 573 336 573 283 589.5 c 128,-1,50
 230 606 230 606 218.5 606 c 128,-1,51
 207 606 207 606 190 592 c 128,-1,52
 173 578 173 578 150 551 c 1,53,-1
 143 551 l 1,54,-1
 124 572 l 1,55,-1
 125 577 l 1,56,-1
 209 666 l 1,57,-1
 224 670 l 1,58,38
 241 670 241 670 294.5 653.5 c 128,-1,39
EndSplineSet
EndChar

StartChar: adieresis
Encoding: 228 228 165
Width: 461
GlyphClass: 2
Flags: W
LayerCount: 2
Fore
SplineSet
298 -12 m 0,0,1
 262 -12 262 -12 262 17 c 0,2,3
 262 35 262 35 305 225 c 1,4,-1
 299 227 l 1,5,6
 205 53 205 53 112 -12 c 1,7,8
 74 -12 74 -12 53 23.5 c 128,-1,9
 32 59 32 59 32 124 c 0,10,11
 32 247 32 247 104.5 353.5 c 128,-1,12
 177 460 177 460 261 460 c 1,13,-1
 361 444 l 1,14,-1
 370 469 l 1,15,-1
 375 470 l 1,16,-1
 406 455 l 1,17,-1
 414 443 l 1,18,19
 357 250 357 250 331 64 c 1,20,-1
 334 60 l 1,21,22
 341 60 341 60 354 70 c 128,-1,23
 367 80 367 80 413 119 c 1,24,-1
 425 118 l 1,25,-1
 438 94 l 1,26,27
 326 -12 326 -12 298 -12 c 0,0,1
131 69 m 0,28,29
 159 69 159 69 217.5 158.5 c 128,-1,30
 276 248 276 248 331 373 c 1,31,32
 277 406 277 406 229 406 c 128,-1,33
 181 406 181 406 141.5 334 c 128,-1,34
 102 262 102 262 102 173 c 0,35,36
 102 130 102 130 110.5 99.5 c 128,-1,37
 119 69 119 69 131 69 c 0,28,29
396 582.5 m 128,-1,39
 380 566 380 566 360 566 c 128,-1,40
 340 566 340 566 330.5 577.5 c 128,-1,41
 321 589 321 589 321 607.5 c 128,-1,42
 321 626 321 626 337.5 642.5 c 128,-1,43
 354 659 354 659 374 659 c 0,44,45
 412 659 412 659 412 621 c 0,46,38
 412 599 412 599 396 582.5 c 128,-1,39
236 582.5 m 128,-1,48
 220 566 220 566 200 566 c 128,-1,49
 180 566 180 566 170.5 577.5 c 128,-1,50
 161 589 161 589 161 607.5 c 128,-1,51
 161 626 161 626 177.5 642.5 c 128,-1,52
 194 659 194 659 214 659 c 0,53,54
 252 659 252 659 252 621 c 0,55,47
 252 599 252 599 236 582.5 c 128,-1,48
EndSplineSet
EndChar

StartChar: aring
Encoding: 229 229 166
Width: 461
GlyphClass: 2
Flags: W
LayerCount: 2
Fore
SplineSet
298 -12 m 0,0,1
 262 -12 262 -12 262 17 c 0,2,3
 262 35 262 35 305 225 c 1,4,-1
 299 227 l 1,5,6
 205 53 205 53 112 -12 c 1,7,8
 74 -12 74 -12 53 23.5 c 128,-1,9
 32 59 32 59 32 124 c 0,10,11
 32 247 32 247 104.5 353.5 c 128,-1,12
 177 460 177 460 261 460 c 1,13,-1
 361 444 l 1,14,-1
 370 469 l 1,15,-1
 375 470 l 1,16,-1
 406 455 l 1,17,-1
 414 443 l 1,18,19
 357 250 357 250 331 64 c 1,20,-1
 334 60 l 1,21,22
 341 60 341 60 354 70 c 128,-1,23
 367 80 367 80 413 119 c 1,24,-1
 425 118 l 1,25,-1
 438 94 l 1,26,27
 326 -12 326 -12 298 -12 c 0,0,1
131 69 m 0,28,29
 159 69 159 69 217.5 158.5 c 128,-1,30
 276 248 276 248 331 373 c 1,31,32
 277 406 277 406 229 406 c 128,-1,33
 181 406 181 406 141.5 334 c 128,-1,34
 102 262 102 262 102 173 c 0,35,36
 102 130 102 130 110.5 99.5 c 128,-1,37
 119 69 119 69 131 69 c 0,28,29
256 582 m 0,38,39
 304 582 304 582 304 627 c 0,40,41
 304 669 304 669 260 669 c 0,42,43
 238 669 238 669 225.5 657 c 128,-1,44
 213 645 213 645 213 624 c 128,-1,45
 213 603 213 603 226.5 592.5 c 128,-1,46
 240 582 240 582 256 582 c 0,38,39
312.5 573.5 m 128,-1,48
 286 544 286 544 250 544 c 128,-1,49
 214 544 214 544 197 562.5 c 128,-1,50
 180 581 180 581 180 617 c 128,-1,51
 180 653 180 653 206.5 680.5 c 128,-1,52
 233 708 233 708 270 708 c 128,-1,53
 307 708 307 708 323 689 c 128,-1,54
 339 670 339 670 339 636.5 c 128,-1,47
 339 603 339 603 312.5 573.5 c 128,-1,48
EndSplineSet
EndChar

StartChar: ae
Encoding: 230 230 167
Width: 587
GlyphClass: 2
Flags: W
LayerCount: 2
Fore
SplineSet
568 386 m 0,0,1
 568 323 568 323 513 278 c 128,-1,2
 458 233 458 233 330 190 c 1,3,4
 329 179 329 179 329 169 c 0,5,6
 329 119 329 119 347 83.5 c 128,-1,7
 365 48 365 48 397.5 48 c 128,-1,8
 430 48 430 48 460 71.5 c 128,-1,9
 490 95 490 95 510 134 c 1,10,-1
 524 133 l 1,11,-1
 539 109 l 1,12,13
 510 56 510 56 465.5 22 c 128,-1,14
 421 -12 421 -12 372.5 -12 c 128,-1,15
 324 -12 324 -12 293 32 c 128,-1,16
 262 76 262 76 262 153 c 2,17,-1
 262 162 l 1,18,19
 188 42 188 42 112 -12 c 1,20,21
 74 -12 74 -12 53 23.5 c 128,-1,22
 32 59 32 59 32 124 c 0,23,24
 32 247 32 247 104.5 353.5 c 128,-1,25
 177 460 177 460 261 460 c 1,26,-1
 417 443 l 1,27,28
 454 464 454 464 490.5 464 c 128,-1,29
 527 464 527 464 547.5 443.5 c 128,-1,30
 568 423 568 423 568 386 c 0,0,1
131 69 m 0,31,32
 159 69 159 69 217.5 161.5 c 128,-1,33
 276 254 276 254 331 383 c 1,34,35
 277 406 277 406 229 406 c 128,-1,36
 181 406 181 406 141.5 334 c 128,-1,37
 102 262 102 262 102 173 c 0,38,39
 102 130 102 130 110.5 99.5 c 128,-1,40
 119 69 119 69 131 69 c 0,31,32
459 289 m 128,-1,42
 497 319 497 319 497 362.5 c 128,-1,43
 497 406 497 406 457.5 406 c 128,-1,44
 418 406 418 406 381.5 354.5 c 128,-1,45
 345 303 345 303 334 232 c 1,46,41
 421 259 421 259 459 289 c 128,-1,42
EndSplineSet
EndChar

StartChar: ccedilla
Encoding: 231 231 168
Width: 344
GlyphClass: 2
Flags: W
LayerCount: 2
Fore
SplineSet
61 38 m 128,-1,1
 34 81 34 81 34 155.5 c 128,-1,2
 34 230 34 230 66.5 302.5 c 128,-1,3
 99 375 99 375 151.5 419.5 c 128,-1,4
 204 464 204 464 259 464 c 128,-1,5
 314 464 314 464 345 443 c 1,6,-1
 350 432 l 1,7,-1
 316 365 l 1,8,-1
 302 362 l 1,9,10
 271 405 271 405 226.5 405 c 128,-1,11
 182 405 182 405 143 336 c 128,-1,12
 104 267 104 267 104 194 c 128,-1,13
 104 121 104 121 122.5 84 c 128,-1,14
 141 47 141 47 172 47 c 128,-1,15
 203 47 203 47 233.5 71.5 c 128,-1,16
 264 96 264 96 282 134 c 1,17,-1
 296 133 l 1,18,-1
 311 109 l 1,19,20
 287 65 287 65 251.5 33.5 c 128,-1,21
 216 2 216 2 179 -8 c 1,22,-1
 160 -50 l 1,23,24
 181 -64 181 -64 198 -80 c 128,-1,25
 215 -96 215 -96 220 -102 c 1,26,27
 232 -121 232 -121 232 -135 c 0,28,29
 232 -173 232 -173 190 -203 c 128,-1,30
 148 -233 148 -233 104 -233 c 0,31,32
 81 -233 81 -233 61.5 -223.5 c 128,-1,33
 42 -214 42 -214 42 -198.5 c 128,-1,34
 42 -183 42 -183 74 -141 c 1,35,-1
 82 -141 l 1,36,37
 82 -145 82 -145 82 -157.5 c 128,-1,38
 82 -170 82 -170 93.5 -184 c 128,-1,39
 105 -198 105 -198 127 -198 c 128,-1,40
 149 -198 149 -198 164 -186.5 c 128,-1,41
 179 -175 179 -175 179 -158 c 0,42,43
 179 -132 179 -132 106 -85 c 1,44,-1
 136 -11 l 1,45,0
 88 -5 88 -5 61 38 c 128,-1,1
EndSplineSet
EndChar

StartChar: egrave
Encoding: 232 232 169
Width: 359
GlyphClass: 2
Flags: W
LayerCount: 2
Fore
SplineSet
340 386 m 0,0,1
 340 323 340 323 285 278 c 128,-1,2
 230 233 230 233 102 190 c 1,3,4
 101 179 101 179 101 169 c 0,5,6
 101 119 101 119 119 83.5 c 128,-1,7
 137 48 137 48 169.5 48 c 128,-1,8
 202 48 202 48 232 71.5 c 128,-1,9
 262 95 262 95 282 134 c 1,10,-1
 296 133 l 1,11,-1
 311 109 l 1,12,13
 282 56 282 56 237.5 22 c 128,-1,14
 193 -12 193 -12 144.5 -12 c 128,-1,15
 96 -12 96 -12 65 32 c 128,-1,16
 34 76 34 76 34 153 c 0,17,18
 34 268 34 268 105.5 366 c 128,-1,19
 177 464 177 464 261 464 c 0,20,21
 299 464 299 464 319.5 443.5 c 128,-1,22
 340 423 340 423 340 386 c 0,0,1
231 289 m 128,-1,24
 269 319 269 319 269 362.5 c 128,-1,25
 269 406 269 406 229.5 406 c 128,-1,26
 190 406 190 406 153.5 354.5 c 128,-1,27
 117 303 117 303 106 232 c 1,28,23
 193 259 193 259 231 289 c 128,-1,24
130 660 m 1,29,-1
 129 671 l 1,30,-1
 167 712 l 1,31,-1
 177 714 l 1,32,33
 255 620 255 620 327 542 c 1,34,-1
 307 523 l 1,35,-1
 298 521 l 1,36,37
 231 583 231 583 130 660 c 1,29,-1
EndSplineSet
EndChar

StartChar: eacute
Encoding: 233 233 170
Width: 359
GlyphClass: 2
Flags: W
LayerCount: 2
Fore
SplineSet
340 386 m 0,0,1
 340 323 340 323 285 278 c 128,-1,2
 230 233 230 233 102 190 c 1,3,4
 101 179 101 179 101 169 c 0,5,6
 101 119 101 119 119 83.5 c 128,-1,7
 137 48 137 48 169.5 48 c 128,-1,8
 202 48 202 48 232 71.5 c 128,-1,9
 262 95 262 95 282 134 c 1,10,-1
 296 133 l 1,11,-1
 311 109 l 1,12,13
 282 56 282 56 237.5 22 c 128,-1,14
 193 -12 193 -12 144.5 -12 c 128,-1,15
 96 -12 96 -12 65 32 c 128,-1,16
 34 76 34 76 34 153 c 0,17,18
 34 268 34 268 105.5 366 c 128,-1,19
 177 464 177 464 261 464 c 0,20,21
 299 464 299 464 319.5 443.5 c 128,-1,22
 340 423 340 423 340 386 c 0,0,1
231 289 m 128,-1,24
 269 319 269 319 269 362.5 c 128,-1,25
 269 406 269 406 229.5 406 c 128,-1,26
 190 406 190 406 153.5 354.5 c 128,-1,27
 117 303 117 303 106 232 c 1,28,23
 193 259 193 259 231 289 c 128,-1,24
363 672 m 1,29,-1
 362 661 l 1,30,31
 278 597 278 597 194 521 c 1,32,-1
 185 523 l 1,33,-1
 165 542 l 1,34,35
 238 621 238 621 315 715 c 1,36,-1
 325 713 l 1,37,-1
 363 672 l 1,29,-1
EndSplineSet
EndChar

StartChar: ecircumflex
Encoding: 234 234 171
Width: 359
GlyphClass: 2
Flags: W
LayerCount: 2
Fore
SplineSet
340 386 m 0,0,1
 340 323 340 323 285 278 c 128,-1,2
 230 233 230 233 102 190 c 1,3,4
 101 179 101 179 101 169 c 0,5,6
 101 119 101 119 119 83.5 c 128,-1,7
 137 48 137 48 169.5 48 c 128,-1,8
 202 48 202 48 232 71.5 c 128,-1,9
 262 95 262 95 282 134 c 1,10,-1
 296 133 l 1,11,-1
 311 109 l 1,12,13
 282 56 282 56 237.5 22 c 128,-1,14
 193 -12 193 -12 144.5 -12 c 128,-1,15
 96 -12 96 -12 65 32 c 128,-1,16
 34 76 34 76 34 153 c 0,17,18
 34 268 34 268 105.5 366 c 128,-1,19
 177 464 177 464 261 464 c 0,20,21
 299 464 299 464 319.5 443.5 c 128,-1,22
 340 423 340 423 340 386 c 0,0,1
231 289 m 128,-1,24
 269 319 269 319 269 362.5 c 128,-1,25
 269 406 269 406 229.5 406 c 128,-1,26
 190 406 190 406 153.5 354.5 c 128,-1,27
 117 303 117 303 106 232 c 1,28,23
 193 259 193 259 231 289 c 128,-1,24
116 528 m 1,29,-1
 104 550 l 1,30,-1
 256 703 l 1,31,-1
 270 703 l 1,32,-1
 385 550 l 1,33,-1
 368 528 l 1,34,-1
 359 527 l 1,35,-1
 254 624 l 1,36,-1
 125 527 l 1,37,-1
 116 528 l 1,29,-1
EndSplineSet
EndChar

StartChar: edieresis
Encoding: 235 235 172
Width: 359
GlyphClass: 2
Flags: W
LayerCount: 2
Fore
SplineSet
340 386 m 0,0,1
 340 323 340 323 285 278 c 128,-1,2
 230 233 230 233 102 190 c 1,3,4
 101 179 101 179 101 169 c 0,5,6
 101 119 101 119 119 83.5 c 128,-1,7
 137 48 137 48 169.5 48 c 128,-1,8
 202 48 202 48 232 71.5 c 128,-1,9
 262 95 262 95 282 134 c 1,10,-1
 296 133 l 1,11,-1
 311 109 l 1,12,13
 282 56 282 56 237.5 22 c 128,-1,14
 193 -12 193 -12 144.5 -12 c 128,-1,15
 96 -12 96 -12 65 32 c 128,-1,16
 34 76 34 76 34 153 c 0,17,18
 34 268 34 268 105.5 366 c 128,-1,19
 177 464 177 464 261 464 c 0,20,21
 299 464 299 464 319.5 443.5 c 128,-1,22
 340 423 340 423 340 386 c 0,0,1
231 289 m 128,-1,24
 269 319 269 319 269 362.5 c 128,-1,25
 269 406 269 406 229.5 406 c 128,-1,26
 190 406 190 406 153.5 354.5 c 128,-1,27
 117 303 117 303 106 232 c 1,28,23
 193 259 193 259 231 289 c 128,-1,24
360 582.5 m 128,-1,30
 344 566 344 566 324 566 c 128,-1,31
 304 566 304 566 294.5 577.5 c 128,-1,32
 285 589 285 589 285 607.5 c 128,-1,33
 285 626 285 626 301.5 642.5 c 128,-1,34
 318 659 318 659 338 659 c 0,35,36
 376 659 376 659 376 621 c 0,37,29
 376 599 376 599 360 582.5 c 128,-1,30
200 582.5 m 128,-1,39
 184 566 184 566 164 566 c 128,-1,40
 144 566 144 566 134.5 577.5 c 128,-1,41
 125 589 125 589 125 607.5 c 128,-1,42
 125 626 125 626 141.5 642.5 c 128,-1,43
 158 659 158 659 178 659 c 0,44,45
 216 659 216 659 216 621 c 0,46,38
 216 599 216 599 200 582.5 c 128,-1,39
EndSplineSet
EndChar

StartChar: igrave
Encoding: 236 236 173
Width: 282
GlyphClass: 2
Flags: W
LayerCount: 2
Fore
SplineSet
50 660 m 1,0,-1
 49 671 l 1,1,-1
 87 712 l 1,2,-1
 97 714 l 1,3,4
 175 620 175 620 247 542 c 1,5,-1
 227 523 l 1,6,-1
 218 521 l 1,7,8
 151 583 151 583 50 660 c 1,0,-1
97 -12 m 0,9,10
 67 -12 67 -12 67 23 c 1,11,12
 118 331 118 331 118 359.5 c 128,-1,13
 118 388 118 388 108 398 c 128,-1,14
 98 408 98 408 76 408 c 2,15,-1
 35 408 l 1,16,-1
 42 446 l 1,17,-1
 204 452 l 1,18,-1
 213 440 l 1,19,20
 156 250 156 250 130 64 c 1,21,-1
 133 60 l 1,22,23
 145 60 145 60 212 119 c 1,24,-1
 224 118 l 1,25,-1
 237 94 l 1,26,27
 131 -12 131 -12 97 -12 c 0,9,10
EndSplineSet
EndChar

StartChar: iacute
Encoding: 237 237 174
Width: 282
GlyphClass: 2
Flags: W
LayerCount: 2
Fore
SplineSet
307 672 m 1,0,-1
 306 661 l 1,1,2
 222 597 222 597 138 521 c 1,3,-1
 129 523 l 1,4,-1
 109 542 l 1,5,6
 182 621 182 621 259 715 c 1,7,-1
 269 713 l 1,8,-1
 307 672 l 1,0,-1
97 -12 m 0,9,10
 67 -12 67 -12 67 23 c 1,11,12
 118 331 118 331 118 359.5 c 128,-1,13
 118 388 118 388 108 398 c 128,-1,14
 98 408 98 408 76 408 c 2,15,-1
 35 408 l 1,16,-1
 42 446 l 1,17,-1
 204 452 l 1,18,-1
 213 440 l 1,19,20
 156 250 156 250 130 64 c 1,21,-1
 133 60 l 1,22,23
 145 60 145 60 212 119 c 1,24,-1
 224 118 l 1,25,-1
 237 94 l 1,26,27
 131 -12 131 -12 97 -12 c 0,9,10
EndSplineSet
EndChar

StartChar: icircumflex
Encoding: 238 238 175
Width: 282
GlyphClass: 2
Flags: W
LayerCount: 2
Fore
SplineSet
97 -12 m 0,0,1
 67 -12 67 -12 67 23 c 1,2,3
 118 331 118 331 118 359.5 c 128,-1,4
 118 388 118 388 108 398 c 128,-1,5
 98 408 98 408 76 408 c 2,6,-1
 35 408 l 1,7,-1
 42 446 l 1,8,-1
 204 452 l 1,9,-1
 213 440 l 1,10,11
 156 250 156 250 130 64 c 1,12,-1
 133 60 l 1,13,14
 145 60 145 60 212 119 c 1,15,-1
 224 118 l 1,16,-1
 237 94 l 1,17,18
 131 -12 131 -12 97 -12 c 0,0,1
47 527 m 1,19,-1
 35 549 l 1,20,-1
 187 702 l 1,21,-1
 201 702 l 1,22,-1
 316 549 l 1,23,-1
 299 527 l 1,24,-1
 290 526 l 1,25,-1
 185 623 l 1,26,-1
 56 526 l 1,27,-1
 47 527 l 1,19,-1
EndSplineSet
EndChar

StartChar: idieresis
Encoding: 239 239 176
Width: 282
GlyphClass: 2
Flags: W
LayerCount: 2
Fore
SplineSet
289 582.5 m 128,-1,1
 273 566 273 566 253 566 c 128,-1,2
 233 566 233 566 223.5 577.5 c 128,-1,3
 214 589 214 589 214 607.5 c 128,-1,4
 214 626 214 626 230.5 642.5 c 128,-1,5
 247 659 247 659 267 659 c 0,6,7
 305 659 305 659 305 621 c 0,8,0
 305 599 305 599 289 582.5 c 128,-1,1
129 582.5 m 128,-1,10
 113 566 113 566 93 566 c 128,-1,11
 73 566 73 566 63.5 577.5 c 128,-1,12
 54 589 54 589 54 607.5 c 128,-1,13
 54 626 54 626 70.5 642.5 c 128,-1,14
 87 659 87 659 107 659 c 0,15,16
 145 659 145 659 145 621 c 0,17,9
 145 599 145 599 129 582.5 c 128,-1,10
97 -12 m 0,18,19
 67 -12 67 -12 67 23 c 1,20,21
 118 331 118 331 118 359.5 c 128,-1,22
 118 388 118 388 108 398 c 128,-1,23
 98 408 98 408 76 408 c 2,24,-1
 35 408 l 1,25,-1
 42 446 l 1,26,-1
 204 452 l 1,27,-1
 213 440 l 1,28,29
 156 250 156 250 130 64 c 1,30,-1
 133 60 l 1,31,32
 145 60 145 60 212 119 c 1,33,-1
 224 118 l 1,34,-1
 237 94 l 1,35,36
 131 -12 131 -12 97 -12 c 0,18,19
EndSplineSet
EndChar

StartChar: eth
Encoding: 240 240 177
Width: 488
GlyphClass: 2
Flags: W
LayerCount: 2
Fore
SplineSet
454 289 m 0,0,1
 454 162 454 162 380 75 c 128,-1,2
 306 -12 306 -12 205 -12 c 0,3,4
 128 -12 128 -12 82 40 c 128,-1,5
 36 92 36 92 36 176 c 0,6,7
 36 288 36 288 111 370.5 c 128,-1,8
 186 453 186 453 282 453 c 0,9,10
 303 453 303 453 321.5 442.5 c 128,-1,11
 340 432 340 432 349 427 c 1,12,-1
 351 429 l 1,13,14
 328 509 328 509 279 572 c 1,15,-1
 143 508 l 1,16,-1
 135 511 l 1,17,-1
 134 541 l 1,18,-1
 253 599 l 1,19,20
 196 659 196 659 109 704 c 1,21,-1
 129 737 l 1,22,-1
 139 741 l 1,23,24
 238 693 238 693 310 625 c 1,25,-1
 451 692 l 1,26,-1
 458 687 l 1,27,-1
 459 658 l 1,28,-1
 336 599 l 1,29,30
 454 469 454 469 454 289 c 0,0,1
369 276 m 0,31,32
 369 329 369 329 365 358 c 1,33,34
 329 399 329 399 263 399 c 128,-1,35
 197 399 197 399 158.5 345.5 c 128,-1,36
 120 292 120 292 120 210 c 128,-1,37
 120 128 120 128 151.5 82.5 c 128,-1,38
 183 37 183 37 239.5 37 c 128,-1,39
 296 37 296 37 332.5 99.5 c 128,-1,40
 369 162 369 162 369 276 c 0,31,32
EndSplineSet
EndChar

StartChar: ntilde
Encoding: 241 241 178
Width: 502
GlyphClass: 2
Flags: W
LayerCount: 2
Fore
SplineSet
459 94 m 1,0,1
 353 -12 353 -12 320.5 -12 c 128,-1,2
 288 -12 288 -12 288 17 c 128,-1,3
 288 46 288 46 326 170 c 128,-1,4
 364 294 364 294 364 321 c 0,5,6
 364 371 364 371 330 371 c 0,7,8
 299 371 299 371 247.5 295 c 128,-1,9
 196 219 196 219 144 96 c 1,10,-1
 133 14 l 2,11,12
 132 9 132 9 107.5 0 c 128,-1,13
 83 -9 83 -9 71 -9 c 1,14,-1
 64 0 l 1,15,16
 119 336 119 336 119 362.5 c 128,-1,17
 119 389 119 389 109 398.5 c 128,-1,18
 99 408 99 408 76 408 c 2,19,-1
 35 408 l 1,20,-1
 42 446 l 1,21,-1
 204 452 l 1,22,-1
 213 440 l 1,23,24
 171 319 171 319 152 202 c 1,25,-1
 157 199 l 1,26,27
 264 408 264 408 360 464 c 1,28,29
 392 464 392 464 414 436.5 c 128,-1,30
 436 409 436 409 436 369 c 128,-1,31
 436 329 436 329 397 210.5 c 128,-1,32
 358 92 358 92 352 64 c 1,33,-1
 355 60 l 1,34,35
 362 60 362 60 375 70 c 128,-1,36
 388 80 388 80 434 119 c 1,37,-1
 446 118 l 1,38,-1
 459 94 l 1,0,1
314.5 653.5 m 128,-1,40
 368 637 368 637 380 637 c 0,41,42
 401 637 401 637 436 678 c 2,43,-1
 448 692 l 1,44,-1
 454 692 l 1,45,-1
 474 671 l 1,46,-1
 473 666 l 1,47,-1
 389 577 l 1,48,-1
 373 573 l 1,49,50
 356 573 356 573 303 589.5 c 128,-1,51
 250 606 250 606 238.5 606 c 128,-1,52
 227 606 227 606 210 592 c 128,-1,53
 193 578 193 578 170 551 c 1,54,-1
 163 551 l 1,55,-1
 144 572 l 1,56,-1
 145 577 l 1,57,-1
 229 666 l 1,58,-1
 244 670 l 1,59,39
 261 670 261 670 314.5 653.5 c 128,-1,40
EndSplineSet
EndChar

StartChar: ograve
Encoding: 242 242 179
Width: 406
GlyphClass: 2
Flags: W
LayerCount: 2
Fore
SplineSet
186 43 m 0,0,1
 235 43 235 43 267.5 104.5 c 128,-1,2
 300 166 300 166 300 246.5 c 128,-1,3
 300 327 300 327 278.5 365.5 c 128,-1,4
 257 404 257 404 219 404 c 0,5,6
 170 404 170 404 138 346.5 c 128,-1,7
 106 289 106 289 106 210.5 c 128,-1,8
 106 132 106 132 128.5 87.5 c 128,-1,9
 151 43 151 43 186 43 c 0,0,1
146 -12 m 0,10,11
 96 -12 96 -12 65 33 c 128,-1,12
 34 78 34 78 34 152 c 0,13,14
 34 275 34 275 102.5 369.5 c 128,-1,15
 171 464 171 464 261 464 c 0,16,17
 314 464 314 464 344.5 424.5 c 128,-1,18
 375 385 375 385 375 315 c 0,19,20
 375 183 375 183 307 85.5 c 128,-1,21
 239 -12 239 -12 146 -12 c 0,10,11
138 660 m 1,22,-1
 137 671 l 1,23,-1
 175 712 l 1,24,-1
 185 714 l 1,25,26
 263 620 263 620 335 542 c 1,27,-1
 315 523 l 1,28,-1
 306 521 l 1,29,30
 239 583 239 583 138 660 c 1,22,-1
EndSplineSet
EndChar

StartChar: oacute
Encoding: 243 243 180
Width: 406
GlyphClass: 2
Flags: W
LayerCount: 2
Fore
SplineSet
186 43 m 0,0,1
 235 43 235 43 267.5 104.5 c 128,-1,2
 300 166 300 166 300 246.5 c 128,-1,3
 300 327 300 327 278.5 365.5 c 128,-1,4
 257 404 257 404 219 404 c 0,5,6
 170 404 170 404 138 346.5 c 128,-1,7
 106 289 106 289 106 210.5 c 128,-1,8
 106 132 106 132 128.5 87.5 c 128,-1,9
 151 43 151 43 186 43 c 0,0,1
146 -12 m 0,10,11
 96 -12 96 -12 65 33 c 128,-1,12
 34 78 34 78 34 152 c 0,13,14
 34 275 34 275 102.5 369.5 c 128,-1,15
 171 464 171 464 261 464 c 0,16,17
 314 464 314 464 344.5 424.5 c 128,-1,18
 375 385 375 385 375 315 c 0,19,20
 375 183 375 183 307 85.5 c 128,-1,21
 239 -12 239 -12 146 -12 c 0,10,11
389 672 m 1,22,-1
 388 661 l 1,23,24
 304 597 304 597 220 521 c 1,25,-1
 211 523 l 1,26,-1
 191 542 l 1,27,28
 264 621 264 621 341 715 c 1,29,-1
 351 713 l 1,30,-1
 389 672 l 1,22,-1
EndSplineSet
EndChar

StartChar: ocircumflex
Encoding: 244 244 181
Width: 406
GlyphClass: 2
Flags: W
LayerCount: 2
Fore
SplineSet
146 -12 m 0,0,1
 96 -12 96 -12 65 33 c 128,-1,2
 34 78 34 78 34 152 c 0,3,4
 34 275 34 275 102.5 369.5 c 128,-1,5
 171 464 171 464 261 464 c 0,6,7
 314 464 314 464 344.5 424.5 c 128,-1,8
 375 385 375 385 375 315 c 0,9,10
 375 183 375 183 307 85.5 c 128,-1,11
 239 -12 239 -12 146 -12 c 0,0,1
186 43 m 0,12,13
 235 43 235 43 267.5 104.5 c 128,-1,14
 300 166 300 166 300 246.5 c 128,-1,15
 300 327 300 327 278.5 365.5 c 128,-1,16
 257 404 257 404 219 404 c 0,17,18
 170 404 170 404 138 346.5 c 128,-1,19
 106 289 106 289 106 210.5 c 128,-1,20
 106 132 106 132 128.5 87.5 c 128,-1,21
 151 43 151 43 186 43 c 0,12,13
126 528 m 1,22,-1
 114 550 l 1,23,-1
 266 703 l 1,24,-1
 280 703 l 1,25,-1
 395 550 l 1,26,-1
 378 528 l 1,27,-1
 369 527 l 1,28,-1
 264 624 l 1,29,-1
 135 527 l 1,30,-1
 126 528 l 1,22,-1
EndSplineSet
EndChar

StartChar: otilde
Encoding: 245 245 182
Width: 406
GlyphClass: 2
Flags: W
LayerCount: 2
Fore
SplineSet
186 43 m 0,0,1
 235 43 235 43 267.5 104.5 c 128,-1,2
 300 166 300 166 300 246.5 c 128,-1,3
 300 327 300 327 278.5 365.5 c 128,-1,4
 257 404 257 404 219 404 c 0,5,6
 170 404 170 404 138 346.5 c 128,-1,7
 106 289 106 289 106 210.5 c 128,-1,8
 106 132 106 132 128.5 87.5 c 128,-1,9
 151 43 151 43 186 43 c 0,0,1
146 -12 m 0,10,11
 96 -12 96 -12 65 33 c 128,-1,12
 34 78 34 78 34 152 c 0,13,14
 34 275 34 275 102.5 369.5 c 128,-1,15
 171 464 171 464 261 464 c 0,16,17
 314 464 314 464 344.5 424.5 c 128,-1,18
 375 385 375 385 375 315 c 0,19,20
 375 183 375 183 307 85.5 c 128,-1,21
 239 -12 239 -12 146 -12 c 0,10,11
269.5 653.5 m 128,-1,23
 323 637 323 637 334 637 c 0,24,25
 356 637 356 637 391 678 c 2,26,-1
 403 692 l 1,27,-1
 409 692 l 1,28,-1
 429 671 l 1,29,-1
 428 666 l 1,30,-1
 344 577 l 1,31,-1
 328 573 l 1,32,33
 311 573 311 573 258 589.5 c 128,-1,34
 205 606 205 606 193.5 606 c 128,-1,35
 182 606 182 606 165 592 c 128,-1,36
 148 578 148 578 125 551 c 1,37,-1
 118 551 l 1,38,-1
 99 572 l 1,39,-1
 100 577 l 1,40,-1
 184 666 l 1,41,-1
 199 670 l 1,42,22
 216 670 216 670 269.5 653.5 c 128,-1,23
EndSplineSet
EndChar

StartChar: odieresis
Encoding: 246 246 183
Width: 406
GlyphClass: 2
Flags: W
LayerCount: 2
Fore
SplineSet
186 43 m 0,0,1
 235 43 235 43 267.5 104.5 c 128,-1,2
 300 166 300 166 300 246.5 c 128,-1,3
 300 327 300 327 278.5 365.5 c 128,-1,4
 257 404 257 404 219 404 c 0,5,6
 170 404 170 404 138 346.5 c 128,-1,7
 106 289 106 289 106 210.5 c 128,-1,8
 106 132 106 132 128.5 87.5 c 128,-1,9
 151 43 151 43 186 43 c 0,0,1
146 -12 m 0,10,11
 96 -12 96 -12 65 33 c 128,-1,12
 34 78 34 78 34 152 c 0,13,14
 34 275 34 275 102.5 369.5 c 128,-1,15
 171 464 171 464 261 464 c 0,16,17
 314 464 314 464 344.5 424.5 c 128,-1,18
 375 385 375 385 375 315 c 0,19,20
 375 183 375 183 307 85.5 c 128,-1,21
 239 -12 239 -12 146 -12 c 0,10,11
371 582.5 m 128,-1,23
 355 566 355 566 335 566 c 128,-1,24
 315 566 315 566 305.5 577.5 c 128,-1,25
 296 589 296 589 296 607.5 c 128,-1,26
 296 626 296 626 312.5 642.5 c 128,-1,27
 329 659 329 659 349 659 c 0,28,29
 387 659 387 659 387 621 c 0,30,22
 387 599 387 599 371 582.5 c 128,-1,23
211 582.5 m 128,-1,32
 195 566 195 566 175 566 c 128,-1,33
 155 566 155 566 145.5 577.5 c 128,-1,34
 136 589 136 589 136 607.5 c 128,-1,35
 136 626 136 626 152.5 642.5 c 128,-1,36
 169 659 169 659 189 659 c 0,37,38
 227 659 227 659 227 621 c 0,39,31
 227 599 227 599 211 582.5 c 128,-1,32
EndSplineSet
EndChar

StartChar: divide
Encoding: 247 247 184
Width: 486
GlyphClass: 2
Flags: W
LayerCount: 2
Fore
SplineSet
472 297 m 1,0,-1
 477 287 l 1,1,-1
 463 236 l 1,2,-1
 25 234 l 1,3,-1
 20 243 l 1,4,-1
 37 292 l 1,5,6
 180 291 180 291 266 291 c 1,7,-1
 472 297 l 1,0,-1
261.5 49.5 m 128,-1,9
 242 29 242 29 215.5 29 c 128,-1,10
 189 29 189 29 176.5 43.5 c 128,-1,11
 164 58 164 58 164 82.5 c 128,-1,12
 164 107 164 107 183.5 127.5 c 128,-1,13
 203 148 203 148 229.5 148 c 128,-1,14
 256 148 256 148 268.5 134 c 128,-1,15
 281 120 281 120 281 95 c 128,-1,8
 281 70 281 70 261.5 49.5 c 128,-1,9
304.5 398.5 m 128,-1,17
 285 378 285 378 258 378 c 128,-1,18
 231 378 231 378 219 392.5 c 128,-1,19
 207 407 207 407 207 431.5 c 128,-1,20
 207 456 207 456 226.5 476.5 c 128,-1,21
 246 497 246 497 272.5 497 c 128,-1,22
 299 497 299 497 311.5 483 c 128,-1,23
 324 469 324 469 324 444 c 128,-1,16
 324 419 324 419 304.5 398.5 c 128,-1,17
EndSplineSet
EndChar

StartChar: oslash
Encoding: 248 248 185
Width: 406
GlyphClass: 2
Flags: W
LayerCount: 2
Fore
SplineSet
34 152 m 0,0,1
 34 275 34 275 102.5 369.5 c 128,-1,2
 171 464 171 464 261 464 c 0,3,4
 284 464 284 464 302 457 c 1,5,-1
 345 539 l 1,6,-1
 374 532 l 1,7,-1
 377 520 l 1,8,-1
 332 437 l 1,9,10
 375 397 375 397 375 315 c 0,11,12
 375 183 375 183 307 85.5 c 128,-1,13
 239 -12 239 -12 146 -12 c 0,14,15
 122 -12 122 -12 102 -1 c 1,16,-1
 51 -98 l 1,17,-1
 24 -92 l 1,18,-1
 22 -82 l 1,19,-1
 75 20 l 1,20,21
 34 64 34 64 34 152 c 0,0,1
186 43 m 0,22,23
 235 43 235 43 267.5 104.5 c 128,-1,24
 300 166 300 166 300 260 c 0,25,26
 300 312 300 312 286 349 c 1,27,-1
 139 69 l 1,28,29
 159 43 159 43 186 43 c 0,22,23
106 202 m 0,30,31
 106 147 106 147 120 107 c 1,32,-1
 264 384 l 1,33,34
 244 404 244 404 219 404 c 0,35,36
 170 404 170 404 138 346.5 c 128,-1,37
 106 289 106 289 106 202 c 0,30,31
EndSplineSet
EndChar

StartChar: ugrave
Encoding: 249 249 186
Width: 486
GlyphClass: 2
Flags: W
LayerCount: 2
Fore
SplineSet
75 11 m 128,-1,1
 51 34 51 34 51 68 c 128,-1,2
 51 102 51 102 88 227 c 128,-1,3
 125 352 125 352 125 372 c 0,4,5
 125 408 125 408 83 408 c 2,6,-1
 42 408 l 1,7,-1
 50 446 l 1,8,-1
 212 452 l 1,9,-1
 221 440 l 1,10,11
 122 162 122 162 122 102 c 0,12,13
 122 67 122 67 151 67 c 128,-1,14
 180 67 180 67 235 149 c 128,-1,15
 290 231 290 231 347 358 c 1,16,-1
 365 453 l 1,17,-1
 374 456 l 1,18,-1
 432 447 l 1,19,-1
 439 439 l 1,20,21
 382 250 382 250 356 64 c 1,22,-1
 359 60 l 1,23,24
 366 60 366 60 379 70 c 128,-1,25
 392 80 392 80 438 119 c 1,26,-1
 450 118 l 1,27,-1
 463 94 l 1,28,29
 350 -12 350 -12 323 -12 c 0,30,31
 287 -12 287 -12 287 16 c 0,32,33
 287 43 287 43 330 225 c 1,34,-1
 321 228 l 1,35,36
 232 57 232 57 139 -12 c 1,37,0
 99 -12 99 -12 75 11 c 128,-1,1
174 660 m 1,38,-1
 173 671 l 1,39,-1
 211 712 l 1,40,-1
 221 714 l 1,41,42
 299 620 299 620 371 542 c 1,43,-1
 351 523 l 1,44,-1
 342 521 l 1,45,46
 275 583 275 583 174 660 c 1,38,-1
EndSplineSet
EndChar

StartChar: uacute
Encoding: 250 250 187
Width: 486
GlyphClass: 2
Flags: W
LayerCount: 2
Fore
SplineSet
75 11 m 128,-1,1
 51 34 51 34 51 68 c 128,-1,2
 51 102 51 102 88 227 c 128,-1,3
 125 352 125 352 125 372 c 0,4,5
 125 408 125 408 83 408 c 2,6,-1
 42 408 l 1,7,-1
 50 446 l 1,8,-1
 212 452 l 1,9,-1
 221 440 l 1,10,11
 122 162 122 162 122 102 c 0,12,13
 122 67 122 67 151 67 c 128,-1,14
 180 67 180 67 235 149 c 128,-1,15
 290 231 290 231 347 358 c 1,16,-1
 365 453 l 1,17,-1
 374 456 l 1,18,-1
 432 447 l 1,19,-1
 439 439 l 1,20,21
 382 250 382 250 356 64 c 1,22,-1
 359 60 l 1,23,24
 366 60 366 60 379 70 c 128,-1,25
 392 80 392 80 438 119 c 1,26,-1
 450 118 l 1,27,-1
 463 94 l 1,28,29
 350 -12 350 -12 323 -12 c 0,30,31
 287 -12 287 -12 287 16 c 0,32,33
 287 43 287 43 330 225 c 1,34,-1
 321 228 l 1,35,36
 232 57 232 57 139 -12 c 1,37,0
 99 -12 99 -12 75 11 c 128,-1,1
424 672 m 1,38,-1
 423 661 l 1,39,40
 339 597 339 597 255 521 c 1,41,-1
 246 523 l 1,42,-1
 226 542 l 1,43,44
 299 621 299 621 376 715 c 1,45,-1
 386 713 l 1,46,-1
 424 672 l 1,38,-1
EndSplineSet
EndChar

StartChar: ucircumflex
Encoding: 251 251 188
Width: 486
GlyphClass: 2
Flags: W
LayerCount: 2
Fore
SplineSet
75 11 m 128,-1,1
 51 34 51 34 51 68 c 128,-1,2
 51 102 51 102 88 227 c 128,-1,3
 125 352 125 352 125 372 c 0,4,5
 125 408 125 408 83 408 c 2,6,-1
 42 408 l 1,7,-1
 50 446 l 1,8,-1
 212 452 l 1,9,-1
 221 440 l 1,10,11
 122 162 122 162 122 102 c 0,12,13
 122 67 122 67 151 67 c 128,-1,14
 180 67 180 67 235 149 c 128,-1,15
 290 231 290 231 347 358 c 1,16,-1
 365 453 l 1,17,-1
 374 456 l 1,18,-1
 432 447 l 1,19,-1
 439 439 l 1,20,21
 382 250 382 250 356 64 c 1,22,-1
 359 60 l 1,23,24
 366 60 366 60 379 70 c 128,-1,25
 392 80 392 80 438 119 c 1,26,-1
 450 118 l 1,27,-1
 463 94 l 1,28,29
 350 -12 350 -12 323 -12 c 0,30,31
 287 -12 287 -12 287 16 c 0,32,33
 287 43 287 43 330 225 c 1,34,-1
 321 228 l 1,35,36
 232 57 232 57 139 -12 c 1,37,0
 99 -12 99 -12 75 11 c 128,-1,1
160 528 m 1,38,-1
 148 550 l 1,39,-1
 300 703 l 1,40,-1
 314 703 l 1,41,-1
 429 550 l 1,42,-1
 412 528 l 1,43,-1
 403 527 l 1,44,-1
 298 624 l 1,45,-1
 169 527 l 1,46,-1
 160 528 l 1,38,-1
EndSplineSet
EndChar

StartChar: udieresis
Encoding: 252 252 189
Width: 486
GlyphClass: 2
Flags: W
LayerCount: 2
Fore
SplineSet
75 11 m 128,-1,1
 51 34 51 34 51 68 c 128,-1,2
 51 102 51 102 88 227 c 128,-1,3
 125 352 125 352 125 372 c 0,4,5
 125 408 125 408 83 408 c 2,6,-1
 42 408 l 1,7,-1
 50 446 l 1,8,-1
 212 452 l 1,9,-1
 221 440 l 1,10,11
 122 162 122 162 122 102 c 0,12,13
 122 67 122 67 151 67 c 128,-1,14
 180 67 180 67 235 149 c 128,-1,15
 290 231 290 231 347 358 c 1,16,-1
 365 453 l 1,17,-1
 374 456 l 1,18,-1
 432 447 l 1,19,-1
 439 439 l 1,20,21
 382 250 382 250 356 64 c 1,22,-1
 359 60 l 1,23,24
 366 60 366 60 379 70 c 128,-1,25
 392 80 392 80 438 119 c 1,26,-1
 450 118 l 1,27,-1
 463 94 l 1,28,29
 350 -12 350 -12 323 -12 c 0,30,31
 287 -12 287 -12 287 16 c 0,32,33
 287 43 287 43 330 225 c 1,34,-1
 321 228 l 1,35,36
 232 57 232 57 139 -12 c 1,37,0
 99 -12 99 -12 75 11 c 128,-1,1
404 582.5 m 128,-1,39
 388 566 388 566 368 566 c 128,-1,40
 348 566 348 566 338.5 577.5 c 128,-1,41
 329 589 329 589 329 607.5 c 128,-1,42
 329 626 329 626 345.5 642.5 c 128,-1,43
 362 659 362 659 382 659 c 0,44,45
 420 659 420 659 420 621 c 0,46,38
 420 599 420 599 404 582.5 c 128,-1,39
244 582.5 m 128,-1,48
 228 566 228 566 208 566 c 128,-1,49
 188 566 188 566 178.5 577.5 c 128,-1,50
 169 589 169 589 169 607.5 c 128,-1,51
 169 626 169 626 185.5 642.5 c 128,-1,52
 202 659 202 659 222 659 c 0,53,54
 260 659 260 659 260 621 c 0,55,47
 260 599 260 599 244 582.5 c 128,-1,48
EndSplineSet
EndChar

StartChar: yacute
Encoding: 253 253 190
Width: 438
GlyphClass: 2
Flags: W
LayerCount: 2
Fore
SplineSet
423 388 m 0,0,1
 423 293 423 293 243 21 c 1,2,3
 150 -117 150 -117 84 -180 c 128,-1,4
 18 -243 18 -243 -34 -243 c 0,5,6
 -63 -243 -63 -243 -84.5 -232.5 c 128,-1,7
 -106 -222 -106 -222 -110 -206 c 1,8,9
 -110 -185 -110 -185 -92 -126 c 1,10,-1
 -78 -126 l 1,11,12
 -54 -165 -54 -165 -12.5 -165 c 128,-1,13
 29 -165 29 -165 64 -138.5 c 128,-1,14
 99 -112 99 -112 151 -43 c 1,15,16
 140 164 140 164 113 362 c 0,17,18
 109 385 109 385 100.5 393.5 c 128,-1,19
 92 402 92 402 72 402 c 1,20,-1
 20 397 l 1,21,-1
 23 435 l 1,22,-1
 171 459 l 1,23,-1
 182 449 l 1,24,25
 202 284 202 284 202 69 c 0,26,27
 202 58 202 58 202 48 c 1,28,-1
 212 48 l 1,29,30
 351 266 351 266 351 346 c 0,31,32
 351 393 351 393 303 425 c 1,33,-1
 307 442 l 1,34,-1
 388 464 l 1,35,36
 423 442 423 442 423 388 c 0,0,1
398 672 m 1,37,-1
 397 661 l 1,38,39
 313 597 313 597 229 521 c 1,40,-1
 220 523 l 1,41,-1
 200 542 l 1,42,43
 273 621 273 621 350 715 c 1,44,-1
 360 713 l 1,45,-1
 398 672 l 1,37,-1
EndSplineSet
EndChar

StartChar: thorn
Encoding: 254 254 191
Width: 453
GlyphClass: 2
Flags: W
LayerCount: 2
Fore
SplineSet
174 -189 m 1,0,-1
 175 -195 l 1,1,-1
 169 -228 l 1,2,3
 88 -228 88 -228 -29 -235 c 1,4,-1
 -23 -199 l 1,5,6
 2 -197 2 -197 14 -183.5 c 128,-1,7
 26 -170 26 -170 32 -133 c 0,8,9
 149 616 149 616 149 652.5 c 128,-1,10
 149 689 149 689 107 689 c 2,11,-1
 66 689 l 1,12,-1
 72 727 l 1,13,-1
 233 733 l 1,14,-1
 242 721 l 1,15,16
 178 452 178 452 141 202 c 1,17,-1
 144 200 l 1,18,19
 193 305 193 305 233 366 c 128,-1,20
 273 427 273 427 318 464 c 1,21,22
 363 464 363 464 391.5 420.5 c 128,-1,23
 420 377 420 377 420 307 c 0,24,25
 420 185 420 185 351 88.5 c 128,-1,26
 282 -8 282 -8 195 -8 c 0,27,28
 155 -8 155 -8 111 2 c 1,29,30
 90 -149 90 -149 90 -160.5 c 128,-1,31
 90 -172 90 -172 97.5 -180.5 c 128,-1,32
 105 -189 105 -189 133 -189 c 2,33,-1
 174 -189 l 1,0,-1
305 381 m 0,34,35
 282 381 282 381 232.5 297.5 c 128,-1,36
 183 214 183 214 121 69 c 1,37,38
 184 46 184 46 231 46 c 128,-1,39
 278 46 278 46 314.5 111.5 c 128,-1,40
 351 177 351 177 351 259 c 0,41,42
 351 306 351 306 337 343.5 c 128,-1,43
 323 381 323 381 305 381 c 0,34,35
EndSplineSet
EndChar

StartChar: ydieresis
Encoding: 255 255 192
Width: 438
GlyphClass: 2
Flags: W
LayerCount: 2
Fore
SplineSet
423 388 m 0,0,1
 423 293 423 293 243 21 c 1,2,3
 150 -117 150 -117 84 -180 c 128,-1,4
 18 -243 18 -243 -34 -243 c 0,5,6
 -63 -243 -63 -243 -84.5 -232.5 c 128,-1,7
 -106 -222 -106 -222 -110 -206 c 1,8,9
 -110 -185 -110 -185 -92 -126 c 1,10,-1
 -78 -126 l 1,11,12
 -54 -165 -54 -165 -12.5 -165 c 128,-1,13
 29 -165 29 -165 64 -138.5 c 128,-1,14
 99 -112 99 -112 151 -43 c 1,15,16
 140 164 140 164 113 362 c 0,17,18
 109 385 109 385 100.5 393.5 c 128,-1,19
 92 402 92 402 72 402 c 1,20,-1
 20 397 l 1,21,-1
 23 435 l 1,22,-1
 171 459 l 1,23,-1
 182 449 l 1,24,25
 202 284 202 284 202 69 c 0,26,27
 202 58 202 58 202 48 c 1,28,-1
 212 48 l 1,29,30
 351 266 351 266 351 346 c 0,31,32
 351 393 351 393 303 425 c 1,33,-1
 307 442 l 1,34,-1
 388 464 l 1,35,36
 423 442 423 442 423 388 c 0,0,1
378 582.5 m 128,-1,38
 362 566 362 566 342 566 c 128,-1,39
 322 566 322 566 312.5 577.5 c 128,-1,40
 303 589 303 589 303 607.5 c 128,-1,41
 303 626 303 626 319.5 642.5 c 128,-1,42
 336 659 336 659 356 659 c 0,43,44
 394 659 394 659 394 621 c 0,45,37
 394 599 394 599 378 582.5 c 128,-1,38
218 582.5 m 128,-1,47
 202 566 202 566 182 566 c 128,-1,48
 162 566 162 566 152.5 577.5 c 128,-1,49
 143 589 143 589 143 607.5 c 128,-1,50
 143 626 143 626 159.5 642.5 c 128,-1,51
 176 659 176 659 196 659 c 0,52,53
 234 659 234 659 234 621 c 0,54,46
 234 599 234 599 218 582.5 c 128,-1,47
EndSplineSet
EndChar

StartChar: Amacron
Encoding: 256 256 193
Width: 558
GlyphClass: 2
Flags: W
LayerCount: 2
Fore
SplineSet
287 -10 m 1,0,-1
 285 -3 l 1,1,-1
 293 33 l 1,2,3
 348 37 348 37 366.5 47 c 128,-1,4
 385 57 385 57 385 83 c 0,5,6
 385 96 385 96 363 234 c 1,7,8
 339 235 339 235 279.5 235 c 128,-1,9
 220 235 220 235 156 227 c 1,10,-1
 107 119 l 2,11,12
 93 90 93 90 93 73 c 0,13,14
 93 37 93 37 146 37 c 2,15,-1
 202 37 l 1,16,-1
 202 34 l 1,17,-1
 192 -7 l 1,18,19
 124 0 124 0 60 0 c 1,20,-1
 -45 -3 l 1,21,-1
 -32 42 l 1,22,23
 -3 45 -3 45 15.5 61.5 c 128,-1,24
 34 78 34 78 54 120 c 2,25,-1
 302 631 l 1,26,-1
 358 648 l 1,27,-1
 366 649 l 1,28,29
 410 342 410 342 456 111 c 0,30,31
 463 73 463 73 480.5 58.5 c 128,-1,32
 498 44 498 44 540 39 c 1,33,-1
 542 36 l 1,34,-1
 531 -3 l 1,35,36
 462 0 462 0 413.5 0 c 128,-1,37
 365 0 365 0 287 -10 c 1,0,-1
264 271 m 2,38,39
 311 271 311 271 355 277 c 1,40,-1
 311 544 l 1,41,-1
 304 544 l 1,42,-1
 179 271 l 1,43,-1
 264 271 l 2,38,39
493 788 m 1,44,-1
 498 778 l 1,45,-1
 485 731 l 1,46,-1
 210 729 l 1,47,-1
 205 738 l 1,48,-1
 221 783 l 1,49,50
 312 782 312 782 368 782 c 1,51,-1
 493 788 l 1,44,-1
EndSplineSet
EndChar

StartChar: amacron
Encoding: 257 257 194
Width: 461
GlyphClass: 2
Flags: W
LayerCount: 2
Fore
SplineSet
298 -12 m 0,0,1
 262 -12 262 -12 262 17 c 0,2,3
 262 35 262 35 305 225 c 1,4,-1
 299 227 l 1,5,6
 205 53 205 53 112 -12 c 1,7,8
 74 -12 74 -12 53 23.5 c 128,-1,9
 32 59 32 59 32 124 c 0,10,11
 32 247 32 247 104.5 353.5 c 128,-1,12
 177 460 177 460 261 460 c 1,13,-1
 361 444 l 1,14,-1
 370 469 l 1,15,-1
 375 470 l 1,16,-1
 406 455 l 1,17,-1
 414 443 l 1,18,19
 357 250 357 250 331 64 c 1,20,-1
 334 60 l 1,21,22
 341 60 341 60 354 70 c 128,-1,23
 367 80 367 80 413 119 c 1,24,-1
 425 118 l 1,25,-1
 438 94 l 1,26,27
 326 -12 326 -12 298 -12 c 0,0,1
131 69 m 0,28,29
 159 69 159 69 217.5 158.5 c 128,-1,30
 276 248 276 248 331 373 c 1,31,32
 277 406 277 406 229 406 c 128,-1,33
 181 406 181 406 141.5 334 c 128,-1,34
 102 262 102 262 102 173 c 0,35,36
 102 130 102 130 110.5 99.5 c 128,-1,37
 119 69 119 69 131 69 c 0,28,29
421 653 m 1,38,-1
 425 643 l 1,39,-1
 412 596 l 1,40,-1
 138 594 l 1,41,-1
 133 603 l 1,42,-1
 148 648 l 1,43,44
 239 647 239 647 296 647 c 1,45,-1
 421 653 l 1,38,-1
EndSplineSet
EndChar

StartChar: Abreve
Encoding: 258 258 195
Width: 558
GlyphClass: 2
Flags: W
LayerCount: 2
Fore
SplineSet
287 -10 m 1,0,-1
 285 -3 l 1,1,-1
 293 33 l 1,2,3
 348 37 348 37 366.5 47 c 128,-1,4
 385 57 385 57 385 83 c 0,5,6
 385 96 385 96 363 234 c 1,7,8
 339 235 339 235 279.5 235 c 128,-1,9
 220 235 220 235 156 227 c 1,10,-1
 107 119 l 2,11,12
 93 90 93 90 93 73 c 0,13,14
 93 37 93 37 146 37 c 2,15,-1
 202 37 l 1,16,-1
 202 34 l 1,17,-1
 192 -7 l 1,18,19
 124 0 124 0 60 0 c 1,20,-1
 -45 -3 l 1,21,-1
 -32 42 l 1,22,23
 -3 45 -3 45 15.5 61.5 c 128,-1,24
 34 78 34 78 54 120 c 2,25,-1
 302 631 l 1,26,-1
 358 648 l 1,27,-1
 366 649 l 1,28,29
 410 342 410 342 456 111 c 0,30,31
 463 73 463 73 480.5 58.5 c 128,-1,32
 498 44 498 44 540 39 c 1,33,-1
 542 36 l 1,34,-1
 531 -3 l 1,35,36
 462 0 462 0 413.5 0 c 128,-1,37
 365 0 365 0 287 -10 c 1,0,-1
264 271 m 2,38,39
 311 271 311 271 355 277 c 1,40,-1
 311 544 l 1,41,-1
 304 544 l 1,42,-1
 179 271 l 1,43,-1
 264 271 l 2,38,39
267 818 m 1,44,45
 285 768 285 768 353.5 768 c 128,-1,46
 422 768 422 768 452 818 c 1,47,-1
 460 818 l 1,48,-1
 475 808 l 1,49,50
 458 766 458 766 425 738 c 128,-1,51
 392 710 392 710 346 710 c 128,-1,52
 300 710 300 710 274 738 c 128,-1,53
 248 766 248 766 241 808 c 1,54,-1
 259 818 l 1,55,-1
 267 818 l 1,44,45
EndSplineSet
EndChar

StartChar: abreve
Encoding: 259 259 196
Width: 461
GlyphClass: 2
Flags: W
LayerCount: 2
Fore
SplineSet
298 -12 m 0,0,1
 262 -12 262 -12 262 17 c 0,2,3
 262 35 262 35 305 225 c 1,4,-1
 299 227 l 1,5,6
 205 53 205 53 112 -12 c 1,7,8
 74 -12 74 -12 53 23.5 c 128,-1,9
 32 59 32 59 32 124 c 0,10,11
 32 247 32 247 104.5 353.5 c 128,-1,12
 177 460 177 460 261 460 c 1,13,-1
 361 444 l 1,14,-1
 370 469 l 1,15,-1
 375 470 l 1,16,-1
 406 455 l 1,17,-1
 414 443 l 1,18,19
 357 250 357 250 331 64 c 1,20,-1
 334 60 l 1,21,22
 341 60 341 60 354 70 c 128,-1,23
 367 80 367 80 413 119 c 1,24,-1
 425 118 l 1,25,-1
 438 94 l 1,26,27
 326 -12 326 -12 298 -12 c 0,0,1
131 69 m 0,28,29
 159 69 159 69 217.5 158.5 c 128,-1,30
 276 248 276 248 331 373 c 1,31,32
 277 406 277 406 229 406 c 128,-1,33
 181 406 181 406 141.5 334 c 128,-1,34
 102 262 102 262 102 173 c 0,35,36
 102 130 102 130 110.5 99.5 c 128,-1,37
 119 69 119 69 131 69 c 0,28,29
226.5 633 m 128,-1,39
 249 616 249 616 280.5 616 c 128,-1,40
 312 616 312 616 339 633 c 128,-1,41
 366 650 366 650 381 682 c 1,42,-1
 390 682 l 1,43,-1
 404 672 l 1,44,45
 387 624 387 624 354 591 c 128,-1,46
 321 558 321 558 274 558 c 128,-1,47
 227 558 227 558 201.5 591 c 128,-1,48
 176 624 176 624 171 672 c 1,49,-1
 188 682 l 1,50,-1
 196 682 l 1,51,38
 204 650 204 650 226.5 633 c 128,-1,39
EndSplineSet
EndChar

StartChar: Aogonek
Encoding: 260 260 197
Width: 558
GlyphClass: 2
Flags: W
LayerCount: 2
Fore
SplineSet
355 -220 m 128,-1,1
 329 -198 329 -198 329 -160.5 c 128,-1,2
 329 -123 329 -123 356.5 -86 c 128,-1,3
 384 -49 384 -49 439 0 c 1,4,-1
 430 0 l 2,5,6
 365 0 365 0 287 -10 c 1,7,-1
 285 -3 l 1,8,-1
 293 33 l 1,9,10
 348 37 348 37 366.5 47 c 128,-1,11
 385 57 385 57 385 83 c 0,12,13
 385 96 385 96 363 234 c 1,14,15
 339 235 339 235 279.5 235 c 128,-1,16
 220 235 220 235 156 227 c 1,17,-1
 107 119 l 2,18,19
 93 90 93 90 93 73 c 0,20,21
 93 37 93 37 146 37 c 2,22,-1
 202 37 l 1,23,-1
 202 34 l 1,24,-1
 192 -7 l 1,25,26
 124 0 124 0 60 0 c 1,27,-1
 -45 -3 l 1,28,-1
 -32 42 l 1,29,30
 -3 45 -3 45 15.5 61.5 c 128,-1,31
 34 78 34 78 54 120 c 2,32,-1
 302 631 l 1,33,-1
 358 648 l 1,34,-1
 366 649 l 1,35,36
 410 342 410 342 456 111 c 0,37,38
 463 73 463 73 480.5 58.5 c 128,-1,39
 498 44 498 44 540 39 c 1,40,-1
 542 36 l 1,41,-1
 531 -3 l 1,42,-1
 481 -1 l 1,43,44
 430 -49 430 -49 411.5 -76.5 c 128,-1,45
 393 -104 393 -104 393 -130 c 128,-1,46
 393 -156 393 -156 406.5 -169.5 c 128,-1,47
 420 -183 420 -183 439 -183 c 0,48,49
 477 -183 477 -183 519 -160 c 1,50,-1
 529 -179 l 1,51,52
 476 -225 476 -225 425 -242 c 1,53,0
 381 -242 381 -242 355 -220 c 128,-1,1
264 271 m 2,54,55
 311 271 311 271 355 277 c 1,56,-1
 311 544 l 1,57,-1
 304 544 l 1,58,-1
 179 271 l 1,59,-1
 264 271 l 2,54,55
EndSplineSet
EndChar

StartChar: aogonek
Encoding: 261 261 198
Width: 461
GlyphClass: 2
Flags: W
LayerCount: 2
Fore
SplineSet
211 -219 m 128,-1,1
 185 -197 185 -197 185 -160.5 c 128,-1,2
 185 -124 185 -124 209.5 -90 c 128,-1,3
 234 -56 234 -56 283 -10 c 1,4,5
 262 -6 262 -6 262 17 c 0,6,7
 262 35 262 35 305 225 c 1,8,-1
 299 227 l 1,9,10
 205 53 205 53 112 -12 c 1,11,12
 74 -12 74 -12 53 23.5 c 128,-1,13
 32 59 32 59 32 124 c 0,14,15
 32 247 32 247 104.5 353.5 c 128,-1,16
 177 460 177 460 261 460 c 1,17,-1
 361 444 l 1,18,-1
 370 469 l 1,19,-1
 375 470 l 1,20,-1
 406 455 l 1,21,-1
 414 443 l 1,22,23
 357 250 357 250 331 64 c 1,24,-1
 334 60 l 1,25,26
 341 60 341 60 354 70 c 128,-1,27
 367 80 367 80 413 119 c 1,28,-1
 425 118 l 1,29,-1
 441 90 l 1,30,31
 327 -6 327 -6 288 -49.5 c 128,-1,32
 249 -93 249 -93 249 -134 c 0,33,34
 249 -155 249 -155 262.5 -168.5 c 128,-1,35
 276 -182 276 -182 295 -182 c 0,36,37
 329 -182 329 -182 375 -159 c 1,38,-1
 385 -178 l 1,39,40
 332 -224 332 -224 281 -241 c 1,41,0
 237 -241 237 -241 211 -219 c 128,-1,1
131 69 m 0,42,43
 159 69 159 69 217.5 158.5 c 128,-1,44
 276 248 276 248 331 373 c 1,45,46
 277 406 277 406 229 406 c 128,-1,47
 181 406 181 406 141.5 334 c 128,-1,48
 102 262 102 262 102 173 c 0,49,50
 102 130 102 130 110.5 99.5 c 128,-1,51
 119 69 119 69 131 69 c 0,42,43
EndSplineSet
EndChar

